<?xml version="1.0" encoding="utf-8"?>
<!-- Generator: Adobe Illustrator 26.0.0, SVG Export Plug-In . SVG Version: 6.00 Build 0)  -->
<svg version="1.1" id="Object" xmlns="http://www.w3.org/2000/svg" xmlns:xlink="http://www.w3.org/1999/xlink" x="0px" y="0px"
	 viewBox="0 0 2340 1560" style="enable-background:new 0 0 2340 1560;" xml:space="preserve">
<style type="text/css">
	.st0{opacity:0.66;fill:url(#XMLID_00000120517064516347456590000009449077284571612569_);}
	.st1{opacity:0.59;fill:#FFFFFF;}
	.st2{fill:#FFFFFF;}
	.st3{opacity:0.65;fill:#FFFFFF;}
	.st4{fill:#F9CB69;}
	.st5{fill:#F5A967;}
	.st6{fill:#F9E268;}
	.st7{fill:#C9DAFC;}
	.st8{fill:#ECF5FF;}
	.st9{fill:#FFAB4D;}
	.st10{fill:#AFC1D3;}
	.st11{fill:#B8BCFC;}
	.st12{fill:#5F546F;}
	.st13{fill:#F1F0F4;}
	.st14{fill:#ECF3FA;}
	.st15{opacity:8.000000e-02;fill:#2B778F;}
	.st16{fill:#F9BAA9;}
	.st17{fill:#5874C0;}
	.st18{fill:#6A91EC;}
	.st19{fill:#F0F1F2;}
	.st20{fill:#F9A4A9;}
	.st21{fill:#FF7276;}
	.st22{fill:#5E617F;}
	.st23{fill:#FEB41F;}
	.st24{fill:#FFCB05;}
	.st25{fill:#FFDC7A;}
	.st26{fill:#58549D;}
	.st27{fill:#E5F0FF;}
	.st28{fill:#00A9FF;}
	.st29{fill:#F1F1F1;}
	.st30{opacity:8.000000e-02;fill:#2C788F;}
	.st31{fill:#5A74B7;}
	.st32{fill:#59559D;}
	.st33{fill:#F9B9A8;}
	.st34{fill:#D9E037;}
	.st35{fill:#7186C2;}
	.st36{fill:#BAD654;}
	.st37{fill:#F6A3A8;}
	.st38{fill:#B74E52;}
</style>
<symbol  id="Deleted_Symbol_10" viewBox="-122.5 -65.5 245 131">
	
		<linearGradient id="XMLID_00000164488551018682872150000015306869732652465284_" gradientUnits="userSpaceOnUse" x1="-122.4999" y1="2.000000e-04" x2="122.5001" y2="2.000000e-04">
		<stop  offset="0" style="stop-color:#00B4D0"/>
		<stop  offset="1" style="stop-color:#40BFBC"/>
	</linearGradient>
	
		<rect id="XMLID_347_" x="-122.5" y="-65.5" style="opacity:0.66;fill:url(#XMLID_00000164488551018682872150000015306869732652465284_);" width="245" height="131"/>
	<rect id="XMLID_346_" x="-108.3" y="6" class="st1" width="66" height="46.7"/>
	<rect id="XMLID_345_" x="-103" y="-5.3" class="st2" width="102" height="3.3"/>
	<rect id="XMLID_344_" x="-103" y="-15.3" class="st2" width="102" height="3.3"/>
	<rect id="XMLID_343_" x="-103" y="-25.3" class="st2" width="102" height="3.3"/>
	<rect id="XMLID_342_" x="-102.3" y="-35.3" class="st2" width="75.3" height="3.3"/>
	<rect id="XMLID_341_" x="32.3" y="-45.5" class="st3" width="85.3" height="98.7"/>
	<rect id="XMLID_340_" x="-21" y="29.3" class="st3" width="30.7" height="20.7"/>
	<polygon id="XMLID_102_" class="st2" points="-43,19 -64.5,33.5 -71.5,28.5 -77,29.5 -89.5,20 -98.5,25.5 -108.5,19.5 -108.3,6 
		-42.3,6 	"/>
	<path id="XMLID_101_" class="st2" d="M9.7,29.3L3.5,37l-6,1c0,0,0,6.5-4.5,7.5s-6.5-4-4.5-6s2-2,2-2l-7.5-1l0.5-7.5L9.7,29.3z"/>
	<path id="XMLID_100_" class="st2" d="M92,29.7l-7.3,2c0,0-5.3,5-10,4c-4.7-1-4.3-13-14-16.7c-9.7-3.7-24-26.3-24-26.3L31.3-18
		l9,2.3l-11.7-28L54-44v26.3l10.3-5.7l-3-4l2-2.3l-6.7-4l-0.3-5.7l2.7,4.7l7,3.3l9.7,0.7L72-39c0,0,5,4.7,7.3,6.3
		C81.7-31,96-38,97.7-39.3c1.7-1.3,2.7-4.3,2.7-4.3l11.3-0.3v5.7c0,0-12,9.3-24.7,12c-12.7,2.7-14.7,2-14.7,2l-5,2.7l-11,5.7
		c0,0,21,7,23.7,18s1.7,24.7,3.3,25.3C85,28,92,29.7,92,29.7z"/>
</symbol>
<g>
	<g>
		<g>
			<g>
				<g>
					<path class="st4" d="M678.2,818.6v12.6c0,14,20.4,25.3,45.6,25.3c25.2,0,45.6-11.3,45.6-25.3v-12.6H678.2z"/>
					<path class="st5" d="M754.6,837.2v12.6c-4.3,2.2-9.3,3.9-14.8,5.1v-12.6C745.4,841.1,750.4,839.4,754.6,837.2z"/>
					<path class="st5" d="M731.4,836.9h1c0.7,0,1.4,0.7,1.4,1.6V856c-1.2,0.2-2.5,0.3-3.7,0.4v-17.9
						C730,837.6,730.6,836.9,731.4,836.9z"/>
					<path class="st5" d="M721.9,836.9h1c0.7,0,1.4,0.7,1.4,1.6v18.1c-0.2,0-0.3,0-0.5,0c-1.1,0-2.1,0-3.2-0.1v-18
						C720.6,837.6,721.2,836.9,721.9,836.9z"/>
					<path class="st5" d="M712.5,836.9h1c0.7,0,1.4,0.7,1.4,1.6v17.6c-1.3-0.1-2.5-0.3-3.7-0.5v-17.1
						C711.1,837.6,711.7,836.9,712.5,836.9z"/>
					<path class="st5" d="M703.1,836.9h1c0.7,0,1.4,0.7,1.4,1.6v16c-1.3-0.3-2.5-0.6-3.7-1v-14.9
						C701.7,837.6,702.3,836.9,703.1,836.9z"/>
					<path class="st5" d="M693.6,833.8h1c0.7,0,1.4,0.7,1.4,1.6v15.9c-1.3-0.6-2.5-1.1-3.7-1.8v-14.1
						C692.3,834.6,692.9,833.8,693.6,833.8z"/>
					<path class="st5" d="M684.2,825.3h1c0.7,0,1.4,0.7,1.4,1.6v18.9c-1.4-1.1-2.6-2.2-3.7-3.5V827
						C682.8,826.1,683.4,825.3,684.2,825.3z"/>
					<path class="st5" d="M679,835.9c-0.5-1.5-0.8-3.1-0.8-4.7v-12.6h0.8V835.9z"/>
					<path class="st5" d="M761.1,824.6h1c0.7,0,1.4,0.7,1.4,1.6v17.5c-1.1,1.1-2.3,2.1-3.7,3.1v-20.6
						C759.7,825.3,760.4,824.6,761.1,824.6z"/>
					<path class="st5" d="M769.4,831.2c0,1.8-0.4,3.6-1,5.4v-17.9c0,0,0-0.1,0-0.1h1V831.2z"/>
					<path class="st6" d="M769.4,818.6c0,14-20.4,25.3-45.6,25.3c-25.2,0-45.6-11.3-45.6-25.3c0-14,20.4-25.3,45.6-25.3
						C749,793.3,769.4,804.6,769.4,818.6z"/>
					<path class="st4" d="M757.6,818.6c0,10.4-15.2,18.8-33.9,18.8c-18.7,0-33.9-8.4-33.9-18.8c0-10.4,15.2-18.8,33.9-18.8
						C742.5,799.8,757.6,808.2,757.6,818.6z"/>
					<path class="st5" d="M723.8,803c-17.7,0-32.3,7.6-33.7,17.2c-0.1-0.5-0.1-1.1-0.1-1.6c0-10.4,15.2-18.8,33.9-18.8
						c18.7,0,33.9,8.4,33.9,18.8c0,0.5,0,1.1-0.1,1.6C756,810.6,741.5,803,723.8,803z"/>
				</g>
				<g>
					<path class="st5" d="M705.1,812.6l2.6,1.5c-2.4,1.6-4.4,3.4-5.9,5.6l7.8,1.8c1.5-2.2,3.3-4,5.5-5.2c1-0.6,1.9-0.9,2.5-1
						c0.7-0.1,1.2,0,1.7,0.3c0.4,0.2,0.6,0.5,0.6,0.9c0,0.3-0.2,0.8-0.7,1.4c-0.4,0.6-1,1.5-1.9,2.5c-1.7,2.1-2.6,3.8-2.6,5.2
						c0,1.4,1,2.6,2.9,3.7c2.1,1.2,4.6,1.9,7.3,1.9c2.7,0,5.5-0.7,8.5-2l3.7,2.1l4-2.3l-3.6-2.1c2.7-1.7,4.8-3.6,6.3-5.8l-6.4-3.7
						c-0.7,1.3-1.7,2.6-3,3.9c-1.2,1.3-2.5,2.3-3.9,3.1c-1.1,0.6-2,1-2.8,1.2c-0.8,0.1-1.5,0-2.1-0.3c-0.4-0.2-0.6-0.6-0.5-0.9
						c0.1-0.4,0.4-0.9,0.8-1.6c0.5-0.7,1.2-1.6,2.1-2.8c1-1.3,1.7-2.4,1.9-3.5c0.3-1,0.1-1.9-0.3-2.7c-0.5-0.8-1.4-1.6-2.8-2.4
						c-2.1-1.2-4.4-1.8-7-1.7c-2.6,0.1-5.3,0.8-8.3,2.3l-2.6-1.5L705.1,812.6z"/>
				</g>
			</g>
			<g>
				<g>
					<path class="st4" d="M678.2,803.2v12.6c0,14,20.4,25.3,45.6,25.3c25.2,0,45.6-11.3,45.6-25.3v-12.6H678.2z"/>
					<path class="st5" d="M754.6,821.9v12.6c-4.3,2.2-9.3,3.9-14.8,5.1v-12.6C745.4,825.8,750.4,824.1,754.6,821.9z"/>
					<path class="st5" d="M731.4,821.5h1c0.7,0,1.4,0.7,1.4,1.6v17.5c-1.2,0.2-2.5,0.3-3.7,0.4v-17.9
						C730,822.2,730.6,821.5,731.4,821.5z"/>
					<path class="st5" d="M721.9,821.5h1c0.7,0,1.4,0.7,1.4,1.6v18.1c-0.2,0-0.3,0-0.5,0c-1.1,0-2.1,0-3.2-0.1v-18
						C720.6,822.2,721.2,821.5,721.9,821.5z"/>
					<path class="st5" d="M712.5,821.5h1c0.7,0,1.4,0.7,1.4,1.6v17.6c-1.3-0.1-2.5-0.3-3.7-0.5v-17.1
						C711.1,822.2,711.7,821.5,712.5,821.5z"/>
					<path class="st5" d="M703.1,821.5h1c0.7,0,1.4,0.7,1.4,1.6v16c-1.3-0.3-2.5-0.6-3.7-1v-14.9
						C701.7,822.2,702.3,821.5,703.1,821.5z"/>
					<path class="st5" d="M693.6,818.5h1c0.7,0,1.4,0.7,1.4,1.6V836c-1.3-0.6-2.5-1.1-3.7-1.8v-14.1
						C692.3,819.2,692.9,818.5,693.6,818.5z"/>
					<path class="st5" d="M684.2,810h1c0.7,0,1.4,0.7,1.4,1.6v18.9c-1.4-1.1-2.6-2.2-3.7-3.5v-15.4C682.8,810.7,683.4,810,684.2,810
						z"/>
					<path class="st5" d="M679,820.6c-0.5-1.5-0.8-3.1-0.8-4.7v-12.6h0.8V820.6z"/>
					<path class="st5" d="M761.1,809.2h1c0.7,0,1.4,0.7,1.4,1.6v17.5c-1.1,1.1-2.3,2.1-3.7,3.1v-20.6
						C759.7,810,760.4,809.2,761.1,809.2z"/>
					<path class="st5" d="M769.4,815.9c0,1.8-0.4,3.6-1,5.4v-17.9c0,0,0-0.1,0-0.1h1V815.9z"/>
					<path class="st6" d="M769.4,803.2c0,14-20.4,25.3-45.6,25.3c-25.2,0-45.6-11.3-45.6-25.3c0-14,20.4-25.3,45.6-25.3
						C749,777.9,769.4,789.3,769.4,803.2z"/>
					<path class="st4" d="M757.6,803.2c0,10.4-15.2,18.8-33.9,18.8c-18.7,0-33.9-8.4-33.9-18.8c0-10.4,15.2-18.8,33.9-18.8
						C742.5,784.4,757.6,792.9,757.6,803.2z"/>
					<path class="st5" d="M723.8,787.6c-17.7,0-32.3,7.6-33.7,17.2c-0.1-0.5-0.1-1.1-0.1-1.6c0-10.4,15.2-18.8,33.9-18.8
						c18.7,0,33.9,8.4,33.9,18.8c0,0.5,0,1.1-0.1,1.6C756,795.2,741.5,787.6,723.8,787.6z"/>
				</g>
				<g>
					<path class="st5" d="M705.1,797.3l2.6,1.5c-2.4,1.6-4.4,3.4-5.9,5.6l7.8,1.8c1.5-2.2,3.3-4,5.5-5.2c1-0.6,1.9-0.9,2.5-1
						c0.7-0.1,1.2,0,1.7,0.3c0.4,0.2,0.6,0.5,0.6,0.9c0,0.3-0.2,0.8-0.7,1.4c-0.4,0.6-1,1.5-1.9,2.5c-1.7,2.1-2.6,3.8-2.6,5.2
						c0,1.4,1,2.6,2.9,3.7c2.1,1.2,4.6,1.9,7.3,1.9c2.7,0,5.5-0.7,8.5-2l3.7,2.1l4-2.3l-3.6-2.1c2.7-1.7,4.8-3.6,6.3-5.8l-6.4-3.7
						c-0.7,1.3-1.7,2.6-3,3.9c-1.2,1.3-2.5,2.3-3.9,3.1c-1.1,0.6-2,1-2.8,1.2c-0.8,0.1-1.5,0-2.1-0.3c-0.4-0.2-0.6-0.6-0.5-0.9
						c0.1-0.4,0.4-0.9,0.8-1.6c0.5-0.7,1.2-1.6,2.1-2.8c1-1.3,1.7-2.4,1.9-3.5c0.3-1,0.1-1.9-0.3-2.7c-0.5-0.8-1.4-1.6-2.8-2.4
						c-2.1-1.2-4.4-1.8-7-1.7c-2.6,0.1-5.3,0.8-8.3,2.3l-2.6-1.5L705.1,797.3z"/>
				</g>
			</g>
			<g>
				<g>
					<path class="st4" d="M678.2,787.9v12.6c0,14,20.4,25.3,45.6,25.3c25.2,0,45.6-11.3,45.6-25.3v-12.6H678.2z"/>
					<path class="st5" d="M754.6,806.5v12.6c-4.3,2.2-9.3,3.9-14.8,5.1v-12.6C745.4,810.4,750.4,808.7,754.6,806.5z"/>
					<path class="st5" d="M731.4,806.1h1c0.7,0,1.4,0.7,1.4,1.6v17.5c-1.2,0.2-2.5,0.3-3.7,0.4v-17.9
						C730,806.9,730.6,806.1,731.4,806.1z"/>
					<path class="st5" d="M721.9,806.1h1c0.7,0,1.4,0.7,1.4,1.6v18.1c-0.2,0-0.3,0-0.5,0c-1.1,0-2.1,0-3.2-0.1v-18
						C720.6,806.9,721.2,806.1,721.9,806.1z"/>
					<path class="st5" d="M712.5,806.1h1c0.7,0,1.4,0.7,1.4,1.6v17.6c-1.3-0.1-2.5-0.3-3.7-0.5v-17.1
						C711.1,806.9,711.7,806.1,712.5,806.1z"/>
					<path class="st5" d="M703.1,806.1h1c0.7,0,1.4,0.7,1.4,1.6v16c-1.3-0.3-2.5-0.6-3.7-1v-14.9
						C701.7,806.9,702.3,806.1,703.1,806.1z"/>
					<path class="st5" d="M693.6,803.1h1c0.7,0,1.4,0.7,1.4,1.6v15.9c-1.3-0.6-2.5-1.1-3.7-1.8v-14.1
						C692.3,803.8,692.9,803.1,693.6,803.1z"/>
					<path class="st5" d="M684.2,794.6h1c0.7,0,1.4,0.7,1.4,1.6v18.9c-1.4-1.1-2.6-2.2-3.7-3.5v-15.4
						C682.8,795.4,683.4,794.6,684.2,794.6z"/>
					<path class="st5" d="M679,805.2c-0.5-1.5-0.8-3.1-0.8-4.7v-12.6h0.8V805.2z"/>
					<path class="st5" d="M761.1,793.9h1c0.7,0,1.4,0.7,1.4,1.6V813c-1.1,1.1-2.3,2.1-3.7,3.1v-20.6
						C759.7,794.6,760.4,793.9,761.1,793.9z"/>
					<path class="st5" d="M769.4,800.5c0,1.8-0.4,3.6-1,5.4V788c0,0,0-0.1,0-0.1h1V800.5z"/>
					<path class="st6" d="M769.4,787.9c0,14-20.4,25.3-45.6,25.3c-25.2,0-45.6-11.3-45.6-25.3c0-14,20.4-25.3,45.6-25.3
						C749,762.5,769.4,773.9,769.4,787.9z"/>
					<path class="st4" d="M757.6,787.9c0,10.4-15.2,18.8-33.9,18.8c-18.7,0-33.9-8.4-33.9-18.8c0-10.4,15.2-18.8,33.9-18.8
						C742.5,769.1,757.6,777.5,757.6,787.9z"/>
					<path class="st5" d="M723.8,772.3c-17.7,0-32.3,7.6-33.7,17.2c-0.1-0.5-0.1-1.1-0.1-1.6c0-10.4,15.2-18.8,33.9-18.8
						c18.7,0,33.9,8.4,33.9,18.8c0,0.5,0,1.1-0.1,1.6C756,779.8,741.5,772.3,723.8,772.3z"/>
				</g>
				<g>
					<path class="st5" d="M705.1,781.9l2.6,1.5c-2.4,1.6-4.4,3.4-5.9,5.6l7.8,1.8c1.5-2.2,3.3-4,5.5-5.2c1-0.6,1.9-0.9,2.5-1
						c0.7-0.1,1.2,0,1.7,0.3c0.4,0.2,0.6,0.5,0.6,0.9c0,0.3-0.2,0.8-0.7,1.4c-0.4,0.6-1,1.5-1.9,2.5c-1.7,2.1-2.6,3.8-2.6,5.2
						c0,1.4,1,2.6,2.9,3.7c2.1,1.2,4.6,1.9,7.3,1.9c2.7,0,5.5-0.7,8.5-2l3.7,2.1l4-2.3l-3.6-2.1c2.7-1.7,4.8-3.6,6.3-5.8l-6.4-3.7
						c-0.7,1.3-1.7,2.6-3,3.9c-1.2,1.3-2.5,2.3-3.9,3.1c-1.1,0.6-2,1-2.8,1.2c-0.8,0.1-1.5,0-2.1-0.3c-0.4-0.2-0.6-0.6-0.5-0.9
						c0.1-0.4,0.4-0.9,0.8-1.6c0.5-0.7,1.2-1.6,2.1-2.8c1-1.3,1.7-2.4,1.9-3.5c0.3-1,0.1-1.9-0.3-2.7c-0.5-0.8-1.4-1.6-2.8-2.4
						c-2.1-1.2-4.4-1.8-7-1.7c-2.6,0.1-5.3,0.8-8.3,2.3l-2.6-1.5L705.1,781.9z"/>
				</g>
			</g>
		</g>
		<g>
			<g>
				<g>
					<path class="st4" d="M745.3,857.5v12.6c0,14,20.4,25.3,45.6,25.3s45.6-11.3,45.6-25.3v-12.6H745.3z"/>
					<path class="st5" d="M821.8,876.1v12.6c-4.3,2.2-9.3,3.9-14.8,5.1v-12.6C812.5,880,817.5,878.3,821.8,876.1z"/>
					<path class="st5" d="M798.5,875.7h1c0.7,0,1.4,0.7,1.4,1.6v17.5c-1.2,0.2-2.5,0.3-3.7,0.4v-17.9
						C797.2,876.5,797.8,875.7,798.5,875.7z"/>
					<path class="st5" d="M789.1,875.7h1c0.7,0,1.4,0.7,1.4,1.6v18.1c-0.2,0-0.3,0-0.5,0c-1.1,0-2.1,0-3.2-0.1v-18
						C787.7,876.5,788.4,875.7,789.1,875.7z"/>
					<path class="st5" d="M779.7,875.7h1c0.7,0,1.4,0.7,1.4,1.6V895c-1.3-0.1-2.5-0.3-3.7-0.5v-17.1
						C778.3,876.5,778.9,875.7,779.7,875.7z"/>
					<path class="st5" d="M770.2,875.7h1c0.7,0,1.4,0.7,1.4,1.6v16c-1.3-0.3-2.5-0.6-3.7-1v-14.9
						C768.9,876.5,769.5,875.7,770.2,875.7z"/>
					<path class="st5" d="M760.8,872.7h1c0.7,0,1.4,0.7,1.4,1.6v15.9c-1.3-0.6-2.5-1.1-3.7-1.8v-14.1
						C759.4,873.4,760,872.7,760.8,872.7z"/>
					<path class="st5" d="M751.3,864.2h1c0.7,0,1.4,0.7,1.4,1.6v18.9c-1.4-1.1-2.6-2.2-3.7-3.5v-15.4
						C750,865,750.6,864.2,751.3,864.2z"/>
					<path class="st5" d="M746.1,874.8c-0.5-1.5-0.8-3.1-0.8-4.7v-12.6h0.8V874.8z"/>
					<path class="st5" d="M828.3,863.5h1c0.7,0,1.4,0.7,1.4,1.6v17.5c-1.1,1.1-2.3,2.1-3.7,3.1v-20.6
						C826.9,864.2,827.5,863.5,828.3,863.5z"/>
					<path class="st5" d="M836.5,870.1c0,1.8-0.4,3.6-1,5.4v-17.9c0,0,0-0.1,0-0.1h1V870.1z"/>
					<path class="st6" d="M836.5,857.5c0,14-20.4,25.3-45.6,25.3s-45.6-11.3-45.6-25.3c0-14,20.4-25.3,45.6-25.3
						S836.5,843.5,836.5,857.5z"/>
					<path class="st4" d="M824.8,857.5c0,10.4-15.2,18.8-33.9,18.8c-18.7,0-33.9-8.4-33.9-18.8c0-10.4,15.2-18.8,33.9-18.8
						C809.6,838.7,824.8,847.1,824.8,857.5z"/>
					<path class="st5" d="M790.9,841.9c-17.7,0-32.3,7.6-33.7,17.2c-0.1-0.5-0.1-1.1-0.1-1.6c0-10.4,15.2-18.8,33.9-18.8
						c18.7,0,33.9,8.4,33.9,18.8c0,0.5,0,1.1-0.1,1.6C823.2,849.4,808.7,841.9,790.9,841.9z"/>
				</g>
				<g>
					<path class="st5" d="M772.2,851.5l2.6,1.5c-2.4,1.6-4.4,3.4-5.9,5.6l7.8,1.8c1.5-2.2,3.3-4,5.5-5.2c1-0.6,1.9-0.9,2.5-1
						c0.7-0.1,1.2,0,1.7,0.3c0.4,0.2,0.6,0.5,0.6,0.9c0,0.3-0.2,0.8-0.7,1.4c-0.4,0.6-1,1.5-1.9,2.5c-1.7,2.1-2.6,3.8-2.6,5.2
						c0,1.4,1,2.6,2.9,3.7c2.1,1.2,4.6,1.9,7.3,1.9c2.7,0,5.5-0.7,8.5-2l3.7,2.1l4-2.3l-3.6-2.1c2.7-1.7,4.8-3.6,6.3-5.8l-6.4-3.7
						c-0.7,1.3-1.7,2.6-3,3.9c-1.2,1.3-2.5,2.3-3.9,3.1c-1.1,0.6-2,1-2.8,1.2c-0.8,0.1-1.5,0-2.1-0.3c-0.4-0.2-0.6-0.6-0.5-0.9
						c0.1-0.4,0.4-0.9,0.8-1.6c0.5-0.7,1.2-1.6,2.1-2.8c1-1.3,1.7-2.4,1.9-3.5c0.3-1,0.2-1.9-0.3-2.7c-0.5-0.8-1.4-1.6-2.8-2.4
						c-2.1-1.2-4.4-1.8-7-1.7c-2.6,0.1-5.3,0.8-8.3,2.3l-2.6-1.5L772.2,851.5z"/>
				</g>
			</g>
			<g>
				<g>
					<path class="st4" d="M745.3,842.1v12.6c0,14,20.4,25.3,45.6,25.3s45.6-11.3,45.6-25.3v-12.6H745.3z"/>
					<path class="st5" d="M821.8,860.8v12.6c-4.3,2.2-9.3,3.9-14.8,5.1v-12.6C812.5,864.7,817.5,862.9,821.8,860.8z"/>
					<path class="st5" d="M798.5,860.4h1c0.7,0,1.4,0.7,1.4,1.6v17.5c-1.2,0.2-2.5,0.3-3.7,0.4V862
						C797.2,861.1,797.8,860.4,798.5,860.4z"/>
					<path class="st5" d="M789.1,860.4h1c0.7,0,1.4,0.7,1.4,1.6v18.1c-0.2,0-0.3,0-0.5,0c-1.1,0-2.1,0-3.2-0.1v-18
						C787.7,861.1,788.4,860.4,789.1,860.4z"/>
					<path class="st5" d="M779.7,860.4h1c0.7,0,1.4,0.7,1.4,1.6v17.6c-1.3-0.1-2.5-0.3-3.7-0.5V862
						C778.3,861.1,778.9,860.4,779.7,860.4z"/>
					<path class="st5" d="M770.2,860.4h1c0.7,0,1.4,0.7,1.4,1.6v16c-1.3-0.3-2.5-0.6-3.7-1V862C768.9,861.1,769.5,860.4,770.2,860.4
						z"/>
					<path class="st5" d="M760.8,857.4h1c0.7,0,1.4,0.7,1.4,1.6v15.9c-1.3-0.6-2.5-1.1-3.7-1.8V859
						C759.4,858.1,760,857.4,760.8,857.4z"/>
					<path class="st5" d="M751.3,848.9h1c0.7,0,1.4,0.7,1.4,1.6v18.9c-1.4-1.1-2.6-2.2-3.7-3.5v-15.4
						C750,849.6,750.6,848.9,751.3,848.9z"/>
					<path class="st5" d="M746.1,859.5c-0.5-1.5-0.8-3.1-0.8-4.7v-12.6h0.8V859.5z"/>
					<path class="st5" d="M828.3,848.1h1c0.7,0,1.4,0.7,1.4,1.6v17.5c-1.1,1.1-2.3,2.1-3.7,3.1v-20.6
						C826.9,848.9,827.5,848.1,828.3,848.1z"/>
					<path class="st5" d="M836.5,854.8c0,1.8-0.4,3.6-1,5.4v-17.9c0,0,0-0.1,0-0.1h1V854.8z"/>
					<path class="st6" d="M836.5,842.1c0,14-20.4,25.3-45.6,25.3s-45.6-11.3-45.6-25.3c0-14,20.4-25.3,45.6-25.3
						S836.5,828.1,836.5,842.1z"/>
					<path class="st4" d="M824.8,842.1c0,10.4-15.2,18.8-33.9,18.8c-18.7,0-33.9-8.4-33.9-18.8c0-10.4,15.2-18.8,33.9-18.8
						C809.6,823.3,824.8,831.7,824.8,842.1z"/>
					<path class="st5" d="M790.9,826.5c-17.7,0-32.3,7.6-33.7,17.2c-0.1-0.5-0.1-1.1-0.1-1.6c0-10.4,15.2-18.8,33.9-18.8
						c18.7,0,33.9,8.4,33.9,18.8c0,0.5,0,1.1-0.1,1.6C823.2,834.1,808.7,826.5,790.9,826.5z"/>
				</g>
				<g>
					<path class="st5" d="M772.2,836.1l2.6,1.5c-2.4,1.6-4.4,3.4-5.9,5.6l7.8,1.8c1.5-2.2,3.3-4,5.5-5.2c1-0.6,1.9-0.9,2.5-1
						c0.7-0.1,1.2,0,1.7,0.3c0.4,0.2,0.6,0.5,0.6,0.9c0,0.3-0.2,0.8-0.7,1.4c-0.4,0.6-1,1.5-1.9,2.5c-1.7,2.1-2.6,3.8-2.6,5.2
						c0,1.4,1,2.6,2.9,3.7c2.1,1.2,4.6,1.9,7.3,1.9c2.7,0,5.5-0.7,8.5-2l3.7,2.1l4-2.3l-3.6-2.1c2.7-1.7,4.8-3.6,6.3-5.8l-6.4-3.7
						c-0.7,1.3-1.7,2.6-3,3.9c-1.2,1.3-2.5,2.3-3.9,3.1c-1.1,0.6-2,1-2.8,1.2c-0.8,0.1-1.5,0-2.1-0.3c-0.4-0.2-0.6-0.6-0.5-0.9
						c0.1-0.4,0.4-0.9,0.8-1.6c0.5-0.7,1.2-1.6,2.1-2.8c1-1.3,1.7-2.4,1.9-3.5c0.3-1,0.2-1.9-0.3-2.7c-0.5-0.8-1.4-1.6-2.8-2.4
						c-2.1-1.2-4.4-1.8-7-1.7c-2.6,0.1-5.3,0.8-8.3,2.3l-2.6-1.5L772.2,836.1z"/>
				</g>
			</g>
			<g>
				<g>
					<path class="st4" d="M745.3,826.8v12.6c0,14,20.4,25.3,45.6,25.3s45.6-11.3,45.6-25.3v-12.6H745.3z"/>
					<path class="st5" d="M821.8,845.4V858c-4.3,2.2-9.3,3.9-14.8,5.1v-12.6C812.5,849.3,817.5,847.6,821.8,845.4z"/>
					<path class="st5" d="M798.5,845h1c0.7,0,1.4,0.7,1.4,1.6v17.5c-1.2,0.2-2.5,0.3-3.7,0.4v-17.9C797.2,845.8,797.8,845,798.5,845
						z"/>
					<path class="st5" d="M789.1,845h1c0.7,0,1.4,0.7,1.4,1.6v18.1c-0.2,0-0.3,0-0.5,0c-1.1,0-2.1,0-3.2-0.1v-18
						C787.7,845.8,788.4,845,789.1,845z"/>
					<path class="st5" d="M779.7,845h1c0.7,0,1.4,0.7,1.4,1.6v17.6c-1.3-0.1-2.5-0.3-3.7-0.5v-17.1C778.3,845.8,778.9,845,779.7,845
						z"/>
					<path class="st5" d="M770.2,845h1c0.7,0,1.4,0.7,1.4,1.6v16c-1.3-0.3-2.5-0.6-3.7-1v-14.9C768.9,845.8,769.5,845,770.2,845z"/>
					<path class="st5" d="M760.8,842h1c0.7,0,1.4,0.7,1.4,1.6v15.9c-1.3-0.6-2.5-1.1-3.7-1.8v-14.1C759.4,842.7,760,842,760.8,842z"
						/>
					<path class="st5" d="M751.3,833.5h1c0.7,0,1.4,0.7,1.4,1.6V854c-1.4-1.1-2.6-2.2-3.7-3.5v-15.4
						C750,834.2,750.6,833.5,751.3,833.5z"/>
					<path class="st5" d="M746.1,844.1c-0.5-1.5-0.8-3.1-0.8-4.7v-12.6h0.8V844.1z"/>
					<path class="st5" d="M828.3,832.8h1c0.7,0,1.4,0.7,1.4,1.6v17.5c-1.1,1.1-2.3,2.1-3.7,3.1v-20.6
						C826.9,833.5,827.5,832.8,828.3,832.8z"/>
					<path class="st5" d="M836.5,839.4c0,1.8-0.4,3.6-1,5.4v-17.9c0,0,0-0.1,0-0.1h1V839.4z"/>
					<path class="st6" d="M836.5,826.8c0,14-20.4,25.3-45.6,25.3s-45.6-11.3-45.6-25.3c0-14,20.4-25.3,45.6-25.3
						S836.5,812.8,836.5,826.8z"/>
					<path class="st4" d="M824.8,826.8c0,10.4-15.2,18.8-33.9,18.8c-18.7,0-33.9-8.4-33.9-18.8c0-10.4,15.2-18.8,33.9-18.8
						C809.6,808,824.8,816.4,824.8,826.8z"/>
					<path class="st5" d="M790.9,811.1c-17.7,0-32.3,7.6-33.7,17.2c-0.1-0.5-0.1-1.1-0.1-1.6c0-10.4,15.2-18.8,33.9-18.8
						c18.7,0,33.9,8.4,33.9,18.8c0,0.5,0,1.1-0.1,1.6C823.2,818.7,808.7,811.1,790.9,811.1z"/>
				</g>
				<g>
					<path class="st5" d="M772.2,820.8l2.6,1.5c-2.4,1.6-4.4,3.4-5.9,5.6l7.8,1.8c1.5-2.2,3.3-4,5.5-5.2c1-0.6,1.9-0.9,2.5-1
						c0.7-0.1,1.2,0,1.7,0.3c0.4,0.2,0.6,0.5,0.6,0.9c0,0.3-0.2,0.8-0.7,1.4c-0.4,0.6-1,1.5-1.9,2.5c-1.7,2.1-2.6,3.8-2.6,5.2
						c0,1.4,1,2.6,2.9,3.7c2.1,1.2,4.6,1.9,7.3,1.9c2.7,0,5.5-0.7,8.5-2l3.7,2.1l4-2.3l-3.6-2.1c2.7-1.7,4.8-3.6,6.3-5.8l-6.4-3.7
						c-0.7,1.3-1.7,2.6-3,3.9c-1.2,1.3-2.5,2.3-3.9,3.1c-1.1,0.6-2,1-2.8,1.2c-0.8,0.1-1.5,0-2.1-0.3c-0.4-0.2-0.6-0.6-0.5-0.9
						c0.1-0.4,0.4-0.9,0.8-1.6c0.5-0.7,1.2-1.6,2.1-2.8c1-1.3,1.7-2.4,1.9-3.5c0.3-1,0.2-1.9-0.3-2.7c-0.5-0.8-1.4-1.6-2.8-2.4
						c-2.1-1.2-4.4-1.8-7-1.7c-2.6,0.1-5.3,0.8-8.3,2.3l-2.6-1.5L772.2,820.8z"/>
				</g>
			</g>
		</g>
		<g>
			<g>
				<g>
					<path class="st4" d="M812.5,896.4V909c0,14,20.4,25.3,45.6,25.3s45.6-11.3,45.6-25.3v-12.6H812.5z"/>
					<path class="st5" d="M889,915v12.6c-4.3,2.2-9.3,3.9-14.8,5.1v-12.6C879.7,918.9,884.7,917.2,889,915z"/>
					<path class="st5" d="M865.7,914.6h1c0.7,0,1.4,0.7,1.4,1.6v17.5c-1.2,0.2-2.5,0.3-3.7,0.4v-17.9
						C864.3,915.4,865,914.6,865.7,914.6z"/>
					<path class="st5" d="M856.3,914.6h1c0.7,0,1.4,0.7,1.4,1.6v18.1c-0.2,0-0.3,0-0.5,0c-1.1,0-2.1,0-3.2-0.1v-18
						C854.9,915.4,855.5,914.6,856.3,914.6z"/>
					<path class="st5" d="M846.8,914.6h1c0.7,0,1.4,0.7,1.4,1.6v17.6c-1.3-0.1-2.5-0.3-3.7-0.5v-17.1
						C845.5,915.4,846.1,914.6,846.8,914.6z"/>
					<path class="st5" d="M837.4,914.6h1c0.7,0,1.4,0.7,1.4,1.6v16c-1.3-0.3-2.5-0.6-3.7-1v-14.9C836,915.4,836.6,914.6,837.4,914.6
						z"/>
					<path class="st5" d="M827.9,911.6h1c0.7,0,1.4,0.7,1.4,1.6v15.9c-1.3-0.6-2.5-1.1-3.7-1.8v-14.1
						C826.6,912.3,827.2,911.6,827.9,911.6z"/>
					<path class="st5" d="M818.5,903.1h1c0.7,0,1.4,0.7,1.4,1.6v18.9c-1.4-1.1-2.6-2.2-3.7-3.5v-15.4
						C817.2,903.8,817.8,903.1,818.5,903.1z"/>
					<path class="st5" d="M813.3,913.7c-0.5-1.5-0.8-3.1-0.8-4.7v-12.6h0.8V913.7z"/>
					<path class="st5" d="M895.4,902.4h1c0.7,0,1.4,0.7,1.4,1.6v17.5c-1.1,1.1-2.3,2.1-3.7,3.1V904
						C894.1,903.1,894.7,902.4,895.4,902.4z"/>
					<path class="st5" d="M903.7,909c0,1.8-0.4,3.6-1,5.4v-17.9c0,0,0-0.1,0-0.1h1V909z"/>
					<path class="st6" d="M903.7,896.4c0,14-20.4,25.3-45.6,25.3s-45.6-11.3-45.6-25.3c0-14,20.4-25.3,45.6-25.3
						S903.7,882.4,903.7,896.4z"/>
					<path class="st4" d="M892,896.4c0,10.4-15.2,18.8-33.9,18.8c-18.7,0-33.9-8.4-33.9-18.8c0-10.4,15.2-18.8,33.9-18.8
						C876.8,877.6,892,886,892,896.4z"/>
					<path class="st5" d="M858.1,880.7c-17.7,0-32.3,7.6-33.7,17.2c-0.1-0.5-0.1-1.1-0.1-1.6c0-10.4,15.2-18.8,33.9-18.8
						c18.7,0,33.9,8.4,33.9,18.8c0,0.5-0.1,1.1-0.1,1.6C890.4,888.3,875.8,880.7,858.1,880.7z"/>
				</g>
				<g>
					<path class="st5" d="M839.4,890.4l2.6,1.5c-2.4,1.6-4.4,3.4-5.9,5.6l7.8,1.8c1.5-2.2,3.3-4,5.5-5.2c1-0.6,1.9-0.9,2.5-1
						c0.7-0.1,1.2,0,1.7,0.3c0.4,0.2,0.6,0.5,0.6,0.9c0,0.3-0.2,0.8-0.7,1.4c-0.4,0.6-1,1.5-1.9,2.5c-1.7,2.1-2.6,3.8-2.6,5.2
						c0,1.4,1,2.6,2.9,3.7c2.1,1.2,4.6,1.9,7.3,1.9c2.7,0,5.5-0.7,8.5-2l3.7,2.1l4-2.3l-3.6-2.1c2.7-1.7,4.8-3.6,6.3-5.8l-6.4-3.7
						c-0.7,1.3-1.7,2.6-3,3.9c-1.2,1.3-2.5,2.3-3.9,3.1c-1.1,0.6-2,1-2.8,1.2c-0.8,0.1-1.5,0-2.1-0.3c-0.4-0.2-0.6-0.6-0.5-0.9
						c0.1-0.4,0.4-0.9,0.8-1.6c0.5-0.7,1.2-1.6,2.1-2.8c1-1.3,1.7-2.4,1.9-3.5c0.3-1,0.2-1.9-0.3-2.7c-0.5-0.8-1.4-1.6-2.8-2.4
						c-2.1-1.2-4.4-1.8-7-1.7c-2.6,0.1-5.3,0.8-8.3,2.3l-2.6-1.5L839.4,890.4z"/>
				</g>
			</g>
			<g>
				<g>
					<path class="st4" d="M812.5,881v12.6c0,14,20.4,25.3,45.6,25.3s45.6-11.3,45.6-25.3V881H812.5z"/>
					<path class="st5" d="M889,899.6v12.6c-4.3,2.2-9.3,3.9-14.8,5.1v-12.6C879.7,903.6,884.7,901.8,889,899.6z"/>
					<path class="st5" d="M865.7,899.3h1c0.7,0,1.4,0.7,1.4,1.6v17.5c-1.2,0.2-2.5,0.3-3.7,0.4v-17.9
						C864.3,900,865,899.3,865.7,899.3z"/>
					<path class="st5" d="M856.3,899.3h1c0.7,0,1.4,0.7,1.4,1.6V919c-0.2,0-0.3,0-0.5,0c-1.1,0-2.1,0-3.2-0.1v-18
						C854.9,900,855.5,899.3,856.3,899.3z"/>
					<path class="st5" d="M846.8,899.3h1c0.7,0,1.4,0.7,1.4,1.6v17.6c-1.3-0.1-2.5-0.3-3.7-0.5v-17.1
						C845.5,900,846.1,899.3,846.8,899.3z"/>
					<path class="st5" d="M837.4,899.3h1c0.7,0,1.4,0.7,1.4,1.6v16c-1.3-0.3-2.5-0.6-3.7-1v-14.9C836,900,836.6,899.3,837.4,899.3z"
						/>
					<path class="st5" d="M827.9,896.2h1c0.7,0,1.4,0.7,1.4,1.6v15.9c-1.3-0.6-2.5-1.1-3.7-1.8v-14.1
						C826.6,897,827.2,896.2,827.9,896.2z"/>
					<path class="st5" d="M818.5,887.7h1c0.7,0,1.4,0.7,1.4,1.6v18.9c-1.4-1.1-2.6-2.2-3.7-3.5v-15.4
						C817.2,888.5,817.8,887.7,818.5,887.7z"/>
					<path class="st5" d="M813.3,898.4c-0.5-1.5-0.8-3.1-0.8-4.7V881h0.8V898.4z"/>
					<path class="st5" d="M895.4,887h1c0.7,0,1.4,0.7,1.4,1.6v17.5c-1.1,1.1-2.3,2.1-3.7,3.1v-20.6C894.1,887.7,894.7,887,895.4,887
						z"/>
					<path class="st5" d="M903.7,893.7c0,1.8-0.4,3.6-1,5.4v-17.9c0,0,0-0.1,0-0.1h1V893.7z"/>
					<path class="st6" d="M903.7,881c0,14-20.4,25.3-45.6,25.3S812.5,895,812.5,881c0-14,20.4-25.3,45.6-25.3S903.7,867,903.7,881z"
						/>
					<path class="st4" d="M892,881c0,10.4-15.2,18.8-33.9,18.8c-18.7,0-33.9-8.4-33.9-18.8c0-10.4,15.2-18.8,33.9-18.8
						C876.8,862.2,892,870.6,892,881z"/>
					<path class="st5" d="M858.1,865.4c-17.7,0-32.3,7.6-33.7,17.2c-0.1-0.5-0.1-1.1-0.1-1.6c0-10.4,15.2-18.8,33.9-18.8
						c18.7,0,33.9,8.4,33.9,18.8c0,0.5-0.1,1.1-0.1,1.6C890.4,873,875.8,865.4,858.1,865.4z"/>
				</g>
				<g>
					<path class="st5" d="M839.4,875l2.6,1.5c-2.4,1.6-4.4,3.4-5.9,5.6l7.8,1.8c1.5-2.2,3.3-4,5.5-5.2c1-0.6,1.9-0.9,2.5-1
						c0.7-0.1,1.2,0,1.7,0.3c0.4,0.2,0.6,0.5,0.6,0.9c0,0.3-0.2,0.8-0.7,1.4c-0.4,0.6-1,1.5-1.9,2.5c-1.7,2.1-2.6,3.8-2.6,5.2
						c0,1.4,1,2.6,2.9,3.7c2.1,1.2,4.6,1.9,7.3,1.9c2.7,0,5.5-0.7,8.5-2l3.7,2.1l4-2.3l-3.6-2.1c2.7-1.7,4.8-3.6,6.3-5.8l-6.4-3.7
						c-0.7,1.3-1.7,2.6-3,3.9c-1.2,1.3-2.5,2.3-3.9,3.1c-1.1,0.6-2,1-2.8,1.2c-0.8,0.1-1.5,0-2.1-0.3c-0.4-0.2-0.6-0.6-0.5-0.9
						c0.1-0.4,0.4-0.9,0.8-1.6c0.5-0.7,1.2-1.6,2.1-2.8c1-1.3,1.7-2.4,1.9-3.5c0.3-1,0.2-1.9-0.3-2.7c-0.5-0.8-1.4-1.6-2.8-2.4
						c-2.1-1.2-4.4-1.8-7-1.7c-2.6,0.1-5.3,0.8-8.3,2.3l-2.6-1.5L839.4,875z"/>
				</g>
			</g>
			<g>
				<g>
					<path class="st4" d="M812.5,865.7v12.6c0,14,20.4,25.3,45.6,25.3s45.6-11.3,45.6-25.3v-12.6H812.5z"/>
					<path class="st5" d="M889,884.3v12.6c-4.3,2.2-9.3,3.9-14.8,5.1v-12.6C879.7,888.2,884.7,886.5,889,884.3z"/>
					<path class="st5" d="M865.7,883.9h1c0.7,0,1.4,0.7,1.4,1.6V903c-1.2,0.2-2.5,0.3-3.7,0.4v-17.9
						C864.3,884.6,865,883.9,865.7,883.9z"/>
					<path class="st5" d="M856.3,883.9h1c0.7,0,1.4,0.7,1.4,1.6v18.1c-0.2,0-0.3,0-0.5,0c-1.1,0-2.1,0-3.2-0.1v-18
						C854.9,884.6,855.5,883.9,856.3,883.9z"/>
					<path class="st5" d="M846.8,883.9h1c0.7,0,1.4,0.7,1.4,1.6v17.6c-1.3-0.1-2.5-0.3-3.7-0.5v-17.1
						C845.5,884.6,846.1,883.9,846.8,883.9z"/>
					<path class="st5" d="M837.4,883.9h1c0.7,0,1.4,0.7,1.4,1.6v16c-1.3-0.3-2.5-0.6-3.7-1v-14.9C836,884.6,836.6,883.9,837.4,883.9
						z"/>
					<path class="st5" d="M827.9,880.9h1c0.7,0,1.4,0.7,1.4,1.6v15.9c-1.3-0.6-2.5-1.1-3.7-1.8v-14.1
						C826.6,881.6,827.2,880.9,827.9,880.9z"/>
					<path class="st5" d="M818.5,872.4h1c0.7,0,1.4,0.7,1.4,1.6v18.9c-1.4-1.1-2.6-2.2-3.7-3.5V874
						C817.2,873.1,817.8,872.4,818.5,872.4z"/>
					<path class="st5" d="M813.3,883c-0.5-1.5-0.8-3.1-0.8-4.7v-12.6h0.8V883z"/>
					<path class="st5" d="M895.4,871.6h1c0.7,0,1.4,0.7,1.4,1.6v17.5c-1.1,1.1-2.3,2.1-3.7,3.1v-20.6
						C894.1,872.4,894.7,871.6,895.4,871.6z"/>
					<path class="st5" d="M903.7,878.3c0,1.8-0.4,3.6-1,5.4v-17.9c0,0,0-0.1,0-0.1h1V878.3z"/>
					<path class="st6" d="M903.7,865.7c0,14-20.4,25.3-45.6,25.3s-45.6-11.3-45.6-25.3c0-14,20.4-25.3,45.6-25.3
						S903.7,851.7,903.7,865.7z"/>
					<path class="st4" d="M892,865.7c0,10.4-15.2,18.8-33.9,18.8c-18.7,0-33.9-8.4-33.9-18.8c0-10.4,15.2-18.8,33.9-18.8
						C876.8,846.8,892,855.3,892,865.7z"/>
					<path class="st5" d="M858.1,850c-17.7,0-32.3,7.6-33.7,17.2c-0.1-0.5-0.1-1.1-0.1-1.6c0-10.4,15.2-18.8,33.9-18.8
						c18.7,0,33.9,8.4,33.9,18.8c0,0.5-0.1,1.1-0.1,1.6C890.4,857.6,875.8,850,858.1,850z"/>
				</g>
				<g>
					<path class="st5" d="M839.4,859.7l2.6,1.5c-2.4,1.6-4.4,3.4-5.9,5.6l7.8,1.8c1.5-2.2,3.3-4,5.5-5.2c1-0.6,1.9-0.9,2.5-1
						c0.7-0.1,1.2,0,1.7,0.3c0.4,0.2,0.6,0.5,0.6,0.9c0,0.3-0.2,0.8-0.7,1.4c-0.4,0.6-1,1.5-1.9,2.5c-1.7,2.1-2.6,3.8-2.6,5.2
						c0,1.4,1,2.6,2.9,3.7c2.1,1.2,4.6,1.9,7.3,1.9c2.7,0,5.5-0.7,8.5-2l3.7,2.1l4-2.3l-3.6-2.1c2.7-1.7,4.8-3.6,6.3-5.8l-6.4-3.7
						c-0.7,1.3-1.7,2.6-3,3.9c-1.2,1.3-2.5,2.3-3.9,3.1c-1.1,0.6-2,1-2.8,1.2c-0.8,0.1-1.5,0-2.1-0.3c-0.4-0.2-0.6-0.6-0.5-0.9
						c0.1-0.4,0.4-0.9,0.8-1.6c0.5-0.7,1.2-1.6,2.1-2.8c1-1.3,1.7-2.4,1.9-3.5c0.3-1,0.2-1.9-0.3-2.7c-0.5-0.8-1.4-1.6-2.8-2.4
						c-2.1-1.2-4.4-1.8-7-1.7c-2.6,0.1-5.3,0.8-8.3,2.3l-2.6-1.5L839.4,859.7z"/>
				</g>
			</g>
		</g>
	</g>
	<g>
		<g>
			<g>
				<path class="st7" d="M713.5,1072.6c-0.1-0.1-0.1-0.3-0.2-0.4c-10.3-17.7-0.7-34.6-0.7-34.6l17.9,6.3L1243,748.2
					c11.4-6.6,25.4-6.6,36.7,0l200,115.7l12.4-11.2c13.3,19.4,1.5,39.2,1.5,39.2l0,0c-1.5,3.2-3.9,6-7.3,8L969,1198.3
					c-13.1,7.6-29.3,7.6-42.4,0l-207.4-120c-2.5-1.4-4.4-3.4-5.6-5.6l0,0C713.5,1072.7,713.5,1072.6,713.5,1072.6z"/>
				<path class="st8" d="M719.2,1029.9L1243,727.8c11.4-6.6,25.4-6.6,36.7,0l206.6,119.5c12,6.9,12,24.3,0,31.2L969,1176.8
					c-13.1,7.6-29.3,7.6-42.4,0l-207.4-120C708.8,1050.8,708.8,1035.9,719.2,1029.9z"/>
			</g>
			<polygon class="st9" points="739.3,1025.8 977.5,1163.3 1476.1,875 1238.5,737.9 			"/>
			<path class="st10" d="M713.2,1063.4c0.1,0.1,0.1,0.3,0.2,0.4c0,0.1,0,0.1,0.1,0.1l0,0c1.3,2.2,3.2,4.2,5.6,5.6l207.4,120
				c13.1,7.6,29.3,7.6,42.4,0l517.3-298.4c3.4-2,5.8-4.8,7.3-8l0,0c0,0,3.5-6,4.6-14.5c1.5,13-4.6,23.3-4.6,23.3l0,0
				c-1.5,3.2-3.9,6-7.3,8L969,1198.3c-13.1,7.6-29.3,7.6-42.4,0l-207.4-120c-2.5-1.4-4.4-3.4-5.6-5.6l0,0c0,0,0-0.1-0.1-0.1
				c-0.1-0.1-0.1-0.3-0.2-0.4c-4.7-8-5.2-15.8-4.5-22C709.3,1054.3,710.6,1058.8,713.2,1063.4z"/>
			<g>
				<g>
					<path class="st11" d="M1426.1,924.3l-1.4-0.8l0,0c-0.4-0.3-1-0.3-1.5,0l-53,30.6c-1.4,0.8-2.3,2.3-2.3,3.9v1.8
						c0,0.6,0.3,1.2,0.8,1.5h0l0,0l0,0l1.4,0.8l0.1-0.5l-0.3-0.2c0.1,0,0.3-0.1,0.4-0.2l53.4-30.8c1-0.6,1.6-1.6,1.6-2.7v-3
						c0,0,0,0,0,0L1426.1,924.3z"/>
					<path class="st2" d="M1424.7,924.3l-53,30.6c-1.4,0.8-2.3,2.3-2.3,3.9v1.8c0,1.3,1.4,2.1,2.5,1.5l53.4-30.8
						c1-0.6,1.6-1.6,1.6-2.7v-3C1426.9,924.5,1425.6,923.8,1424.7,924.3z"/>
				</g>
			</g>
			<g>
				<path class="st12" d="M803.7,1114.9L803.7,1114.9l20.2,11.7c2,1.2,3.3,3.3,3.3,5.7v3l-27.8-16.1v-3.1
					C799.6,1112.7,803.7,1114.9,803.7,1114.9z"/>
				<path class="st13" d="M801.1,1114.2c-0.2,0.3-0.3,0.6-0.3,1.1v3.1l26.4,15.3v1.6l-27.8-16.1v-3.1
					C799.5,1114.7,800.2,1114.3,801.1,1114.2z"/>
				<g>
					<path class="st12" d="M846.1,1139.6c-1.4-0.8-2.6-0.2-2.6,1.5c0,1.7,1.2,3.7,2.6,4.5c1.4,0.8,2.6,0.2,2.6-1.5
						C848.7,1142.4,847.5,1140.4,846.1,1139.6z"/>
					<path class="st13" d="M844.8,1139.3c-0.1,0.3-0.2,0.6-0.2,1.1c0,1.7,1.2,3.7,2.6,4.5c0.5,0.3,0.9,0.3,1.3,0.3
						c-0.4,0.8-1.3,1-2.4,0.4c-1.4-0.8-2.6-2.8-2.6-4.5C843.5,1140,844,1139.4,844.8,1139.3z"/>
				</g>
				<g>
					<path class="st12" d="M854.9,1144.7c-1.4-0.8-2.6-0.2-2.6,1.5c0,1.7,1.2,3.7,2.6,4.5c1.4,0.8,2.6,0.2,2.6-1.5
						C857.5,1147.5,856.3,1145.5,854.9,1144.7z"/>
					<path class="st13" d="M853.6,1144.4c-0.1,0.3-0.2,0.6-0.2,1.1c0,1.7,1.2,3.7,2.6,4.5c0.5,0.3,0.9,0.3,1.3,0.3
						c-0.4,0.8-1.3,1-2.4,0.4c-1.4-0.8-2.6-2.8-2.6-4.5C852.3,1145.1,852.8,1144.5,853.6,1144.4z"/>
				</g>
				<g>
					<path class="st12" d="M863.7,1149.8c-1.4-0.8-2.6-0.2-2.6,1.5c0,1.7,1.2,3.7,2.6,4.5c1.4,0.8,2.6,0.2,2.6-1.5
						C866.3,1152.6,865.1,1150.6,863.7,1149.8z"/>
					<path class="st13" d="M862.4,1149.5c-0.1,0.3-0.2,0.6-0.2,1.1c0,1.7,1.2,3.7,2.6,4.5c0.5,0.3,0.9,0.3,1.3,0.3
						c-0.4,0.8-1.3,1-2.4,0.4c-1.4-0.8-2.6-2.8-2.6-4.5C861.1,1150.2,861.6,1149.6,862.4,1149.5z"/>
				</g>
				<g>
					<path class="st12" d="M872.5,1154.9c-1.4-0.8-2.6-0.2-2.6,1.5c0,1.7,1.2,3.7,2.6,4.5c1.4,0.8,2.6,0.2,2.6-1.5
						C875.1,1157.7,873.9,1155.7,872.5,1154.9z"/>
					<path class="st13" d="M871.2,1154.6c-0.1,0.3-0.2,0.6-0.2,1.1c0,1.7,1.2,3.7,2.6,4.5c0.5,0.3,0.9,0.3,1.3,0.3
						c-0.4,0.8-1.3,1-2.4,0.4c-1.4-0.8-2.6-2.8-2.6-4.5C869.9,1155.3,870.4,1154.7,871.2,1154.6z"/>
				</g>
				<g>
					<path class="st12" d="M881.3,1160c-1.4-0.8-2.6-0.2-2.6,1.5c0,1.7,1.2,3.7,2.6,4.5c1.4,0.8,2.6,0.2,2.6-1.5
						C883.9,1162.8,882.7,1160.8,881.3,1160z"/>
					<path class="st13" d="M880,1159.7c-0.1,0.3-0.2,0.6-0.2,1.1c0,1.7,1.2,3.7,2.6,4.5c0.5,0.3,0.9,0.3,1.3,0.3
						c-0.4,0.8-1.3,1-2.4,0.4c-1.4-0.8-2.6-2.8-2.6-4.5C878.7,1160.4,879.2,1159.8,880,1159.7z"/>
				</g>
				<g>
					<path class="st12" d="M890.1,1165.1c-1.4-0.8-2.6-0.2-2.6,1.5c0,1.7,1.2,3.7,2.6,4.5c1.4,0.8,2.6,0.2,2.6-1.5
						C892.7,1167.9,891.5,1165.9,890.1,1165.1z"/>
					<path class="st13" d="M888.8,1164.8c-0.1,0.3-0.2,0.6-0.2,1.1c0,1.7,1.2,3.7,2.6,4.5c0.5,0.3,0.9,0.3,1.3,0.3
						c-0.4,0.8-1.3,1-2.4,0.4c-1.4-0.8-2.6-2.8-2.6-4.5C887.5,1165.5,888,1164.8,888.8,1164.8z"/>
				</g>
				<g>
					<path class="st12" d="M898.9,1170.2c-1.4-0.8-2.6-0.2-2.6,1.5c0,1.7,1.2,3.7,2.6,4.5c1.4,0.8,2.6,0.2,2.6-1.5
						C901.5,1173,900.3,1171,898.9,1170.2z"/>
					<path class="st13" d="M897.6,1169.9c-0.1,0.3-0.2,0.6-0.2,1.1c0,1.7,1.2,3.7,2.6,4.5c0.5,0.3,0.9,0.3,1.3,0.3
						c-0.4,0.8-1.3,1-2.4,0.4c-1.4-0.8-2.6-2.8-2.6-4.5C896.3,1170.6,896.8,1169.9,897.6,1169.9z"/>
				</g>
			</g>
		</g>
	</g>
	<polygon class="st14" points="1304.8,821.2 1267.2,938.3 1200.6,899.9 1139,965.2 1171.8,846 1240.1,885.4 	"/>
	<g>
		<path class="st15" d="M422.9,1051.3c0,19.1,38.2,34.6,85.4,34.6c47.2,0,85.4-15.5,85.4-34.6c0-19.1-38.2-34.6-85.4-34.6
			C461.1,1016.7,422.9,1032.2,422.9,1051.3z"/>
		<g>
			<path class="st16" d="M443.3,869c-0.7-18.4,6.6-51.7,22.2-75.3l-14.2-13.5c0,0-21.7,36.6-22.7,89c-3.8,11-3.6,14.3-2.3,20.6
				c1.2,6.3,2.2,8.5,7.5,10.3c5.3,1.8,6.6-3.8,6.6-3.8c-1.2-10.2,0.7-16,0.7-16s2.4,0.9,3,5.7c0.6,4.8,3.4,3.3,3.4,3.3
				s1.5-1.3,0.3-7.1C446.3,876.3,443.3,869,443.3,869z"/>
			<path class="st17" d="M499.4,1051.7c-2.7-3.3-13.8-10.4-15.1-11.7c-1.2-1.3,0.3-6.6,0.3-6.6l-20.9-3.9
				c-4.3,10.5-3.9,20.7-3.9,20.7c11.9,6.7,31.5,13.9,36.5,13.6C501.3,1063.5,502.1,1055,499.4,1051.7z"/>
			<path class="st17" d="M559.1,1044.6c-3.3-2.7-15.5-7.6-17-8.7c-1.5-1.1-0.9-6.5-0.9-6.5l-21.3,0.1c-2.2,11.1,0.1,21.1,0.1,21.1
				c13,4.3,33.6,7.7,38.4,6.4C563.2,1055.9,562.4,1047.4,559.1,1044.6z"/>
			<path class="st18" d="M532.1,862.8c0,0,10.2,81.7,11.9,166.8c0,0-11.7,5.1-27.6,2.3c0,0-4.6-93.2-11.8-133.5l-5.1-25.1l-0.4-16.5
				l30.4-8.8L532.1,862.8z"/>
			<path class="st16" d="M598.7,840.5c-5.4-4.4-10.3-5.6-12.9-5.9c0,0,0,0,0,0c-0.6-0.4-0.1-0.6,0-0.6c2.7-0.4,6.7-0.5,6.7-0.5
				c3.9,0.4,1.6-2.3,1.6-2.3c-7.7-3-16.9,0.3-16.9,0.3s-28.6-13.9-40.6-46.3l-13.3,11.2c0,0,11.9,29.4,49.5,46.5
				c2.4,2.7,7.3,2.5,10.3,3.6c3.3,1.3,4.6,2,7.2,4c2.6,2,6.3,1.7,8.5-1.9C602,843.5,598.7,840.5,598.7,840.5z"/>
			<path class="st19" d="M543.8,790.2c-6.1-17.2-12.9-38.6-12.9-38.6l-5.2,18.7l3.9,31.9C536.7,799.2,541.4,793.6,543.8,790.2z"/>
			<path class="st20" d="M492.4,733.2c0,0-0.2,4.9-1.6,10.2l1.6,9.6l16.4,8.8h5.3l1.5-6.2c0,0-2-12.9-0.8-17.5L492.4,733.2z"/>
			<path class="st18" d="M470.3,853.9c0,0-0.1,87.6-0.7,98.4c-0.5,10.8-9.8,77.2-9.8,77.2s4.3,9.3,28.2,5.8l11.2-77.6l5.4-72.6
				l-0.8-18.7L470.3,853.9z"/>
			<path class="st19" d="M518.5,753.1l0.1-2l-3.8-2.4c-3.7,10.2-25.1-3.8-25.1-3.8l-0.4,0.9l-1.9-0.9l-3.9,6.6l6.7,77.2l7.6,34.4
				c0,0,10.6,2.4,24.1-3.6l3.9-107.9L518.5,753.1z"/>
			<path class="st21" d="M530.9,751.6l-16.3-5.2l0.3,4.7l1.7,19.1c0,0,1.3,48.2,0.2,101.1c-0.1,2.6,2.4,6.2,5,6.4
				c2.5,0.1,8.3-2.3,11.7-4.1c1.6-0.8,2.5-2.4,2.4-4.1C535.5,855.7,533.2,792.2,530.9,751.6z"/>
			<path class="st21" d="M490.8,743.4c-23.5,7.2-32.6,17.2-32.6,17.2c8.9,21.6,7.3,86.2,6.6,105.3c-0.1,3.6,2.2,6.7,5.6,7.7
				c7.7,2.3,20.6,4.9,26.5,5.8c2.2,0.3,4.4-1.4,4.4-3.6C499.5,780.4,490.8,743.4,490.8,743.4z"/>
			<path class="st16" d="M486.3,727.6c0,0,2.6,17.6,19.9,18.6c20,1.2,23.1-22.9,21.4-34.4c-1.6-10.7-14.3-24.1-28.8-16.9
				C488,700.4,483.6,711.5,486.3,727.6z"/>
			<path class="st19" d="M474.2,783c-0.3-10.4-2.5-31.8-15.9-22.5c0,0-11.6,18-19.7,36.3c3,4,10.5,11,21.8,13.7
				c3.1-6.8,4.5-11,8.2-17.2C471.1,789.1,474.2,785.9,474.2,783z"/>
			<path class="st22" d="M528.7,701.2c-3.6-6-10.1-10.4-17.1-11.4c-6.8-1-13.7,1-19,5.4c-10.4,8.7-13.1,25.5-6.7,37.4
				c0.9,1.7,2.1,3,3.4,4.4c0.3,0.3,2.3,1.9,2.3,2.3l3.2-5.5c-3.1-1-3.7-5.9-3.7-5.9c-1.2-7.9,4.7-6.3,4.7-6.3
				c-0.5,3.5,0.5,8.8,0.5,8.8c0.7,1,4.1,0.9,4.1,0.9c-1.3-6.8,2.1-14.6,2.1-14.6c17.3-2.6,25.3,1.2,25.5,1.3
				c0.4,0.2,1.6-1.5,1.8-1.7c2.8-4.3,1.6-10.3-0.8-14.6C528.9,701.5,528.8,701.3,528.7,701.2z"/>
			<path class="st22" d="M577.1,831.6c0,0-2.2-1.1-5.6-3.3c-5.6,3.3-6.8,7.9-7,10.6c2.6,1.5,5.3,2.9,8.3,4.2
				C571.9,835.9,577.1,831.6,577.1,831.6z"/>
			<g>
				<path class="st23" d="M478.4,714c0,0-0.5,7.9,14.7,12.1c6.9,2,14.3,3.1,21.5,3c3.6,0,7.2-0.3,10.7-0.8
					c4.9-0.7,10.9-1.8,13.8-6.2c1.4-2.2,0.8-4.7-0.7-6.6c-1.8-2.2-4.2-4.2-6.6-5.7c-2.5-1.5-19.5-7.5-33.7-5.5
					C484,706.4,478.6,708.8,478.4,714z"/>
				<path class="st24" d="M528.1,697.8c-6.4-9.6-21.1-11.8-31.2-7.9c-8,3.1-14.8,9.9-15.8,18.7c-0.1,1.2-0.4,2.8-0.1,4
					c0,0,4.7,15.4,41.3,11c0,0,8-1.1,11.1-4.6c0.6-0.7,0.8-1.6,0.6-2.4C533.3,711.7,531.1,702.4,528.1,697.8z"/>
				<path class="st25" d="M528.1,697.8c-6.4-9.6-21.1-11.8-31.2-7.9c-2.2,0.8-4.3,2-6.2,3.4c0.9-0.5,1.8-0.9,2.8-1.3
					c10.1-4.1,24.8-1.6,31.2,8.4c3,4.8,5.2,14.6,6,19.5c0.1,0.3,0,0.7,0,1c1-0.6,2-1.2,2.7-2c0.6-0.7,0.8-1.6,0.6-2.4
					C533.3,711.7,531.1,702.4,528.1,697.8z"/>
			</g>
			<path class="st26" d="M499.7,1061.6c-20.9-4-35.2-11.8-39.8-14.6c-0.1,1.9-0.1,3.1-0.1,3.1c11.9,6.7,31.5,13.9,36.5,13.6
				C497.8,1063.7,498.9,1062.9,499.7,1061.6z"/>
			<path class="st26" d="M561.3,1054.2c-22.7-0.1-37.3-5.1-41.9-6.9c0.3,2.1,0.6,3.4,0.6,3.4c13,4.3,33.6,7.7,38.4,6.4
				C559.8,1056.7,560.8,1055.6,561.3,1054.2z"/>
			<path class="st22" d="M429.1,857.6c-0.3,3.8-0.5,7.6-0.6,11.6c10.5-2.5,14.8-0.1,14.8-0.1c-0.1-3.3,0-7,0.4-11.1
				C438.5,856.9,432.9,857.2,429.1,857.6z"/>
		</g>
	</g>
	<g>
		<polygon class="st14" points="1010.8,1130.6 1044.5,1111.1 830.3,987.5 796.5,1007 		"/>
		<polygon class="st14" points="1078.6,1091.6 1112.3,1072 898.1,948.4 864.3,967.9 		"/>
		<polygon class="st14" points="916.8,937.6 1059.3,1019.7 1050.3,1024.9 907.8,942.8 		"/>
		<polygon class="st14" points="848.3,977.1 990.8,1059.2 981.8,1064.4 839.3,982.2 		"/>
		<g>
			<path class="st17" d="M897.5,962.4c-4.5,0-8.1,2.1-8.1,4.8c0,2.6,3.6,4.8,8.1,4.8c4.5,0,8.1-2.1,8.1-4.8
				C905.6,964.5,902,962.4,897.5,962.4z"/>
			<path class="st17" d="M913.4,971.5c-4.5,0-8.1,2.1-8.1,4.8c0,2.6,3.6,4.8,8.1,4.8c4.5,0,8.1-2.1,8.1-4.8
				C921.5,973.7,917.9,971.5,913.4,971.5z"/>
			<path class="st17" d="M929.3,980.7c-4.5,0-8.1,2.1-8.1,4.8c0,2.6,3.6,4.8,8.1,4.8c4.5,0,8.1-2.1,8.1-4.8
				C937.4,982.8,933.8,980.7,929.3,980.7z"/>
			<path class="st17" d="M945.2,989.9c-4.5,0-8.1,2.1-8.1,4.8c0,2.6,3.6,4.8,8.1,4.8c4.5,0,8.1-2.1,8.1-4.8
				C953.3,992,949.7,989.9,945.2,989.9z"/>
			<path class="st17" d="M961.2,999c-4.5,0-8.1,2.1-8.1,4.8c0,2.6,3.6,4.8,8.1,4.8c4.5,0,8.1-2.1,8.1-4.8
				C969.3,1001.2,965.6,999,961.2,999z"/>
			<path class="st17" d="M977.1,1008.2c-4.5,0-8.1,2.1-8.1,4.8c0,2.6,3.6,4.8,8.1,4.8c4.5,0,8.1-2.1,8.1-4.8
				C985.2,1010.3,981.5,1008.2,977.1,1008.2z"/>
			<path class="st17" d="M993,1017.3c-4.5,0-8.1,2.1-8.1,4.8c0,2.6,3.6,4.8,8.1,4.8c4.5,0,8.1-2.1,8.1-4.8
				C1001.1,1019.5,997.5,1017.3,993,1017.3z"/>
			<path class="st17" d="M1008.9,1026.5c-4.5,0-8.1,2.1-8.1,4.8c0,2.6,3.6,4.8,8.1,4.8c4.5,0,8.1-2.1,8.1-4.8
				C1017,1028.6,1013.4,1026.5,1008.9,1026.5z"/>
		</g>
		<g>
			<path class="st17" d="M830.5,1001.4c-4.5,0-8.1,2.1-8.1,4.8c0,2.6,3.6,4.8,8.1,4.8c4.5,0,8.1-2.1,8.1-4.8
				C838.6,1003.6,835,1001.4,830.5,1001.4z"/>
			<path class="st17" d="M846.4,1010.6c-4.5,0-8.1,2.1-8.1,4.8c0,2.6,3.6,4.8,8.1,4.8c4.5,0,8.1-2.1,8.1-4.8
				C854.5,1012.7,850.9,1010.6,846.4,1010.6z"/>
			<path class="st17" d="M862.3,1019.8c-4.5,0-8.1,2.1-8.1,4.8c0,2.6,3.6,4.8,8.1,4.8c4.5,0,8.1-2.1,8.1-4.8
				C870.4,1021.9,866.8,1019.8,862.3,1019.8z"/>
			<path class="st17" d="M878.3,1028.9c-4.5,0-8.1,2.1-8.1,4.8c0,2.6,3.6,4.8,8.1,4.8c4.5,0,8.1-2.1,8.1-4.8
				C886.4,1031.1,882.7,1028.9,878.3,1028.9z"/>
			<path class="st17" d="M894.2,1038.1c-4.5,0-8.1,2.1-8.1,4.8c0,2.6,3.6,4.8,8.1,4.8c4.5,0,8.1-2.1,8.1-4.8
				C902.3,1040.2,898.6,1038.1,894.2,1038.1z"/>
			<path class="st17" d="M910.1,1047.2c-4.5,0-8.1,2.1-8.1,4.8c0,2.6,3.6,4.8,8.1,4.8c4.5,0,8.1-2.1,8.1-4.8
				C918.2,1049.4,914.6,1047.2,910.1,1047.2z"/>
		</g>
	</g>
	<g>
		<g>
			<g>
				<polygon class="st27" points="1060.9,614 963.7,557.9 710.4,704.4 807.5,760.3 				"/>
				<polygon class="st10" points="807.5,775.5 807.5,760.3 710.4,704.4 710.4,719.6 				"/>
				<path class="st10" d="M705.9,649.5l89.3,94.7c1,1.1,2.4,1.7,3.9,1.7c0.9,0,1.8-0.2,2.7-0.7L1058.2,597c1.4-0.8,2.4-2.2,2.6-3.8
					c0.2-1.6-0.2-3.2-1.3-4.4l-87.2-94.9c-1-1.1-2.5-1.7-3.9-1.7c-0.9,0-1.8,0.2-2.6,0.7L707.2,641.2c-1.4,0.8-2.4,2.2-2.6,3.8
					C704.3,646.6,704.8,648.3,705.9,649.5z M968.4,497.5l87.2,94.9L799.1,740.5l-89.3-94.7L968.4,497.5z"/>
				<polygon class="st7" points="807.5,760.3 807.5,775.5 1060.9,629.2 1060.9,614 				"/>
				<polygon class="st28" points="799.1,735.6 709.8,640.9 968.4,492.6 1055.6,587.5 				"/>
				<path class="st27" d="M705.9,644.5l89.3,94.7c1,1.1,2.4,1.7,3.9,1.7c0.9,0,1.8-0.2,2.7-0.7l256.5-148.1c1.4-0.8,2.4-2.2,2.6-3.8
					c0.2-1.6-0.2-3.2-1.3-4.4L972.3,489c-1-1.1-2.5-1.7-3.9-1.7c-0.9,0-1.8,0.2-2.6,0.7L707.2,636.2c-1.4,0.8-2.4,2.2-2.6,3.8
					C704.3,641.7,704.8,643.3,705.9,644.5z M968.4,492.6l87.2,94.9L799.1,735.6l-89.3-94.7L968.4,492.6z"/>
				<polygon class="st27" points="938.5,508.1 940.9,506.6 1030.3,603.9 1027.9,605.3 				"/>
				<polygon class="st27" points="908.3,524.9 910.7,523.5 1000.1,620.7 997.7,622.2 				"/>
				<polygon class="st27" points="878.1,541.8 880.5,540.3 969.9,637.6 967.5,639 				"/>
				<polygon class="st27" points="848.6,559.2 851,557.8 940.3,655 937.9,656.4 				"/>
				<polygon class="st27" points="818.8,576.4 821.2,574.9 910.6,672.2 908.2,673.6 				"/>
				<polygon class="st27" points="790.9,593.6 793.3,592.1 882.7,689.4 880.3,690.8 				"/>
				<polygon class="st27" points="761.6,609.2 764,607.8 853.3,705 850.9,706.4 				"/>
				<polygon class="st27" points="734.4,624.8 736.8,623.4 826.2,720.6 823.8,722.1 				"/>
				<polygon class="st29" points="994,517.2 994.7,518.4 733.3,669.3 732.6,668.1 				"/>
				
					<rect x="718.1" y="599" transform="matrix(0.8656 -0.5007 0.5007 0.8656 -183.4856 515.7422)" class="st29" width="301.8" height="1.3"/>
				<polygon class="st29" points="1027.6,553.2 1028.3,554.3 766.9,705.2 766.2,704.1 				"/>
				<polygon class="st29" points="1032.3,558.8 1033,559.9 771.6,710.9 770.9,709.7 				"/>
			</g>
		</g>
		<g>
			<g>
				<polygon class="st27" points="1224.1,708.4 1126.9,652.3 873.7,798.7 970.7,854.7 				"/>
				<polygon class="st10" points="970.7,869.9 970.7,854.7 873.7,798.7 873.7,813.9 				"/>
				<path class="st10" d="M869.2,743.8l89.3,94.7c1,1.1,2.4,1.7,3.9,1.7c0.9,0,1.8-0.2,2.7-0.7l256.5-148.1c1.4-0.8,2.4-2.2,2.6-3.8
					c0.2-1.6-0.2-3.2-1.3-4.4l-87.2-94.9c-1-1.1-2.5-1.7-3.9-1.7c-0.9,0-1.8,0.2-2.6,0.7L870.4,735.5c-1.4,0.8-2.4,2.2-2.6,3.8
					C867.5,741,868,742.6,869.2,743.8z M1131.6,591.8l87.2,94.9L962.3,834.8L873,740.1L1131.6,591.8z"/>
				<polygon class="st7" points="970.7,854.7 970.7,869.9 1224.1,723.5 1224.1,708.4 				"/>
				<polygon class="st28" points="962.3,829.9 873,735.2 1131.6,586.9 1218.8,681.8 				"/>
				<path class="st27" d="M869.2,738.9l89.3,94.7c1,1.1,2.4,1.7,3.9,1.7c0.9,0,1.8-0.2,2.7-0.7l256.5-148.1c1.4-0.8,2.4-2.2,2.6-3.8
					c0.2-1.6-0.2-3.2-1.3-4.4l-87.2-94.9c-1-1.1-2.5-1.7-3.9-1.7c-0.9,0-1.8,0.2-2.6,0.7L870.4,730.6c-1.4,0.8-2.4,2.2-2.6,3.8
					C867.5,736,868,737.7,869.2,738.9z M1131.6,586.9l87.2,94.9L962.3,829.9L873,735.2L1131.6,586.9z"/>
				<polygon class="st27" points="1101.7,602.4 1104.1,601 1193.5,698.2 1191.1,699.7 				"/>
				<polygon class="st27" points="1071.5,619.3 1073.9,617.8 1163.3,715.1 1160.9,716.5 				"/>
				<polygon class="st27" points="1041.3,636.1 1043.7,634.7 1133.1,731.9 1130.7,733.4 				"/>
				<polygon class="st27" points="1011.8,653.6 1014.2,652.1 1103.6,749.4 1101.2,750.8 				"/>
				<polygon class="st27" points="982,670.7 984.5,669.3 1073.8,766.5 1071.4,768 				"/>
				<polygon class="st27" points="954.2,687.9 956.6,686.5 1045.9,783.7 1043.5,785.1 				"/>
				<polygon class="st27" points="924.8,703.6 927.2,702.1 1016.6,799.4 1014.1,800.8 				"/>
				<polygon class="st27" points="897.6,719.2 900,717.7 989.4,815 987,816.4 				"/>
				<polygon class="st29" points="1157.2,611.6 1157.9,612.7 896.5,763.6 895.8,762.5 				"/>
				
					<rect x="881.4" y="693.4" transform="matrix(0.8656 -0.5008 0.5008 0.8656 -208.7987 610.2325)" class="st29" width="301.8" height="1.3"/>
				<polygon class="st29" points="1190.8,647.5 1191.5,648.7 930.1,799.6 929.4,798.4 				"/>
				<polygon class="st29" points="1195.5,653.1 1196.2,654.3 934.8,805.2 934.1,804.1 				"/>
			</g>
		</g>
	</g>
	<g>
		<path class="st30" d="M752.4,1137c0,18.1-36.2,32.8-80.9,32.8c-44.7,0-80.9-14.7-80.9-32.8c0-18.1,36.2-32.8,80.9-32.8
			C716.1,1104.2,752.4,1118.9,752.4,1137z"/>
		<g>
			<path class="st31" d="M628.9,1124.3c2.3,0.7,4.5,1.7,6.5,3c4.6,2.9,7.4,0,7.4,0l15.9,1c1.9,2.3,1.2,19.5,1.2,19.5
				c-4.1,2-9.4,1.9-13.8,1.5c-10.2-0.9-19.4-6.1-27.1-12.9c-0.5-0.5-1-1-1.5-1.5C618.6,1122.7,626.8,1123.9,628.9,1124.3z"/>
			<path class="st32" d="M617.9,1132.5c8,7.2,17.7,12.5,28.4,13.5c4.3,0.4,9.4,0.5,13.5-1.2c0,1.8-0.1,3-0.1,3
				c-4.1,2-9.4,1.9-13.8,1.5c-10.2-0.9-19.4-6.1-27.1-12.9c-0.5-0.5-1-1-1.5-1.5c0.1-0.9,0.2-1.7,0.4-2.5
				C617.8,1132.4,617.9,1132.4,617.9,1132.5z"/>
			<path class="st31" d="M688.6,1126.2c2.3,0.5,4.6,1.3,6.7,2.4c4.8,2.5,7.4-0.7,7.4-0.7l15.9-0.4c2.1,2.1,2.9,19.4,2.9,19.4
				c-3.9,2.3-9.2,2.7-13.6,2.7c-10.2,0-19.9-4.3-28.1-10.4c-0.6-0.4-1.1-0.9-1.6-1.4C678.3,1125.5,686.6,1125.9,688.6,1126.2z"/>
			<path class="st32" d="M678.5,1135.3c8.6,6.4,18.8,10.9,29.5,10.9c4.3,0,9.4-0.4,13.4-2.4c0.1,1.8,0.2,3,0.2,3
				c-3.9,2.3-9.2,2.7-13.6,2.7c-10.2,0-19.9-4.3-28.1-10.4c-0.6-0.4-1.1-0.9-1.6-1.4c0-0.9,0.1-1.8,0.2-2.5
				C678.4,1135.2,678.4,1135.2,678.5,1135.3z"/>
			<path class="st33" d="M580.3,877.3l-5.7,16.1c-13.1,0.3-16.4-1.2-22.7-4.8c-6.2-3.6-8.2-5.4-8.1-11.8c0.1-6.4,6.5-5.8,6.5-5.8
				c10.3,4.9,17.2,4.9,17.2,4.9s-0.1-2.9-4.9-5.3c-4.8-2.4-2.2-4.9-2.2-4.9s2-1.2,7.6,2.2C573.7,871.4,580.2,877.3,580.3,877.3z"/>
			<polygon class="st34" points="723.3,845.7 715.9,807.8 702.1,825.1 709.3,849.7 			"/>
			<path class="st34" d="M723.7,838.4c0,0,28.3,11-2.6,52.4L723.7,838.4z"/>
			<path class="st35" d="M659.2,962.3l-29.9,74l6.4,91.7c0,0,14,8.1,26.1,2.1l-4-88.9l43.1-67.8L659.2,962.3z"/>
			<path class="st35" d="M692.6,971.3l-1.8,72.9l4.3,85.5c0,0,17.2,4.2,26.7-1l-2.3-86l5.3-78.2L692.6,971.3z"/>
			<path class="st36" d="M651,964.2c-0.1-5,4.3-47.3,4.3-47.3c0.7-33.3,3.9-73.9,3.9-73.9l24.7-6.3l24.8-2.9l10.6,3.1
				c4.6,0.5,8.3,3.9,9,8.3c0.9,6.3,1.3,12.6,1.1,18.9c-0.2,6.8-2.5,13.7-3.4,20.5c-3.7,26.4,0.5,52.2,2.4,78.5c0,0,0.1,2-2.5,3.9
				c-20.3,16.2-71.5,5.9-71.5,5.9C649.8,972.3,651,968.1,651,964.2z"/>
			<path class="st33" d="M709,781.3c-6.1-1.2-14.5-1.8-20.6-0.4c-10.2,2.4-15.9,8.2-18.8,17.2c-2.9,9-4.4,24.3,0.7,33
				c3.2,5.5,10.9,4.8,16.4,3.7c6.7-1.4,15.5-3.7,21.1-7.4c7.8-5.1,12.4-16.8,13.3-25.4C721.8,794.6,718.3,783.2,709,781.3z"/>
			<path class="st37" d="M709.2,823.7c-0.8,0.9-1.7,1.7-2.6,2.4c-5.4,4.2-13.8,6.9-20.2,8.5c-1,0.3-2.1,0.5-3.3,0.6l0.7,1.5
				c6.6,2.4,12.8,4.5,17.5,3.3c3.5-0.9,7.2-2.4,7.4-6.5L709.2,823.7L709.2,823.7z"/>
			<path class="st34" d="M579.5,874.9l44.7,15l35-46.8c22.7,10,0,41.5,0,41.5l-23.8,28.2c-2.4,2.9-6.5,3.9-10,2.5L572.5,894
				C569.6,884.1,579.5,874.9,579.5,874.9z"/>
			<path class="st38" d="M667.8,774.1c0,0,0.4,2.4,1.7,5.2c0.8-0.4,1.7-0.8,2.8-1.1c5.6-1.8,11.4-3.2,17.3-3.2
				c7.1,0,16.5,1.3,22.4,5.1c7.5,4.8,11,14.2,10,23.3c-0.9,8.6-6.5,19-14.3,24.1c-4.3,2.8-4.5,3.1-10.2,4.6
				c-29.6-4.8-12.6-30.5-12.6-30.5c-2.6-1.6-7.6-3.8-15.4-3.4C669.6,798.1,654.6,790.2,667.8,774.1z"/>
		</g>
	</g>
</g>
</svg>
