<?xml version="1.0" encoding="UTF-8"?><svg id="_ëîé_1" xmlns="http://www.w3.org/2000/svg" viewBox="0 0 2628.58 1646.12"><defs><style>.cls-1{fill:#adc8fe;}.cls-2,.cls-3{fill:#fff;}.cls-4{fill:#fafafa;}.cls-5{stroke-miterlimit:10;stroke-width:1px;}.cls-5,.cls-6,.cls-3,.cls-7,.cls-8,.cls-9{stroke-linecap:round;}.cls-5,.cls-6,.cls-7{fill:none;stroke:#000;}.cls-6,.cls-10{stroke-miterlimit:10;}.cls-11{fill:#f99746;}.cls-12,.cls-8{fill:#f4daa0;}.cls-10{fill:#ddd;stroke:#acacac;}.cls-3,.cls-8,.cls-9{stroke:#263238;stroke-linejoin:round;}.cls-13{isolation:isolate;opacity:.4;}.cls-13,.cls-14{fill:#ebebeb;}.cls-7{stroke-miterlimit:10;stroke-width:1px;}.cls-15{fill:#ffa05e;}.cls-9{fill:#263238;}.cls-16{fill:#ffae73;}.cls-17{fill:#283237;}.cls-18{fill:#ebf3fa;}</style></defs><path class="cls-12" d="M212.05,1639.35S-116.29,1197.45,44.17,742.52c104.6-296.53,496.95-459.02,718.38-296.53,94.31,69.2,358.23-22.93,558.42-284.18,332.01-433.27,1370.89,48.13,1050.46,914.5-146.41,395.86,103.98,345.17,41.2,569.81l-2200.58-6.77h0Z"/><g><path class="cls-14" d="M1693.39,1155.26c-1.15-.16-2.28-.45-3.36-.85-21.94-7.26-55.26-41.54-83.66-88.09-28.4-46.55-43.4-92.09-39.72-115h0c.42-3.91,1.96-7.62,4.43-10.68,.1-.18,.23-.34,.37-.48,.76-.92,1.69-1.7,2.72-2.3,1.1-.65,2.29-1.16,3.52-1.49,3.84-.79,7.82-.46,11.48,.96,4.74,1.57,9.25,3.78,13.4,6.57,3.1,2.03,6.35,4.43,9.72,7.15,1.87,1.55,3.84,3.2,5.82,4.96,42.6,41.74,74.07,93.48,91.56,150.5,.64,2.56,1.23,5.34,1.76,7.63,.95,4.26,1.61,8.57,1.98,12.92,.52,4.88,.34,9.8-.53,14.63-.54,4.05-2.42,7.81-5.34,10.68-.6,.71-1.32,1.31-2.14,1.76-.73,.46-1.52,.8-2.35,1.01-3.15,.95-6.5,.99-9.66,.11Z"/><path class="cls-14" d="M1693.39,1155.26l-1.82-2.94-61.34-100.96c-1.6-2.72-3.26-5.34-4.75-7.9l-57.28-94.23h0c.38-2.99,1.36-5.88,2.88-8.49,.53-.93,1.18-1.79,1.92-2.56l6.25-3.79,18.74-11.37,8.54,13.88,1.49,2.51,5.82,9.66,4.27,7.05,91.56,150.5,3.31,5.34,6.41,10.68,1.49,2.46,8.54,13.93-21.73,13.19-4.48,2.78c-3.18,1.03-6.59,1.13-9.82,.27Z"/><path class="cls-14" d="M1598.04,922.92c-18.47,11.26-4.11,68.76,32.03,128.45,36.14,59.69,80.67,98.98,99.14,87.77,18.47-11.21,4.11-68.76-32.03-128.45-36.14-59.69-80.67-98.98-99.14-87.77Z"/><path class="cls-4" d="M1598.04,922.92c-18.47,11.26-4.11,68.76,32.03,128.45,36.14,59.69,80.67,98.98,99.14,87.77,18.47-11.21,4.11-68.76-32.03-128.45-36.14-59.69-80.67-98.98-99.14-87.77Z"/><path class="cls-14" d="M1607.71,935.89c-1.18,.68-2.1,1.73-2.62,2.99,15.38,0,47.62,34.17,76.29,81.36,28.67,47.19,44.2,91.72,37.05,105.28,1.35,.06,2.68-.27,3.84-.96,12.55-7.58-2.72-56.11-34.38-108.22-31.66-52.11-67.7-88.09-80.19-80.45Z"/><path class="cls-13" d="M1607.71,935.89c-1.18,.68-2.1,1.73-2.62,2.99,15.38,0,47.62,34.17,76.29,81.36,28.67,47.19,44.2,91.72,37.05,105.28,1.35,.06,2.68-.27,3.84-.96,12.55-7.58-2.72-56.11-34.38-108.22-31.66-52.11-67.7-88.09-80.19-80.45Z"/></g><g><path class="cls-14" d="M1477.41,813.11c-.26,.75-.58,1.49-.96,2.19-7.53,13.93-34.7,32.41-69.4,46.02-34.7,13.61-67.48,18.37-82.54,13.13h0c-2.56-.77-4.86-2.25-6.62-4.27-.12-.08-.21-.19-.27-.32-.53-.64-.95-1.36-1.23-2.14-.3-.83-.49-1.69-.59-2.56-.06-2.69,.65-5.33,2.03-7.63,1.61-3.03,3.64-5.82,6.03-8.28,1.9-2.02,3.91-3.93,6.03-5.71,1.23-1.07,2.62-2.19,4.06-3.31,16.45-12.14,34.5-21.94,53.65-29.1,18.87-7.69,38.73-12.67,58.99-14.79l5.34-.32c2.99-.19,5.98-.19,8.97,0,3.36,.23,6.67,.95,9.82,2.14,2.65,.82,4.96,2.49,6.57,4.75,.4,.49,.71,1.05,.91,1.65,.21,.55,.33,1.12,.37,1.71,.33,2.34-.08,4.73-1.17,6.83Z"/><path class="cls-14" d="M1477.41,813.11l-2.19,.91-75.6,29.42-5.93,2.24-70.58,27.49h0c-1.95-.62-3.77-1.62-5.34-2.94-.55-.48-1.05-1.02-1.49-1.6l-1.82-4.7-5.34-14.04,10.41-4.11,1.87-.69,7.26-2.78,5.34-2.03,112.59-43.94,4.16-1.6,7.95-3.1,1.82-.69,10.68-4.11,6.19,16.23,1.28,3.36c.27,2.3-.18,4.63-1.28,6.67Z"/><path class="cls-14" d="M1309.08,849.73c5.34,13.83,46.02,10.68,90.76-6.41,44.74-17.08,76.56-42.71,71.17-56.59-5.39-13.88-45.97-11-90.76,6.41s-76.56,42.82-71.17,56.59Z"/><path class="cls-4" d="M1309.08,849.73c5.34,13.83,46.02,10.68,90.76-6.41,44.74-17.08,76.56-42.71,71.17-56.59-5.39-13.88-45.97-11-90.76,6.41s-76.56,42.82-71.17,56.59Z"/><path class="cls-14" d="M1319.01,844.87c.34,.86,.93,1.58,1.71,2.08,1.87-10.36,28.78-28.14,64.06-41.86,35.29-13.72,67.32-18.95,75.6-12.49,.29-.88,.29-1.84,0-2.72-3.63-9.4-38.28-4.86-77.3,10.36-39.03,15.22-67.7,35.24-64.06,44.63Z"/><path class="cls-13" d="M1319.01,844.87c.34,.86,.93,1.58,1.71,2.08,1.87-10.36,28.78-28.14,64.06-41.86,35.29-13.72,67.32-18.95,75.6-12.49,.29-.88,.29-1.84,0-2.72-3.63-9.4-38.28-4.86-77.3,10.36-39.03,15.22-67.7,35.24-64.06,44.63Z"/><path class="cls-4" d="M1320.71,846.95c8.38,6.46,40.25,1.33,75.65-12.44,35.4-13.77,62.36-31.55,64.06-41.91-8.27-6.46-40.09-1.33-75.6,12.49-35.5,13.83-62.25,31.5-64.12,41.86Z"/></g><g><path class="cls-14" d="M793.02,1506.03c-34.93-59.02-15.4-135.18,43.61-170.11,59.02-34.93,135.18-15.4,170.11,43.61,34.91,58.99,15.43,135.1-43.53,170.06-59.03,34.97-135.23,15.46-170.2-43.56Z"/><path class="cls-14" d="M780.2,1513.66c-34.97-59-15.48-135.17,43.51-170.14,59-34.97,135.17-15.48,170.14,43.51,34.97,59,15.49,135.17-43.51,170.14-59,34.94-135.16,15.47-170.15-43.51Z"/><path class="cls-4" d="M780.2,1513.66c-34.97-59-15.48-135.17,43.51-170.14,59-34.97,135.17-15.48,170.14,43.51,34.97,59,15.49,135.17-43.51,170.14-59,34.94-135.16,15.47-170.15-43.51Z"/><path class="cls-14" d="M934.38,1530.32c-2.96,1.79-6.05,3.36-9.24,4.7-46.64,20.51-101.08-.67-121.59-47.3-20.51-46.64,.67-101.08,47.3-121.59,46.64-20.51,101.07,.67,121.59,47.3,18.9,42.97,2.52,93.29-38.07,116.89Z"/><path class="cls-4" d="M841.86,1454.13c-13.56-16.02-8.44-34.86,12.33-49.7l-8.27-14.84,13.29-7.85,8.27,14.84c11.95-5.92,25.11-8.99,38.44-8.97l3.74,20.07c-11.14-.44-22.22,1.75-32.35,6.41l12.71,22.8c15.22-3.95,32.57-7.58,44.9,6.83,13.56,16.02,8.27,35.13-13.08,49.97l8.27,14.84-13.29,7.85-8.38-14.95c-9.47,4.58-19.77,7.19-30.27,7.69l-4.59-19.54c8.67,.04,17.24-1.78,25.15-5.34l-13.29-23.7c-15,3.79-31.82,7.26-43.56-6.41Zm59.05,2.03l10.68,19.43c6.41-5.82,7.53-12.01,3.79-16.6-2.99-3.74-8.17-3.9-14.47-2.83Zm-40.15-17.88c2.94,3.47,7.85,3.79,13.83,2.56l-10.68-18.42c-5.77,5.55-7.05,11.32-3.15,15.86Z"/></g><g><path class="cls-14" d="M1553.25,1278.29c21.35,43.24-4.43,99.35-57.28,125.35-52.85,26-112.97,12.01-134.27-31.28s4.43-99.35,57.28-125.35c52.85-26,112.91-11.96,134.27,31.28Z"/><path class="cls-14" d="M1544.76,1261.04c21.35,43.3-4.38,99.41-57.28,125.41-52.91,26-112.97,11.96-134.22-31.28-21.25-43.24,4.38-99.41,57.28-125.35,52.91-25.95,112.97-12.01,134.22,31.23Z"/><path class="cls-4" d="M1544.76,1261.04c21.35,43.3-4.38,99.41-57.28,125.41-52.91,26-112.97,11.96-134.22-31.28-21.25-43.24,4.38-99.41,57.28-125.35,52.91-25.95,112.97-12.01,134.22,31.23Z"/><path class="cls-14" d="M1520.09,1271.45c1.01,2.08,1.87,4.22,2.67,6.19v.48c10.41,31.5-8.92,69.4-45.75,87.29s-78.53,10.68-97.16-17.08c0,0,0-.37-.27-.48-1.07-1.82-2.24-3.79-3.26-5.87-16.02-32.35,3.36-74.74,43.03-94.01s84.83-8.86,100.74,23.49Z"/><path class="cls-4" d="M1476.9,1337.44c-6.25,16.02-22.16,21.35-41.16,13.61l-7.58,12.17-10.94-5.34,7.53-12.23c-8.97-5.41-16.41-13.02-21.62-22.1l13.13-11.37c4.09,7.76,10.1,14.34,17.46,19.11l11.64-18.74c-8.86-8.54-18.37-18.69-12.71-33.42,6.25-16.02,22.42-21.35,41.7-13.24l7.58-12.17,10.94,5.34-7.58,12.33c7.05,4.32,13.04,10.18,17.51,17.14l-12.49,11.69c-3.45-5.88-8.22-10.87-13.93-14.57l-12.12,19.54c8.92,8.38,18.04,18.26,12.65,32.25Zm-21.73-40.89l9.93-16.02c-6.78-1.82-11.75,0-13.67,4.75s.37,7.42,3.74,11.26Zm2.72,35.13c1.07-3.95-.34-8.17-3.58-10.68l-9.34,15.16c6.41,1.82,11.16,.11,12.92-4.48Z"/></g><g><path class="cls-14" d="M1086.46,670.07c-20.61,53.39-97.7,66.68-169.08,22-71.38-44.69-93.37-120.39-54.99-162.19,33.15-36.25,101.12-34.54,155.68-.37,54.56,34.17,86.17,94.71,68.39,140.57Z"/><path class="cls-14" d="M1093.83,651.07c-19.38,50.02-93.43,61.61-162.46,18.42-69.03-43.19-91.35-115.1-55.2-154.82,31.34-34.33,96.95-32.03,150.18,1.39s84.3,91.61,67.48,135.02Z"/><path class="cls-4" d="M1093.83,651.07c-19.38,50.02-93.43,61.61-162.46,18.42-69.03-43.19-91.35-115.1-55.2-154.82,31.34-34.33,96.95-32.03,150.18,1.39s84.3,91.61,67.48,135.02Z"/><path class="cls-14" d="M1067.24,632.54c-.96,2.1-2.03,4.15-3.2,6.14v.48c-19.54,29.9-70.26,33.63-116.49,4.75-46.23-28.88-65.45-76.45-47.35-107.31,0,0,.43,0,.32-.43,1.27-1.85,2.64-3.64,4.11-5.34,22.32-26.69,72.23-25.95,113.23,0,41,25.95,63.48,69.67,49.38,101.7Z"/><path class="cls-4" d="M1019.57,593.3c9.4,14.63,4,30.38-13.29,41.27l5.34,13.29-10.94,5.34-5.34-13.29c-9.67,4.06-20.21,5.6-30.64,4.48l-1.44-17.4c8.67,1.31,17.54,.35,25.73-2.78l-8.22-20.45c-12.17,2.14-25.95,3.79-34.54-9.5-9.4-14.57-3.84-30.54,13.93-41.43l-5.34-13.29,10.94-5.34,5.34,13.4c7.67-3.11,15.92-4.49,24.18-4.06l2.08,17.03c-6.77-.7-13.62,.22-19.97,2.67l8.6,21.35c12.23-2.24,25.41-3.9,33.58,8.7Zm-45.91-6.57l-6.99-17.4c-5.34,4.38-6.78,9.61-4.16,13.83,2.19,3.42,6.19,3.95,11.16,3.58Zm29.9,18.53c-2.03-3.2-5.82-3.9-10.68-3.36l6.73,16.55c5.34-4.06,6.73-9.02,3.95-13.19Z"/></g><g><rect class="cls-6" x="1727.64" y="434.02" width="45.02" height="1208.87"/><rect class="cls-6" x="1452.46" y="466.93" width="589.17" height="29.72"/><g><rect class="cls-6" x="1474.68" y="401.12" width="9.71" height="65.81"/><g><g><path class="cls-6" d="M1453.27,414.55c0-3.33,11.92-6.03,26.62-6.03s26.62,2.7,26.62,6.03-11.92,6.03-26.62,6.03-26.62-2.7-26.62-6.03Z"/><path class="cls-6" d="M1453.27,402.49c0-3.33,11.92-6.03,26.62-6.03s26.62,2.7,26.62,6.03-11.92,6.03-26.62,6.03-26.62-2.7-26.62-6.03Z"/><ellipse class="cls-6" cx="1479.89" cy="390.43" rx="26.62" ry="6.03"/><path class="cls-6" d="M1453.27,378.36c0-3.33,11.92-6.03,26.62-6.03s26.62,2.7,26.62,6.03-11.92,6.03-26.62,6.03-26.62-2.7-26.62-6.03Z"/></g><rect class="cls-6" x="1463.38" y="375.65" width="32.3" height="41.04"/></g></g><g><rect class="cls-6" x="1741.84" y="401.12" width="9.71" height="65.81"/><g><g><path class="cls-6" d="M1720.42,414.55c0-3.33,11.92-6.03,26.62-6.03s26.62,2.7,26.62,6.03-11.92,6.03-26.62,6.03-26.62-2.7-26.62-6.03Z"/><path class="cls-6" d="M1720.42,402.49c0-3.33,11.92-6.03,26.62-6.03s26.62,2.7,26.62,6.03-11.92,6.03-26.62,6.03-26.62-2.7-26.62-6.03Z"/><ellipse class="cls-6" cx="1747.05" cy="390.43" rx="26.62" ry="6.03"/><path class="cls-6" d="M1720.42,378.36c0-3.33,11.92-6.03,26.62-6.03s26.62,2.7,26.62,6.03-11.92,6.03-26.62,6.03-26.62-2.7-26.62-6.03Z"/></g><rect class="cls-6" x="1730.54" y="375.65" width="32.3" height="41.04"/></g></g><g><rect class="cls-6" x="2009.8" y="401.12" width="9.71" height="65.81"/><g><g><path class="cls-6" d="M1988.39,414.55c0-3.33,11.92-6.03,26.62-6.03s26.62,2.7,26.62,6.03-11.92,6.03-26.62,6.03-26.62-2.7-26.62-6.03Z"/><path class="cls-6" d="M1988.39,402.49c0-3.33,11.92-6.03,26.62-6.03s26.62,2.7,26.62,6.03-11.92,6.03-26.62,6.03-26.62-2.7-26.62-6.03Z"/><path class="cls-6" d="M1988.39,390.43c0-3.33,11.92-6.03,26.62-6.03s26.62,2.7,26.62,6.03-11.92,6.03-26.62,6.03-26.62-2.7-26.62-6.03Z"/><path class="cls-6" d="M1988.39,378.36c0-3.33,11.92-6.03,26.62-6.03s26.62,2.7,26.62,6.03-11.92,6.03-26.62,6.03-26.62-2.7-26.62-6.03Z"/></g><rect class="cls-6" x="1998.5" y="375.65" width="32.3" height="41.04"/></g></g><polygon class="cls-6" points="1750.18 629.31 1583.26 489.95 1589.42 482.63 1750.13 616.81 1913.43 478.15 1919.64 485.42 1750.18 629.31"/></g><g><path class="cls-6" d="M309.64,1381.51h-54.46c-.29,0-.52-.23-.52-.52v-280.77c0-.29,.23-.52,.52-.52h54.46c.29,0,.52,.24,.52,.52v280.77c0,.29-.23,.52-.52,.52Zm-53.94-1.05h53.42v-279.73h-53.42v279.73h0Z"/><path class="cls-6" d="M334.11,1568.69h-103.74c-.15,0-.29-.06-.39-.18-.1-.11-.15-.26-.13-.41l24.81-187.18c.03-.26,.26-.46,.52-.46h54.46c.26,0,.49,.2,.52,.46l24.46,187.18c.02,.15-.03,.3-.13,.41s-.24,.18-.39,.18h.01Zm-103.14-1.05h102.54l-24.33-186.13h-53.54l-24.67,186.13Z"/><path class="cls-6" d="M240.37,1643h-19.88c-.15,0-.29-.07-.39-.18-.1-.11-.15-.26-.13-.42l9.87-74.3c.03-.26,.26-.46,.52-.46h41.13c.18,0,.34,.09,.44,.23,.1,.15,.11,.33,.05,.49l-31.12,74.3c-.08,.19-.27,.32-.48,.32v.02Zm-19.29-1.05h18.93l30.68-73.26h-39.88l-9.74,73.26h.01Z"/><path class="cls-6" d="M343.81,1643h-19.88c-.21,0-.4-.13-.48-.32l-31.12-74.3c-.07-.16-.05-.35,.05-.49,.1-.15,.26-.23,.44-.23h41.13c.26,0,.48,.2,.52,.46l9.88,74.3c.02,.15-.03,.3-.13,.42-.1,.11-.24,.18-.39,.18l-.02-.02Zm-19.53-1.05h18.93l-9.74-73.26h-39.88l30.68,73.26h.01Z"/><path class="cls-6" d="M439.14,1381.51H133.11c-.25,0-.47-.18-.52-.43s.09-.49,.33-.58l122.07-46.8c.06-.02,.12-.04,.19-.04h54.46c.06,0,.12,.01,.18,.03l129.5,46.8c.24,.09,.38,.33,.34,.58s-.26,.43-.52,.43h0Zm-303.2-1.04H436.15l-126.6-45.75h-54.27l-119.33,45.75h0Z"/><path class="cls-6" d="M420.99,1241.12H151.26c-.25,0-.46-.17-.51-.41-.05-.24,.07-.49,.3-.59l103.91-46.8c.07-.03,.14-.05,.22-.05h54.46c.07,0,.14,.01,.2,.04l111.35,46.8c.23,.1,.36,.34,.31,.59-.05,.24-.26,.42-.51,.42h0Zm-267.28-1.05H418.39l-108.85-45.75h-54.25l-101.59,45.75h0Z"/><path class="cls-6" d="M392.46,1100.74H179.79c-.25,0-.47-.18-.51-.42-.05-.25,.09-.49,.32-.59l84.83-34.06c.06-.03,.13-.04,.2-.04h37.85c.06,0,.13,.01,.19,.03l89.99,34.06c.24,.09,.38,.34,.33,.58-.05,.25-.26,.43-.52,.43h-.01Zm-209.96-1.04h207.09l-87.22-33.01h-37.65l-82.22,33.01h0Z"/><path class="cls-6" d="M302.47,1066.68h-37.85c-.16,0-.32-.08-.42-.21s-.13-.3-.09-.46l17.79-65.15c.06-.22,.26-.38,.5-.39,.25,0,.44,.15,.51,.37l20.06,65.15c.05,.16,.02,.33-.08,.47-.1,.13-.26,.21-.42,.21h0Zm-37.16-1.04h36.45l-19.32-62.74-17.13,62.74Z"/><path class="cls-6" d="M309.64,1147.53h-54.46c-.22,0-.41-.14-.49-.34-.08-.21-.02-.44,.15-.58l26.77-23-26.77-23c-.17-.14-.23-.37-.15-.58s.27-.34,.49-.34h54.46c.22,0,.41,.14,.49,.34,.08,.21,.02,.44-.15,.58l-26.77,23,26.77,23c.17,.14,.23,.37,.15,.58-.08,.21-.27,.34-.49,.34Zm-53.05-1.05h51.63l-25.82-22.18-25.82,22.18h.01Zm0-45.75l25.82,22.18,25.82-22.18h-51.64Z"/><path class="cls-6" d="M309.64,1194.33h-54.46c-.22,0-.41-.14-.49-.34-.08-.21-.02-.44,.15-.58l26.77-23-26.77-23c-.17-.14-.23-.37-.15-.58s.27-.34,.49-.34h54.46c.22,0,.41,.14,.49,.34,.08,.21,.02,.44-.15,.58l-26.77,23,26.77,23c.17,.14,.23,.37,.15,.58-.08,.21-.27,.34-.49,.34Zm-53.05-1.05h51.63l-25.82-22.18-25.82,22.18h.01Zm0-45.75l25.82,22.18,25.82-22.18h-51.64Z"/><path class="cls-6" d="M309.64,1241.12h-54.46c-.22,0-.41-.14-.49-.34-.08-.21-.02-.44,.15-.58l26.77-23-26.77-23c-.17-.14-.23-.37-.15-.58s.27-.34,.49-.34h54.46c.22,0,.41,.14,.49,.34,.08,.21,.02,.44-.15,.58l-26.77,23,26.77,23c.17,.14,.23,.37,.15,.58-.08,.21-.27,.34-.49,.34Zm-53.05-1.05h51.63l-25.82-22.18-25.82,22.18h.01Zm0-45.75l25.82,22.18,25.82-22.18h-51.64Z"/><path class="cls-6" d="M309.64,1287.92h-54.46c-.22,0-.41-.14-.49-.34-.08-.21-.02-.44,.15-.58l26.77-23-26.77-23c-.17-.14-.23-.37-.15-.58s.27-.34,.49-.34h54.46c.22,0,.41,.14,.49,.34,.08,.21,.02,.44-.15,.58l-26.77,23,26.77,23c.17,.14,.23,.37,.15,.58-.08,.21-.27,.34-.49,.34Zm-53.05-1.05h51.63l-25.82-22.18-25.82,22.18h.01Zm0-45.75l25.82,22.18,25.82-22.18h-51.64Z"/><path class="cls-6" d="M309.64,1334.72h-54.46c-.22,0-.41-.14-.49-.34-.08-.21-.02-.44,.15-.58l26.77-23-26.77-23c-.17-.14-.23-.37-.15-.58s.27-.34,.49-.34h54.46c.22,0,.41,.14,.49,.34,.08,.21,.02,.44-.15,.58l-26.77,23,26.77,23c.17,.14,.23,.37,.15,.58-.08,.21-.27,.34-.49,.34Zm-53.05-1.05h51.63l-25.82-22.18-25.82,22.18h.01Zm0-45.75l25.82,22.18,25.82-22.18h-51.64Z"/><path class="cls-6" d="M315.9,1428.31h-67.06c-.22,0-.42-.14-.5-.35-.07-.21,0-.45,.18-.58l33.02-25.41-26.67-20.56c-.18-.14-.25-.37-.18-.58s.27-.36,.5-.36h54.46c.22,0,.42,.14,.5,.36,.07,.21,0,.45-.18,.58l-26.71,20.56,32.97,25.41c.18,.14,.25,.37,.18,.58s-.27,.35-.5,.35h-.01Zm-65.52-1.05h63.98l-31.97-24.64-32.01,24.64h0Zm6.34-45.75l25.67,19.79,25.71-19.79h-51.38Z"/><path class="cls-6" d="M322,1475.1h-79.51c-.23,0-.44-.15-.5-.38-.06-.22,.03-.46,.22-.59l39.13-24.94-32.78-20.97c-.2-.13-.29-.37-.22-.59,.07-.22,.27-.38,.5-.38h67.06c.23,0,.44,.15,.5,.38,.07,.22-.02,.46-.22,.59l-32.89,20.97,39,24.94c.2,.13,.29,.37,.22,.59s-.27,.38-.5,.38h0Zm-77.71-1.05h75.92l-37.9-24.24-38.02,24.24h0Zm6.34-45.75l31.68,20.26,31.79-20.26h-63.47Z"/><path class="cls-6" d="M328.4,1521.9h-92.25c-.24,0-.45-.16-.51-.39s.05-.48,.26-.59l45.27-24.67-38.92-21.2c-.21-.11-.32-.36-.26-.59,.06-.23,.27-.39,.51-.39h79.51c.24,0,.45,.16,.51,.39s-.05,.48-.26,.59l-38.9,21.2,45.3,24.67c.21,.11,.32,.36,.26,.59s-.27,.39-.51,.39h0Zm-90.2-1.05h88.14l-44.08-24.01-44.05,24.01h-.01Zm6.34-45.75l37.71,20.54,37.68-20.54h-75.39Z"/><path class="cls-6" d="M334.37,1568.69h-104c-.24,0-.46-.17-.51-.41-.05-.24,.06-.48,.29-.59l50.96-24.33-45.18-21.53c-.22-.1-.34-.35-.29-.59s.27-.41,.51-.41h92.25c.24,0,.46,.17,.51,.41,.05,.24-.06,.48-.29,.59l-45.09,21.52,51.05,24.33c.22,.1,.34,.35,.29,.59s-.27,.41-.51,.41h.01Zm-101.69-1.04h99.37l-49.73-23.69-49.64,23.69h0Zm5.79-45.75l43.85,20.89,43.77-20.89h-87.62Z"/><path class="cls-6" d="M219.8,1241.12c-.13,0-.26-.05-.35-.14l-22.7-20.64,.71-.78,22.28,20.25,35.03-46.34,.84,.63-35.38,46.8c-.09,.12-.22,.19-.37,.21h-.06Z"/><path class="cls-6" d="M352.82,1241.12c-.14,0-.28-.06-.39-.17l-43.18-46.79,.77-.71,42.84,46.43,22.75-18.61,.66,.81-23.14,18.93c-.1,.08-.21,.12-.33,.12h.02Z"/><rect class="cls-7" x="246.51" y="1357.06" width="71.81" height="1.05" transform="translate(-816.23 511.56) rotate(-40.65)"/><path class="cls-6" d="M398.83,1381.83l-39.66-29.1-49.27,28.71c-.19,.11-.44,.09-.61-.06l-54.46-46.8,.68-.8,54.18,46.55,49.24-28.7c.18-.1,.41-.09,.57,.03l39.94,29.3-.62,.85v.02Z"/><path class="cls-6" d="M187.55,1381.74l-.81-.67,25.56-30.93c.1-.12,.24-.19,.4-.19s.3,.06,.4,.18l26.55,30.51-.79,.69-26.14-30.05-25.16,30.45h0Z"/><path class="cls-6" d="M255.18,1100.74c-.08,0-.17-.02-.24-.06l-32.97-17.03,.48-.93,32.4,16.74,9.27-33.44c.05-.17,.17-.3,.34-.36,.16-.06,.35-.03,.48,.08l44.78,33.88,39.19-16.29,.4,.97-39.47,16.41c-.17,.07-.37,.05-.52-.07l-44.41-33.6-9.24,33.32c-.04,.15-.15,.28-.29,.34-.07,.03-.14,.04-.21,.04h.01Z"/><path class="cls-6" d="M255.48,1100.64l-.61-.85,47.29-34.06c.14-.1,.33-.13,.5-.06,.17,.06,.29,.21,.32,.38l7.17,34.06-1.03,.22-7.01-33.28-46.64,33.59h0Z"/><path class="cls-6" d="M302.08,1066.5l-18.9-21.27-18.16,21.26-.8-.68,18.25-21.37-9.35-10.52c-.14-.15-.17-.38-.09-.56,.08-.19,.27-.31,.48-.31h18.92c.2,0,.39,.12,.48,.3,.09,.19,.06,.4-.08,.56l-8.98,10.51,19,21.37-.78,.7h0Zm-27.39-32.39l8.48,9.54,8.14-9.54h-16.62Z"/></g><g><path class="cls-6" d="M675.66,1172.4h-97.75c-.52,0-.94-.42-.94-.94v-503.91c0-.52,.42-.94,.94-.94h97.75c.52,0,.94,.42,.94,.94v503.91c0,.52-.42,.94-.94,.94Zm-96.81-1.88h95.87v-502.03h-95.87v502.03Z"/><path class="cls-6" d="M719.56,1508.34h-186.19c-.27,0-.53-.12-.71-.32s-.26-.47-.23-.74l44.53-335.94c.06-.47,.46-.82,.93-.82h97.75c.47,0,.87,.35,.93,.82l43.91,335.94c.04,.27-.05,.54-.23,.74s-.44,.32-.71,.32h.02Zm-185.11-1.88h184.04l-43.66-334.06h-96.1l-44.28,334.06h0Z"/><path class="cls-6" d="M551.34,1641.7h-35.68c-.27,0-.53-.12-.71-.32s-.26-.48-.23-.74l17.72-133.36c.06-.47,.46-.82,.93-.82h73.81c.31,0,.61,.16,.78,.42,.17,.26,.21,.59,.08,.88l-55.85,133.36c-.15,.35-.49,.58-.87,.58h.02Zm-34.61-1.88h33.98l55.06-131.47h-71.57l-17.47,131.47Z"/><path class="cls-6" d="M736.99,1641.7h-35.68c-.38,0-.72-.23-.87-.58l-55.85-133.36c-.12-.29-.09-.62,.08-.88,.17-.26,.47-.42,.78-.42h73.81c.47,0,.87,.35,.93,.82l17.72,133.36c.04,.27-.05,.54-.23,.74s-.44,.32-.71,.32h.02Zm-35.06-1.88h33.98l-17.47-131.47h-71.57l55.06,131.47Z"/><path class="cls-6" d="M908.08,1172.4H358.83c-.45,0-.84-.32-.92-.77-.08-.45,.16-.89,.59-1.05l219.08-83.99c.11-.04,.22-.06,.34-.06h97.75c.11,0,.22,.02,.32,.06l232.42,83.99c.43,.16,.69,.6,.61,1.05-.08,.45-.47,.78-.93,.78h0Zm-544.16-1.89H902.71l-227.21-82.1h-97.41l-214.17,82.1h0Z"/><path class="cls-6" d="M875.5,920.44H391.41c-.44,0-.83-.31-.92-.74-.09-.43,.13-.87,.53-1.06l186.5-83.99c.12-.05,.25-.08,.39-.08h97.75c.12,0,.25,.02,.36,.07l199.84,83.99c.41,.17,.65,.61,.56,1.05s-.47,.75-.92,.75h0Zm-479.7-1.87h475.04l-195.36-82.1h-97.36l-182.32,82.1Z"/><path class="cls-6" d="M824.29,668.48H442.61c-.45,0-.84-.32-.92-.76-.08-.44,.15-.88,.57-1.05l152.24-61.13c.11-.04,.23-.07,.35-.07h67.93c.11,0,.23,.02,.33,.06l161.51,61.13c.43,.16,.67,.6,.59,1.05-.08,.45-.47,.77-.93,.77h0Zm-376.81-1.88h371.67l-156.54-59.25h-67.57l-147.56,59.25h0Z"/><path class="cls-6" d="M662.78,607.35h-67.93c-.29,0-.57-.14-.75-.37s-.24-.54-.16-.82l31.93-116.92c.11-.4,.47-.69,.89-.69,.45,0,.79,.26,.91,.66l36,116.92c.09,.29,.04,.6-.14,.84-.18,.24-.46,.38-.76,.38h.01Zm-66.69-1.88h65.42l-34.67-112.61-30.75,112.61Z"/><path class="cls-6" d="M675.66,752.47h-97.75c-.39,0-.74-.24-.88-.61s-.03-.78,.27-1.04l48.04-41.28-48.04-41.28c-.3-.26-.41-.67-.27-1.04,.14-.37,.49-.61,.88-.61h97.75c.39,0,.74,.24,.88,.61s.03,.78-.27,1.04l-48.04,41.28,48.04,41.28c.3,.26,.41,.67,.27,1.04-.14,.37-.49,.61-.88,.61h0Zm-95.21-1.88h92.67l-46.33-39.81-46.34,39.81h0Zm0-82.1l46.34,39.81,46.33-39.81h-92.67Z"/><path class="cls-6" d="M675.66,836.46h-97.75c-.39,0-.74-.25-.88-.61-.14-.37-.03-.78,.27-1.04l48.04-41.28-48.04-41.28c-.3-.26-.41-.67-.27-1.04,.14-.37,.49-.61,.88-.61h97.75c.39,0,.74,.24,.88,.61s.03,.78-.27,1.04l-48.04,41.28,48.04,41.28c.3,.26,.41,.67,.27,1.04-.14,.37-.49,.61-.88,.61Zm-95.21-1.88h92.67l-46.33-39.81-46.34,39.81h0Zm0-82.1l46.34,39.81,46.33-39.81h-92.67Z"/><path class="cls-6" d="M675.66,920.44h-97.75c-.39,0-.74-.25-.88-.61-.14-.37-.03-.79,.27-1.04l48.04-41.28-48.04-41.28c-.3-.26-.41-.67-.27-1.04,.14-.37,.49-.61,.88-.61h97.75c.39,0,.74,.25,.88,.61,.14,.37,.03,.78-.27,1.04l-48.04,41.28,48.04,41.28c.3,.26,.41,.67,.27,1.04-.14,.37-.49,.61-.88,.61Zm-95.21-1.88h92.67l-46.33-39.81-46.34,39.81h0Zm0-82.1l46.34,39.81,46.33-39.81h-92.67Z"/><path class="cls-6" d="M675.66,1004.43h-97.75c-.39,0-.74-.25-.88-.61-.14-.37-.03-.78,.27-1.04l48.04-41.28-48.04-41.28c-.3-.26-.41-.67-.27-1.04,.14-.37,.49-.61,.88-.61h97.75c.39,0,.74,.25,.88,.61,.14,.37,.03,.78-.27,1.04l-48.04,41.28,48.04,41.28c.3,.26,.41,.67,.27,1.04-.14,.37-.49,.61-.88,.61Zm-95.21-1.88h92.67l-46.33-39.81-46.34,39.81h0Zm0-82.1l46.34,39.81,46.33-39.81h-92.67Z"/><path class="cls-6" d="M675.66,1088.41h-97.75c-.39,0-.74-.25-.88-.61-.14-.37-.03-.79,.27-1.04l48.04-41.28-48.04-41.28c-.3-.26-.41-.67-.27-1.04,.14-.37,.49-.61,.88-.61h97.75c.39,0,.74,.25,.88,.61,.14,.37,.03,.79-.27,1.04l-48.04,41.28,48.04,41.28c.3,.26,.41,.67,.27,1.04-.14,.37-.49,.61-.88,.61Zm-95.21-1.88h92.67l-46.33-39.81-46.34,39.81h0Zm0-82.1l46.34,39.81,46.33-39.81h-92.67Z"/><path class="cls-6" d="M686.88,1256.38h-120.35c-.4,0-.76-.26-.89-.64s0-.8,.32-1.05l59.25-45.6-47.87-36.89c-.32-.25-.45-.67-.32-1.05s.49-.64,.89-.64h97.75c.4,0,.76,.26,.89,.64s0,.8-.32,1.05l-47.94,36.89,59.17,45.6c.32,.25,.45,.67,.32,1.05s-.49,.64-.89,.64h-.01Zm-117.59-1.88h114.83l-57.37-44.22-57.46,44.22Zm11.38-82.1l46.08,35.51,46.14-35.51h-92.22Z"/><path class="cls-6" d="M697.84,1340.37h-142.69c-.42,0-.79-.28-.9-.68-.12-.4,.04-.83,.4-1.06l70.22-44.77-58.84-37.63c-.35-.22-.51-.66-.4-1.06,.12-.4,.49-.68,.9-.68h120.35c.42,0,.79,.28,.9,.68,.12,.4-.04,.83-.4,1.06l-59.03,37.64,69.99,44.76c.35,.22,.51,.66,.4,1.06-.12,.4-.48,.68-.9,.68h0Zm-139.47-1.88h136.25l-68.02-43.5-68.24,43.5h.01Zm11.37-82.1l56.86,36.37,57.05-36.37h-113.91Z"/><path class="cls-6" d="M709.33,1424.35h-165.57c-.43,0-.81-.29-.91-.71-.11-.42,.08-.85,.46-1.06l81.24-44.28-69.86-38.05c-.38-.21-.57-.64-.46-1.06s.48-.71,.91-.71h142.69c.43,0,.81,.29,.91,.71,.11,.42-.08,.85-.46,1.06l-69.81,38.05,81.3,44.28c.38,.21,.57,.64,.46,1.06s-.48,.71-.91,.71h.01Zm-161.88-1.88h158.18l-79.12-43.1-79.06,43.1Zm11.39-82.1l67.68,36.87,67.63-36.87h-135.31Z"/><path class="cls-6" d="M720.03,1508.34h-186.65c-.44,0-.82-.3-.92-.73-.1-.43,.12-.87,.51-1.06l91.46-43.66-81.08-38.63c-.4-.19-.61-.63-.51-1.06s.48-.73,.92-.73h165.57c.44,0,.82,.3,.92,.73,.1,.43-.12,.87-.51,1.06l-80.93,38.63,91.63,43.66c.4,.19,.61,.63,.51,1.06s-.48,.73-.92,.73Zm-182.5-1.88h178.33l-89.25-42.52-89.09,42.52h.01Zm10.39-82.1l78.7,37.5,78.56-37.5h-157.26Z"/><path class="cls-6" d="M514.41,920.44c-.23,0-.46-.09-.63-.25l-40.75-37.04,1.27-1.39,39.99,36.35,62.88-83.16,1.5,1.13-63.5,83.99c-.16,.21-.4,.34-.66,.37h-.1Z"/><path class="cls-6" d="M753.15,920.44c-.25,0-.51-.1-.69-.3l-77.49-83.99,1.38-1.28,76.89,83.33,40.84-33.41,1.19,1.46-41.52,33.97c-.17,.14-.38,.21-.6,.21h0Z"/><rect class="cls-5" x="562.33" y="1128.59" width="128.87" height="1.88" transform="translate(-584.27 680) rotate(-40.61)"/><path class="cls-6" d="M835.73,1172.96l-71.18-52.22-88.42,51.53c-.35,.2-.78,.16-1.09-.1l-97.75-83.99,1.23-1.43,97.24,83.55,88.37-51.51c.32-.19,.73-.17,1.03,.05l71.68,52.59-1.11,1.52h0Z"/><path class="cls-6" d="M456.53,1172.8l-1.45-1.2,45.87-55.51c.18-.21,.44-.34,.71-.34,.29,0,.54,.11,.72,.32l47.64,54.76-1.42,1.24-46.91-53.92-45.16,54.65h0Z"/><path class="cls-6" d="M577.91,668.48c-.15,0-.3-.03-.43-.11l-59.18-30.57,.86-1.67,58.15,30.04,16.64-60.02c.08-.3,.31-.54,.61-.64,.29-.1,.62-.05,.87,.14l80.37,60.81,70.33-29.24,.72,1.74-70.83,29.45c-.31,.13-.66,.08-.93-.12l-79.7-60.3-16.58,59.8c-.08,.27-.27,.5-.53,.61-.12,.05-.25,.08-.38,.08h.01Z"/><path class="cls-6" d="M578.46,668.31l-1.1-1.53,84.87-61.13c.26-.19,.59-.23,.89-.11s.52,.37,.58,.68l12.88,61.13-1.84,.39-12.58-59.72-83.7,60.29Z"/><path class="cls-6" d="M662.08,607.04l-33.92-38.17-32.58,38.15-1.43-1.22,32.75-38.35-16.78-18.87c-.25-.28-.31-.67-.16-1.01s.49-.56,.86-.56h33.96c.37,0,.7,.21,.85,.55,.15,.33,.1,.73-.14,1l-16.11,18.86,34.1,38.36-1.41,1.25h.01Zm-49.16-58.14l15.21,17.11,14.62-17.11h-29.83Z"/></g><g><rect class="cls-6" x="1171.45" y="174.89" width="54.64" height="1466.33"/><rect class="cls-6" x="837.5" y="214.8" width="715" height="36.05"/><g><rect class="cls-6" x="864.46" y="134.98" width="11.79" height="79.82"/><g><g><ellipse class="cls-6" cx="870.78" cy="151.27" rx="32.31" ry="7.31"/><path class="cls-6" d="M838.47,136.64c0-4.04,14.47-7.31,32.31-7.31s32.31,3.27,32.31,7.31-14.47,7.32-32.31,7.32-32.31-3.28-32.31-7.32Z"/><path class="cls-6" d="M838.47,122.01c0-4.04,14.47-7.32,32.31-7.32s32.31,3.28,32.31,7.32-14.47,7.31-32.31,7.31-32.31-3.27-32.31-7.31Z"/><ellipse class="cls-6" cx="870.78" cy="107.37" rx="32.31" ry="7.31"/></g><rect class="cls-6" x="850.75" y="104.08" width="39.2" height="49.78"/></g></g><g><rect class="cls-6" x="1188.68" y="134.98" width="11.79" height="79.82"/><g><g><ellipse class="cls-6" cx="1195" cy="151.27" rx="32.31" ry="7.31"/><path class="cls-6" d="M1162.69,136.64c0-4.04,14.47-7.31,32.31-7.31s32.31,3.27,32.31,7.31-14.47,7.32-32.31,7.32-32.31-3.28-32.31-7.32Z"/><path class="cls-6" d="M1162.69,122.01c0-4.04,14.47-7.32,32.31-7.32s32.31,3.28,32.31,7.32-14.47,7.31-32.31,7.31-32.31-3.27-32.31-7.31Z"/><ellipse class="cls-6" cx="1195" cy="107.37" rx="32.31" ry="7.31"/></g><rect class="cls-6" x="1174.97" y="104.08" width="39.2" height="49.78"/></g></g><g><rect class="cls-6" x="1513.87" y="134.98" width="11.79" height="79.82"/><g><g><path class="cls-6" d="M1487.89,151.27c0-4.04,14.47-7.31,32.31-7.31s32.31,3.27,32.31,7.31-14.46,7.32-32.31,7.32-32.31-3.27-32.31-7.32Z"/><path class="cls-6" d="M1487.89,136.64c0-4.04,14.47-7.31,32.31-7.31s32.31,3.27,32.31,7.31-14.46,7.32-32.31,7.32-32.31-3.28-32.31-7.32Z"/><path class="cls-6" d="M1487.89,122.01c0-4.04,14.47-7.32,32.31-7.32s32.31,3.28,32.31,7.32-14.46,7.31-32.31,7.31-32.31-3.27-32.31-7.31Z"/><path class="cls-6" d="M1487.89,107.37c0-4.04,14.47-7.31,32.31-7.31s32.31,3.27,32.31,7.31-14.46,7.31-32.31,7.31-32.31-3.27-32.31-7.31Z"/></g><rect class="cls-6" x="1500.16" y="104.08" width="39.2" height="49.78"/></g></g><polygon class="cls-6" points="1198.8 411.77 996.24 242.72 1003.71 233.84 1198.74 396.61 1396.92 228.41 1404.46 237.23 1198.8 411.77"/></g><rect class="cls-10" x="1126.11" y="327.52" width="146.14" height="179.02"/><rect class="cls-10" x="1159.67" y="327.52" width="112.58" height="179.02"/><g><rect class="cls-6" x="2118.04" y="796.33" width="31.43" height="846.79"/><rect class="cls-6" x="1925.92" y="819.37" width="411.33" height="20.82"/><g><rect class="cls-6" x="1941.43" y="773.28" width="6.78" height="46.1"/><g><g><ellipse class="cls-6" cx="1945.07" cy="782.68" rx="18.59" ry="4.22"/><path class="cls-6" d="M1926.48,774.24c0-2.33,8.32-4.22,18.59-4.22s18.59,1.89,18.59,4.22-8.32,4.22-18.59,4.22-18.59-1.89-18.59-4.22Z"/><path class="cls-6" d="M1926.48,765.79c0-2.33,8.32-4.22,18.59-4.22s18.59,1.89,18.59,4.22-8.32,4.22-18.59,4.22-18.59-1.89-18.59-4.22Z"/><path class="cls-6" d="M1926.48,757.34c0-2.33,8.32-4.22,18.59-4.22s18.59,1.89,18.59,4.22-8.32,4.22-18.59,4.22-18.59-1.89-18.59-4.22Z"/></g><rect class="cls-6" x="1933.55" y="755.44" width="22.55" height="28.75"/></g></g><g><rect class="cls-6" x="2127.95" y="773.28" width="6.78" height="46.1"/><g><g><path class="cls-6" d="M2113,782.68c0-2.33,8.32-4.22,18.59-4.22s18.59,1.89,18.59,4.22-8.32,4.22-18.59,4.22-18.59-1.89-18.59-4.22Z"/><path class="cls-6" d="M2113,774.24c0-2.33,8.32-4.22,18.59-4.22s18.59,1.89,18.59,4.22-8.32,4.22-18.59,4.22-18.59-1.89-18.59-4.22Z"/><path class="cls-6" d="M2113,765.79c0-2.33,8.32-4.22,18.59-4.22s18.59,1.89,18.59,4.22-8.32,4.22-18.59,4.22-18.59-1.89-18.59-4.22Z"/><path class="cls-6" d="M2113,757.34c0-2.33,8.32-4.22,18.59-4.22s18.59,1.89,18.59,4.22-8.32,4.22-18.59,4.22-18.59-1.89-18.59-4.22Z"/></g><rect class="cls-6" x="2120.07" y="755.44" width="22.55" height="28.75"/></g></g><g><rect class="cls-6" x="2315.03" y="773.28" width="6.78" height="46.1"/><g><g><path class="cls-6" d="M2300.08,782.68c0-2.33,8.32-4.22,18.59-4.22s18.59,1.89,18.59,4.22-8.32,4.22-18.59,4.22-18.59-1.89-18.59-4.22Z"/><path class="cls-6" d="M2300.08,774.24c0-2.33,8.32-4.22,18.59-4.22s18.59,1.89,18.59,4.22-8.32,4.22-18.59,4.22-18.59-1.89-18.59-4.22Z"/><path class="cls-6" d="M2300.08,765.79c0-2.33,8.32-4.22,18.59-4.22s18.59,1.89,18.59,4.22-8.32,4.22-18.59,4.22-18.59-1.89-18.59-4.22Z"/><path class="cls-6" d="M2300.08,757.34c0-2.33,8.32-4.22,18.59-4.22s18.59,1.89,18.59,4.22-8.32,4.22-18.59,4.22-18.59-1.89-18.59-4.22Z"/></g><rect class="cls-6" x="2307.15" y="755.44" width="22.55" height="28.75"/></g></g><polygon class="cls-6" points="2133.78 933.13 2017.24 835.5 2021.54 830.37 2133.74 924.37 2247.75 827.24 2252.09 832.33 2133.78 933.13"/></g><rect class="cls-17" x="1032.61" y="1046.03" width="245.58" height="593.57"/><rect class="cls-17" x="1184.79" y="1046.03" width="93.4" height="593.57"/><rect class="cls-10" x="1111.98" y="1066.53" width="49.72" height="88.25"/><rect class="cls-10" x="1099.39" y="1066.53" width="49.72" height="88.25"/><path class="cls-18" d="M1049.17,1266.96l-.31-1.21c.16-.04,15.65-4.31,18.07-29.74,2.01-21.11,5.44-32.14,11.46-36.89,2.71-2.13,6.02-2.93,9.84-2.39,4.8,.69,9.07,5.05,14.01,10.09,8.87,9.06,19.9,20.33,39.41,15.05,29.93-8.1,42.42-40.17,42.54-40.49l1.17,.44c-.12,.33-12.84,32.99-43.38,41.25-20.21,5.47-31.53-6.09-40.63-15.38-4.78-4.89-8.91-9.11-13.3-9.73-3.52-.51-6.43,.19-8.89,2.13-5.66,4.45-9.05,15.56-10.99,36.02-1.31,13.73-6.37,21.37-10.39,25.36-4.39,4.36-8.45,5.43-8.62,5.47v.02Z"/><polygon class="cls-18" points="1184.79 1285.71 1111.35 1285.71 1111.35 1154.78 1112.6 1154.78 1112.6 1284.46 1184.79 1284.46 1184.79 1285.71"/><polygon class="cls-18" points="1184.79 1271.49 1123.63 1271.49 1123.63 1154.78 1124.87 1154.78 1124.87 1270.24 1184.79 1270.24 1184.79 1271.49"/><polygon class="cls-18" points="1184.79 1255.11 1140.58 1255.11 1140.58 1154.78 1141.83 1154.78 1141.83 1253.86 1184.79 1253.86 1184.79 1255.11"/><polygon class="cls-18" points="1184.79 1493.02 1075.67 1493.02 1075.67 1358.77 1184.79 1358.77 1184.79 1360.02 1076.92 1360.02 1076.92 1491.77 1184.79 1491.77 1184.79 1493.02"/><polygon class="cls-18" points="1184.79 1478.03 1092.89 1478.03 1092.89 1370.01 1184.79 1370.01 1184.79 1371.26 1094.14 1371.26 1094.14 1476.79 1184.79 1476.79 1184.79 1478.03"/><polygon class="cls-18" points="1184.79 1458.27 1111.35 1458.27 1111.35 1386.87 1184.79 1386.87 1184.79 1388.12 1112.6 1388.12 1112.6 1457.02 1184.79 1457.02 1184.79 1458.27"/><rect class="cls-10" x="1065.7" y="1532.78" width="119.09" height="73.78"/><polygon class="cls-2" points="1083.79 1532.78 1082.54 1532.78 1082.54 1509.26 1184.79 1509.26 1184.79 1510.51 1083.79 1510.51 1083.79 1532.78"/><polygon class="cls-2" points="1110.62 1532.78 1109.37 1532.78 1109.37 1520.71 1184.79 1520.71 1184.79 1521.95 1110.62 1521.95 1110.62 1532.78"/><g><path class="cls-1" d="M1130.13,1074.41c0,1.08-.87,1.95-1.95,1.95s-1.95-.87-1.95-1.95,.87-1.95,1.95-1.95,1.95,.87,1.95,1.95Z"/><path class="cls-11" d="M1137.38,1074.41c0,1.08-.87,1.95-1.95,1.95s-1.95-.87-1.95-1.95,.87-1.95,1.95-1.95,1.95,.87,1.95,1.95Z"/><path class="cls-2" d="M1143.93,1074.41c0,1.08-.87,1.95-1.95,1.95s-1.95-.87-1.95-1.95,.87-1.95,1.95-1.95,1.95,.87,1.95,1.95Z"/></g><rect class="cls-2" x="1107.5" y="1079.02" width="38.38" height="21.02"/><path class="cls-2" d="M2318.33,774.43c-32.77-4.88-69.14-27.16-108.11-66.22-31.13-31.2-63.99-73.13-97.67-124.63-55.41-84.72-94.98-168.04-97.93-174.3-39.92,1-90.75-12.24-151-39.36-48.33-21.75-102.83-52.44-161.98-91.2-100.7-65.99-181.04-133.44-181.84-134.12l.8-.96c.8,.67,81.1,68.08,181.74,134.03,59.09,38.73,113.53,69.38,161.8,91.1,60.29,27.13,111.06,40.34,150.86,39.24h.41l.17,.36c.4,.86,40.74,86.95,98.02,174.53,33.63,51.42,66.44,93.28,97.51,124.42,38.78,38.87,74.91,61.03,107.41,65.87l-.18,1.23h-.01Z"/><path class="cls-2" d="M2119.97,760.05c-42.78-6.57-89.07-29.79-137.56-69.01-38.76-31.34-79.03-72.93-119.67-123.59-67.16-83.71-113.34-165.13-116.43-170.61-81.26-7.7-160.83-26.52-236.5-55.95-60.62-23.57-118.9-53.96-173.2-90.32-73.99-49.54-125.57-100.87-142.51-121.08l.96-.8c16.91,20.18,68.4,71.41,142.29,120.88,54.23,36.31,112.42,66.65,172.95,90.18,75.66,29.42,155.22,48.22,236.46,55.89l.33,.03,.16,.29c.47,.84,47.36,84.57,116.49,170.74,40.59,50.59,80.79,92.11,119.48,123.4,48.32,39.07,94.4,62.2,136.96,68.74l-.19,1.23-.02-.02Z"/><path class="cls-2" d="M1944.8,774.43c-57.3-1.85-117.46-22.88-178.79-62.51-49.04-31.68-98.94-75.26-148.31-129.51-81.65-89.72-135.05-179.64-138.53-185.55-54.95-1.5-121.11-16.45-196.66-44.45-60.55-22.43-127.23-53.24-198.19-91.58-120.82-65.26-213.4-130.59-214.32-131.24l.72-1.02c.92,.65,93.45,65.95,214.2,131.17,70.91,38.3,137.54,69.09,198.03,91.5,75.58,28,141.73,42.93,196.6,44.38h.35l.18,.31c.54,.92,54.59,93.39,138.56,185.66,49.3,54.17,99.12,97.67,148.06,129.29,61.14,39.5,121.08,60.46,178.15,62.3l-.04,1.25h0Z"/><rect class="cls-17" x="17.43" y="1639" width="2611.15" height="6.45" rx="2.86" ry="2.86"/><g><g><polygon class="cls-17" points="1674.58 1632.79 1715.56 1632.28 1811.35 1233.24 1770.34 1233.75 1674.58 1632.79"/><path class="cls-17" d="M1606.82,1641.67h183.87c0-10.75-8.73-19.48-19.48-19.48h-144.91c-10.75,0-19.48,8.73-19.48,19.48h0Z"/></g><polygon class="cls-17" points="2031.59 1456.91 2013.93 1368.37 2013.93 1368.37 2013.9 1368.16 1955.13 1073.51 1383.84 1073.58 1460.32 1456.99 1568.83 1456.96 1568.83 1456.96 1569.86 1456.96 1691.29 1456.96 1691.65 1456.96 1691.65 1456.96 1812.57 1456.93 1813.39 1456.93 1813.39 1456.93 1934.04 1456.91 1934.04 1456.91 1935.14 1456.91 1935.14 1456.91 2031.59 1456.91"/><g><polygon class="cls-10" points="2041.37 1449.33 1470.1 1449.41 1393.62 1073.58 1964.91 1073.51 2041.37 1449.33"/><g><polygon class="cls-17" points="1579.71 1449.38 1578.61 1449.38 1502.33 1074.58 1503.43 1074.58 1579.71 1449.38"/><polygon class="cls-17" points="1701.43 1449.38 1700.35 1449.38 1624.07 1074.55 1625.17 1074.55 1701.43 1449.38"/><polygon class="cls-17" points="1823.17 1449.36 1822.1 1449.36 1745.82 1074.55 1746.92 1074.55 1823.17 1449.36"/><polygon class="cls-17" points="1944.91 1449.33 1943.81 1449.33 1867.56 1074.53 1868.66 1074.53 1944.91 1449.33"/><polygon class="cls-17" points="1983.06 1162.69 1411.76 1162.76 1411.56 1161.74 1982.85 1161.66 1983.06 1162.69"/><polygon class="cls-17" points="2003.38 1262.62 1432.11 1262.7 1431.88 1261.67 2003.18 1261.57 2003.38 1262.62"/><polygon class="cls-17" points="2023.7 1362.53 1452.44 1362.61 1452.23 1361.58 2023.5 1361.51 2023.7 1362.53"/></g><g><polygon class="cls-17" points="1522.99 1173.29 1508.96 1162.25 1518.48 1151.19 1532.48 1162.25 1522.99 1173.29"/><polygon class="cls-17" points="1543.41 1273.73 1529.41 1262.67 1538.91 1251.64 1552.91 1262.67 1543.41 1273.73"/><polygon class="cls-17" points="1645.27 1173.29 1631.24 1162.23 1640.76 1151.17 1654.76 1162.23 1645.27 1173.29"/><polygon class="cls-17" points="1665.69 1273.71 1651.69 1262.67 1661.19 1251.61 1675.22 1262.65 1665.69 1273.71"/><polygon class="cls-17" points="1767.01 1173.26 1752.98 1162.2 1762.5 1151.17 1776.51 1162.2 1767.01 1173.26"/><polygon class="cls-17" points="1887.65 1173.23 1873.62 1162.2 1883.15 1151.14 1897.15 1162.2 1887.65 1173.23"/><polygon class="cls-17" points="1563.64 1373.13 1549.63 1362.07 1559.13 1351.04 1573.16 1362.07 1563.64 1373.13"/><polygon class="cls-17" points="1685.92 1373.1 1671.91 1362.07 1681.44 1351.01 1695.44 1362.07 1685.92 1373.1"/><polygon class="cls-17" points="1807.66 1373.1 1793.66 1362.04 1803.15 1351.01 1817.18 1362.04 1807.66 1373.1"/><polygon class="cls-17" points="1928.3 1373.08 1914.3 1362.04 1923.82 1350.99 1937.82 1362.02 1928.3 1373.08"/><polygon class="cls-17" points="1908.08 1273.68 1894.08 1262.62 1903.57 1251.59 1917.6 1262.62 1908.08 1273.68"/><polygon class="cls-17" points="1787.44 1273.68 1773.44 1262.65 1782.93 1251.59 1796.93 1262.65 1787.44 1273.68"/></g></g></g><g><path class="cls-16" d="M1103.06,1104.13s6.68-13.89,12.1-18.2c5.42-4.31,19.9-3.26,20.45-2.16,1.72,3.41-11.62,8.73-13.15,11.87-1.54,3.13,4.85,2.82-.06,8.26-4.15,4.6-14.07,8.99-14.07,8.99l-5.28-8.77Z"/><path class="cls-8" d="M1108.84,1102.54c-3.51-5.47-4.56-5.75-4.56-5.75,0,0-58.11,23.19-63.66,25.13-5.55,1.94-88.46,6.81-88.46,6.81l-25.02,55.02s110.49-25.21,124.44-30.39c23.06-8.56,60.06-42.1,60.06-42.1,0,0-.04-4.42-2.8-8.71Z"/><path class="cls-8" d="M964.47,1617.01s1.27,20.41,5.05,25.21h58.29c-.37-2.04-2.02-7.06-9.31-8.33-9.21-1.6-24.63-8.08-30.2-20.26-5.87-12.81-23.84,3.38-23.84,3.38Z"/><path class="cls-8" d="M860.86,1608.62s-3.67,30.95,1.32,31.41c.66,.06,24.01,.02,30.36,.97,10.37,1.55,27.66,.2,27.66,.2,2.17,.09,3.58-2.26,2.48-4.12-1.21-2.05-3.52-4.24-7.92-5.08-9.18-1.77-24.48-8.51-29.84-20.79-5.64-12.91-24.06-2.58-24.06-2.58Z"/><path class="cls-9" d="M991.88,1345.41s-14.65,51.3-56.66,140.4c-13.76,29.18-22.96,52.8-29.11,71.39-.8,2.4-1.55,4.71-2.23,6.93-1.12,3.58-2.12,6.94-3.01,10.09-.67,2.41-1.29,4.69-1.85,6.85-5.51,21.45-5.39,31.19-5.39,31.19,0,0-9.54,3.59-20.93,2.46-5.8-.59-18.54-6.03-18.54-6.03,0,0,1.37-14.37,4.14-34.68,.31-2.23,.64-4.53,.97-6.9,.45-3.17,.94-6.45,1.45-9.81,.35-2.26,.71-4.56,1.09-6.87,4.88-30.26,12.12-65.38,21.78-87.29,19.85-44.96,23.89-168.02,23.89-168.02l84.4,50.28Z"/><path class="cls-9" d="M1015.32,1319.23c-.46,28.83-2.66,89.31-12.48,159.03-4.74,33.69-7.3,60.69-8.61,81.6-.15,2.46-.29,4.83-.4,7.12-.2,3.68-.35,7.15-.47,10.4-.09,2.46-.16,4.79-.21,7.01-.55,22.51,.61,32.84,.61,32.84,0,0-.84,.51-2.57,1.16h-.01c-2.96,1.11-8.51,2.61-16.88,2.61-3.76,0-6.99-.5-9.59-1.14-4.52-1.1-7.1-2.61-7.1-2.61,0,0-2.21-13-4.72-31.84-.31-2.26-.61-4.59-.92-7.01-.41-3.2-.81-6.52-1.22-9.95-.26-2.3-.54-4.62-.8-6.99-3.32-29.95-5.89-65.52-3.12-89.55,.44-3.83,.65-8.09,.66-12.71h0c.02-21.64-4.39-50.78-9.7-77.94,0,0-.01-.08-.05-.22-5.47-27.95-11.86-53.76-15.32-67.13-1.56-6.05-2.52-9.55-2.52-9.55l2.91-.1h.01l22.97-.74,62.65-2.03,3.86-.12,3.12-.1s.1,6.47-.09,17.97Z"/><path class="cls-16" d="M950.47,1115.33l15.52,11.5,22.43-4.72c-.31-2.05-1.79-10.53-3.14-18.21-.08-.45-.16-.91-.24-1.35-1.16-6.54-2.15-12.15-2.15-12.15l-20.95-10.45-7.81-3.89c.02,.14,.61,7.25,.69,8.29,1.47,18.45-4.35,30.99-4.35,30.99Z"/><path class="cls-8" d="M986.86,1109.52c-.49-.21-30.51-9.07-33.78-7.99-3.26,1.08-5.19,7.39-5.19,7.39l46.35,13.21s-1.11-9.96-7.38-12.61Z"/><path class="cls-8" d="M906.01,1311.06c5.08,23.22,111.18-49.65,109.77-63.83-.16-1.56-.31-3.12-.47-4.68-1.96-19.74-3.84-39.04-3.97-51.65-.1-10.93-1.61-22.11-3.62-32.26-1.84-9.38-4.11-17.88-6.08-24.51-1.39-4.67-3.98-8.78-7.41-12.01-2.44-2.3-5.3-4.14-8.46-5.39-.86-.36-1.74-.66-2.63-.92-12.78-3.71-30.46-8.3-35.25-6.9-12.99,3.83-22.63,26.69-29.46,55.84-12.78,54.57-15.73,131.18-12.42,146.31Z"/><path class="cls-15" d="M956.39,1084.67c4.6,8.81,21.75,16.42,28.89,19.23-.08-.45-.16-.91-.24-1.35-1.16-6.54-2.15-12.15-2.15-12.15l-20.95-10.45c-4.63-.07-7.45,1.1-5.55,4.72Z"/><path class="cls-16" d="M993.08,1089.16s-37.8,11.8-44.78-11.87c-6.98-23.66-16.56-38.08,7.28-46.61,23.84-8.53,31.21-.89,35.46,6.44,4.25,7.33,11.69,48.36,2.04,52.04Z"/><path class="cls-9" d="M989.55,1034.84s-2.41,27.54-8.1,26.34c-5.69-1.2-10.85-2.08-10.02,6.22,.83,8.3,1.1,18.28-16.44,19.75-17.54,1.47-35.13-44.19-30.31-52.76,13.9-24.73,84.97-29.72,64.88,.45Z"/><path class="cls-8" d="M1012.58,1301.26c-10.51,3.8,.18-10.45,0-13.42-.82-13.06,4.3-29.57,2.73-45.28l-64.17-38.38s-15.23,96.47,61.44,97.08Z"/><path class="cls-9" d="M906.01,1311.06c27.4,50.8,31.76,70.2,31.76,70.2,23.84-2.72,64.7-49.62,77.66-62.14,0,0,1.76-57.71,.35-71.88l-19.8-.57s-35.8,9.08-45.08-3.24c-9.28-12.32-5.26-72.79-5.26-72.79l-27.21-5.89c-12.78,54.57-19.77,132.68-12.42,146.31Z"/><path class="cls-16" d="M1068.57,1213.72s13.04-8.83,15.51-9.6c2.47-.77,10.58-1.6,10.96-.96,.38,.64,1.49,2.6,.07,3.26-1.42,.66-3.18,.43-2.65,.89,.53,.46,5.86-2.08,7.09,.64,1.23,2.72,2.31,12.04-3.94,14.86-6.25,2.83-21.69,.27-22.81,.6-9.44,2.75-4.23-9.7-4.23-9.7Z"/><path class="cls-8" d="M1068.69,1211.34s-63.65,10.83-69.29,8.08c-9-4.38,3.49-68.99,3.49-68.99,0,0,.54-14.64-16.56-18.1-14.86-3-29.19,8.13-29.19,8.13,0,0-13.04,11.67-11.37,24.61,3.69,28.69,9.43,87.04,28.61,95.99,24.74,11.54,96.32-31.99,96.32-31.99,0,0,2.38-2.92,2.04-8.34-.3-4.78-4.07-9.39-4.07-9.39Z"/><path class="cls-3" d="M940.36,1169.5l5.27,1.14s11.15-48.28,48.6-48.51c-2.44-2.3-5.3-4.14-8.46-5.39-13.73,3.68-37.56,15.42-45.42,52.76Z"/><path class="cls-16" d="M1123.72,1102.18l6.37-8.22s-1.59-2.03-4.84,.39c-1.89,1.41-6.97,4.68-6.97,4.68l5.43,3.15Z"/><path class="cls-3" d="M906.11,1557.2c-.8,2.4-1.55,4.71-2.23,6.93-14.07,.01-27.42-2.62-37.3-5.19-2.12-.55-4.09-1.11-5.85-1.63,.35-2.26,.71-4.56,1.09-6.87,10,3.01,26.79,7.17,44.3,6.77Z"/><path class="cls-3" d="M900.86,1574.22c-.67,2.41-1.29,4.69-1.85,6.85-12.79-.36-24.82-2.77-33.89-5.13-2.52-.66-4.81-1.32-6.83-1.92,.31-2.23,.64-4.53,.97-6.9,9.16,2.8,24.84,6.89,41.59,7.1Z"/></g></svg>