<?xml version="1.0" encoding="UTF-8"?><svg id="Layer_1" xmlns="http://www.w3.org/2000/svg" viewBox="0 0 481.66 426.03"><defs><style>.cls-1,.cls-2,.cls-3,.cls-4{fill:#fff;}.cls-1,.cls-5,.cls-6,.cls-7,.cls-8,.cls-9{stroke-miterlimit:10;}.cls-1,.cls-5,.cls-3,.cls-7,.cls-9,.cls-10,.cls-11,.cls-12{stroke:#263238;}.cls-5,.cls-12,.cls-13{fill:#263238;}.cls-6{stroke:#000;}.cls-6,.cls-3,.cls-10,.cls-11,.cls-12{stroke-linecap:round;}.cls-6,.cls-9,.cls-11{fill:none;}.cls-14,.cls-7,.cls-10{fill:#f4daa0;}.cls-15,.cls-8{fill:#dedede;}.cls-16{opacity:.3;}.cls-3,.cls-10,.cls-11,.cls-12{stroke-linejoin:round;}.cls-8{stroke:#adadad;}.cls-4{isolation:isolate;opacity:.7;}</style></defs><g id="freepik--background-simple--inject-42"><path class="cls-14" d="M477.9,188.96s-28.67-128.52-118.91-169.75C279.34-17.19,183.82-3.68,135.27,75.46c-17.31,28.2-39.06,58.57-63.56,81.54C44.25,182.76,9.36,200.41,.91,263.96c-8.45,63.55,43.48,139.8,98.65,157.11,55.17,17.31,128.64-13.87,191.09-43.64,62.45-29.77,217-27.4,187.25-188.47Z"/><path class="cls-4" d="M477.9,188.96s-28.67-128.52-118.91-169.75C279.34-17.19,183.82-3.68,135.27,75.46c-17.31,28.2-39.06,58.57-63.56,81.54C44.25,182.76,9.36,200.41,.91,263.96c-8.45,63.55,43.48,139.8,98.65,157.11,55.17,17.31,128.64-13.87,191.09-43.64,62.45-29.77,217-27.4,187.25-188.47Z"/><g class="cls-16"><path class="cls-6" d="M159.47,13.22s-3.48-9.27-11.59-11-11.3,3.19-13,7.24-7,.87-11.3,.29-6.66,3.77-7.53,6.95-6.37-1.44-11.3,1.45-5.79,6.66-6.95,7.53-4.34-.58-6.08,1.74l-1.77,2.31h90.7s2.9-6.66-2.61-11.59-15.1,2.61-18.57-4.92Z"/><path class="cls-6" d="M214.87,38.28s-2.39-6.39-8-7.58-7.79,2.19-9,5-4.79,.6-7.78,.2-4.6,2.59-5.19,4.79-4.4-1-7.79,1-4,4.59-4.79,5.19-3-.4-4.19,1.2l-1.2,1.59h62.52c1.13-2.78,.41-5.97-1.8-8-3.79-3.39-10.38,1.8-12.78-3.39Z"/><path class="cls-6" d="M384.24,33.59s-2.4-6.39-8-7.59-7.78,2.2-9,5-4.79,.6-7.79,.2-4.59,2.6-5.19,4.8-4.39-1-7.79,1-4,4.6-4.79,5.19-3-.4-4.19,1.2l-1.2,1.6h62.49c1.13-2.78,.41-5.97-1.8-8-3.76-3.4-10.33,1.79-12.74-3.4Z"/></g></g><g id="freepik--Plants--inject-42"><path class="cls-15" d="M410.49,410.96s-7-15.24-.44-17.85,21.54,7.16,21.54,7.16c0,0-19.8-24.14-14.57-38.08s22.2,5.66,22.2,5.66c0,0-14.8-39.18-.87-39.62s20.63,46.87,20.63,46.87c0,0,7.67-16.39,10.28-7.25s-1.3,20.9-1.3,20.9c0,0,7.4-13.49,8.27-3s-5.66,25.21-5.66,25.21h-60.08Z"/><path class="cls-13" d="M419.86,365.63c1.42,.62,4.89,.54,4.89,.54,0,0-.75-2.27-.81-2.41-.76-1.59-3.17-4.22-5.13-4-1.28,.21-2.14,1.41-1.93,2.69,.01,.08,.03,.16,.05,.24,.49,1.36,1.57,2.44,2.93,2.94Z"/><path class="cls-13" d="M421.06,375.68c1.47,.22,4.56-.68,4.81-.75,.51,1.77,1.14,3.51,1.88,5.2,.43,1,.89,2,1.36,2.94l-.58-.83c-1.16-1.34-4.17-3.24-6-2.46-1.16,.55-1.67,1.93-1.12,3.1,.04,.08,.08,.15,.12,.22,.85,1.16,2.16,1.89,3.59,2,1.59,0,3.17-.24,4.68-.72,.18,.38,.37,.75,.55,1.12,.9,1.79,1.8,3.57,2.63,5.34,.3,.62,.56,1.25,.83,1.87l-.5-.72c-1.16-1.33-4.17-3.23-6-2.46-1.17,.55-1.67,1.95-1.12,3.12,.03,.07,.07,.14,.12,.21,.84,1.16,2.16,1.89,3.59,2,1.54,.01,3.08-.22,4.55-.68,.26,.65,.51,1.3,.73,1.94,.14,.44,.31,.85,.42,1.3s.25,.88,.37,1.32c.2,.84,.42,1.71,.59,2.54,.13,.58,.24,1.13,.35,1.68-.28-.62-.86-1.83-.92-1.93-.94-1.49-3.64-3.83-5.55-3.34-1.24,.35-1.96,1.63-1.62,2.87,.02,.09,.05,.18,.09,.26,.66,1.28,1.84,2.21,3.24,2.54,1.6,.24,3.24,.24,4.84,0,.19,.92,.36,1.82,.51,2.66,.33,1.87,.57,3.55,.76,5h1.3c-.23-1.47-.52-3.22-.91-5.18-.19-.94-.4-1.93-.63-2.95,.92-.37,1.83-.79,2.7-1.27,1.19,1.03,2.52,1.88,3.95,2.54-.36,.87-.71,1.71-1,2.5-.72,1.65-1.4,3.11-2,4.36h1.4c.52-1.15,1.08-2.46,1.68-3.9,.36-.88,.73-1.83,1.1-2.81,1.58,.37,3.21,.5,4.83,.38,1.42-.22,2.67-1.06,3.42-2.29,.58-1.16,.1-2.56-1.05-3.14-.08-.04-.16-.07-.24-.1-1.87-.63-4.74,1.5-5.78,2.92-.07,.09-.63,1.07-1,1.7l.44-1.2c.3-.82,.58-1.64,.88-2.52,.12-.44,.25-.87,.39-1.31s.23-.91,.35-1.37c.25-1.07,.46-2.17,.64-3.28,1.47,.58,3.01,.94,4.59,1.06,1.44,0,2.8-.65,3.73-1.75,.74-1.06,.48-2.52-.58-3.26-.07-.05-.14-.09-.21-.13-1.76-.91-4.91,.76-6.16,2-.08,.07-.87,1.07-1.3,1.62,.1-.66,.21-1.33,.3-2,.24-2,.42-4,.62-5.94,.06-.61,.12-1.21,.19-1.82,1.51,.61,3.11,.99,4.74,1.11,1.44,0,2.8-.64,3.73-1.74,.74-1.06,.48-2.53-.58-3.27-.07-.05-.14-.09-.21-.13-1.76-.9-4.91,.77-6.16,2-.09,.1-1.24,1.53-1.51,1.91,.14-1.34,.29-2.67,.5-4,.27-1.76,.65-3.51,1.14-5.22,.12,0,3.25,1.22,4.77,1.12,1.44,0,2.8-.65,3.73-1.75,.74-1.06,.48-2.52-.58-3.26-.07-.05-.14-.09-.21-.13-1.76-.91-4.91,.76-6.16,2-.1,.1-1.33,1.64-1.53,1.94,0-.1,0-.21,.07-.31,.55-1.7,1.24-3.35,2.07-4.94,.45-.88,.93-1.7,1.42-2.48,1.41,.75,2.94,1.29,4.51,1.59,1.43,.15,2.86-.34,3.9-1.33,.85-.97,.76-2.45-.21-3.3-.06-.06-.13-.11-.2-.16-1.65-1.09-5,.23-6.34,1.33-.08,.06-.77,.75-1.27,1.26,.22-.35,.44-.71,.67-1.05,.82-1.24,1.66-2.33,2.4-3.29,.43-.54,.83-1,1.21-1.47,1.6,.02,3.19-.21,4.72-.67,1.34-.53,2.38-1.63,2.84-3,.31-1.26-.46-2.53-1.72-2.84-.08-.02-.15-.03-.23-.05-2-.21-4.31,2.49-5,4.1-.07,.14-.79,2.43-.75,2.43h0c-.37,.42-.76,.88-1.19,1.39-.76,.94-1.62,2-2.48,3.25-.94,1.32-1.8,2.69-2.58,4.11-.88,1.6-1.62,3.27-2.2,5v-2.26c-.23-1.76-1.7-5-3.64-5.37-1.28-.19-2.48,.69-2.68,1.97-.01,.08-.02,.16-.02,.24,.05,1.44,.74,2.78,1.88,3.66,1.37,.89,2.86,1.56,4.43,2-.55,1.76-.99,3.56-1.3,5.38-.19,1-.35,2.13-.49,3.2v-1c-.22-1.75-1.69-5-3.64-5.36-1.27-.2-2.46,.67-2.66,1.94-.01,.09-.02,.17-.03,.26,.05,1.44,.74,2.78,1.87,3.66,1.32,.88,2.77,1.56,4.3,2l-.15,1.24c-.24,2-.47,4-.75,5.9-.1,.68-.22,1.35-.34,2v-.88c-.22-1.75-1.69-5-3.64-5.36-1.28-.2-2.48,.69-2.68,1.97-.01,.08-.02,.15-.02,.23,.06,1.44,.75,2.78,1.88,3.67,1.29,.86,2.7,1.51,4.18,1.94-.15,.68-.29,1.36-.46,2-.13,.44-.22,.88-.37,1.32l-.42,1.3c-.3,.81-.6,1.66-.91,2.45-.21,.55-.42,1.07-.63,1.59,.11-.68,.29-2,.29-2.12-.02-1.55-.44-3.08-1.22-4.42,.02-.17,.02-.35,0-.52-.15-1.28-1.32-2.2-2.6-2.05-.09,.01-.17,.03-.26,.05-1.91,.5-3.13,3.86-3.22,5.62,0,.11,.07,1.24,.12,2-.09-.42-.18-.82-.29-1.25-.2-.84-.42-1.68-.66-2.58-.13-.44-.26-.87-.4-1.31s-.31-.89-.46-1.34c-.38-1-.81-2.06-1.27-3.09,1.55-.31,3.04-.87,4.41-1.65,1.2-.8,1.98-2.08,2.15-3.51,.03-1.3-.99-2.37-2.29-2.41-.08,0-.16,0-.24,0-2,.22-3.67,3.35-4,5.08,0,.11-.14,1.38-.19,2.07-.28-.61-.56-1.23-.86-1.84-.88-1.77-1.83-3.53-2.76-5.3-.29-.54-.57-1.08-.85-1.62,1.6-.33,3.14-.9,4.57-1.69,1.2-.8,1.98-2.08,2.15-3.51,.04-1.29-.98-2.37-2.27-2.41-.09,0-.17,0-.26,0-2,.22-3.67,3.35-4,5.08,0,.13-.19,1.95-.21,2.42-.62-1.19-1.22-2.38-1.77-3.59-.75-1.62-1.4-3.29-1.93-5,.12,0,3.39-.77,4.59-1.7,1.2-.79,1.99-2.08,2.15-3.51,.03-1.29-.99-2.37-2.28-2.4-.08,0-.17,0-.25,0-2,.21-3.67,3.34-4,5.07,0,.14-.2,2.1-.21,2.46,0-.1-.07-.2-.1-.3-.49-1.72-.82-3.48-1-5.26-.11-1-.16-1.93-.19-2.85,1.6-.15,3.16-.54,4.64-1.16,1.28-.66,2.2-1.86,2.52-3.26,.18-1.28-.72-2.46-2-2.64-.08-.01-.17-.02-.25-.02-2,0-4,2.92-4.56,4.6,0,.1-.23,1.06-.36,1.76v-1.24c0-1.5,.1-2.87,.19-4.08,.06-.69,.13-1.31,.2-1.89,1.34-.87,2.54-1.93,3.56-3.16,.83-1.18,1.09-2.66,.73-4.05-.37-1.24-1.68-1.94-2.92-1.56-.22,.07-.43,.17-.62,.29-1.75,.91-2.22,4.45-1.93,6.19,0,.15,.69,2.46,.72,2.44h0c-.08,.55-.16,1.15-.23,1.81-.12,1.21-.24,2.58-.28,4.08-.06,1.62-.02,3.24,.12,4.85,.14,1.81,.44,3.6,.9,5.35,0,.02,0,.04,0,.06-.31-.48-1.23-1.82-1.31-1.92-1.16-1.33-4.17-3.23-6-2.46-1.17,.55-1.66,1.95-1.11,3.12,.03,.07,.07,.14,.11,.2,.85,1.17,2.18,1.91,3.62,2Z"/><path class="cls-13" d="M454.97,366.39s.63-2.3,.65-2.46c.24-1.74-.32-5.27-2.1-6.13-1.18-.53-2.56,0-3.09,1.18-.03,.07-.06,.15-.09,.23-.31,1.39,0,2.85,.84,4,.85,1.33,3.78,3.18,3.79,3.18Z"/></g><g id="freepik--City--inject-42"><g class="cls-16"><line class="cls-6" x1="473.5" y1="280.27" x2="473.5" y2="287.81"/><polyline class="cls-6" points="405.77 153.26 419.14 153.26 419.14 33.84 473.5 33.84 473.5 274.25"/><polyline class="cls-6" points="214.9 95 233.14 95 233.14 187.86 270.07 187.86 270.07 198.56 293.13 198.56 293.13 126.75 308.78 126.75 308.78 198.56 319.49 198.56 319.49 122.79 336.78 122.79 336.78 195.27 358.2 195.27 358.2 73.37 396.91 73.37 396.91 153.26 400.81 153.26"/><polyline class="cls-6" points="99.13 187.03 172.88 187.03 172.88 95 209.94 95"/><polyline class="cls-6" points="53.22 33.01 80.63 33.01 80.63 187.03 89.61 187.03"/><polyline class="cls-6" points="8.08 263.94 13.1 263.94 13.1 33.01 43.7 33.01"/><rect class="cls-6" x="439.73" y="51.13" width="6.59" height="8.24"/><rect class="cls-6" x="450.44" y="51.13" width="6.59" height="8.24"/><rect class="cls-6" x="461.15" y="51.13" width="6.59" height="8.24"/><rect class="cls-6" x="439.73" y="71.72" width="6.59" height="8.24"/><rect class="cls-6" x="450.44" y="71.72" width="6.59" height="8.24"/><rect class="cls-6" x="461.15" y="71.72" width="6.59" height="8.24"/><rect class="cls-6" x="439.73" y="92.31" width="6.59" height="8.24"/><rect class="cls-6" x="450.44" y="92.31" width="6.59" height="8.24"/><rect class="cls-6" x="461.15" y="92.31" width="6.59" height="8.24"/><rect class="cls-6" x="439.73" y="112.91" width="6.59" height="8.24"/><rect class="cls-6" x="450.44" y="112.91" width="6.59" height="8.24"/><rect class="cls-6" x="461.15" y="112.91" width="6.59" height="8.24"/><rect class="cls-6" x="439.73" y="133.5" width="6.59" height="8.24"/><rect class="cls-6" x="450.44" y="133.5" width="6.59" height="8.24"/><rect class="cls-6" x="461.15" y="133.5" width="6.59" height="8.24"/><rect class="cls-6" x="439.73" y="154.09" width="6.59" height="8.24"/><rect class="cls-6" x="450.44" y="154.09" width="6.59" height="8.24"/><rect class="cls-6" x="461.15" y="154.09" width="6.59" height="8.24"/><rect class="cls-6" x="439.73" y="174.68" width="6.59" height="8.24"/><rect class="cls-6" x="450.44" y="174.68" width="6.59" height="8.24"/><rect class="cls-6" x="461.15" y="174.68" width="6.59" height="8.24"/><rect class="cls-6" x="439.73" y="195.27" width="6.59" height="8.24"/><rect class="cls-6" x="450.44" y="195.27" width="6.59" height="8.24"/><rect class="cls-6" x="461.15" y="195.27" width="6.59" height="8.24"/><rect class="cls-6" x="439.73" y="215.86" width="6.59" height="8.24"/><rect class="cls-6" x="427.35" y="51.13" width="6.59" height="8.24"/><rect class="cls-6" x="427.35" y="71.72" width="6.59" height="8.24"/><rect class="cls-6" x="427.35" y="92.31" width="6.59" height="8.24"/><rect class="cls-6" x="427.35" y="112.91" width="6.59" height="8.24"/><rect class="cls-6" x="427.35" y="133.5" width="6.59" height="8.24"/><rect class="cls-6" x="427.35" y="154.09" width="6.59" height="8.24"/><rect class="cls-6" x="427.35" y="174.68" width="6.59" height="8.24"/><rect class="cls-6" x="427.35" y="195.27" width="6.59" height="8.24"/><rect class="cls-6" x="427.35" y="215.86" width="6.59" height="8.24"/><rect class="cls-6" x="450.44" y="215.86" width="6.59" height="8.24"/><rect class="cls-6" x="369.63" y="92.31" width="6.59" height="8.24"/><rect class="cls-6" x="380.34" y="92.31" width="6.59" height="8.24"/><rect class="cls-6" x="369.63" y="112.91" width="6.59" height="8.24"/><rect class="cls-6" x="380.34" y="112.91" width="6.59" height="8.24"/><rect class="cls-6" x="369.63" y="133.5" width="6.59" height="8.24"/><rect class="cls-6" x="380.34" y="133.5" width="6.59" height="8.24"/><rect class="cls-6" x="369.63" y="154.09" width="6.59" height="8.24"/><rect class="cls-6" x="380.34" y="154.09" width="6.59" height="8.24"/><rect class="cls-6" x="369.63" y="174.68" width="6.59" height="8.24"/><rect class="cls-6" x="380.34" y="174.68" width="6.59" height="8.24"/><rect class="cls-6" x="369.63" y="195.27" width="6.59" height="8.24"/><rect class="cls-6" x="380.34" y="195.27" width="6.59" height="8.24"/><rect class="cls-6" x="369.63" y="215.86" width="6.59" height="8.24"/><rect class="cls-6" x="380.34" y="215.86" width="6.59" height="8.24"/><rect class="cls-6" x="180.93" y="112.91" width="6.59" height="8.24"/><rect class="cls-6" x="191.64" y="112.91" width="6.59" height="8.24"/><rect class="cls-6" x="180.93" y="133.5" width="6.59" height="8.24"/><rect class="cls-6" x="191.64" y="133.5" width="6.59" height="8.24"/><rect class="cls-6" x="180.93" y="154.09" width="6.59" height="8.24"/><rect class="cls-6" x="191.64" y="154.09" width="6.59" height="8.24"/><rect class="cls-6" x="180.93" y="174.68" width="6.59" height="8.24"/><rect class="cls-6" x="191.64" y="174.68" width="6.59" height="8.24"/><rect class="cls-6" x="180.93" y="195.27" width="6.59" height="8.24"/><rect class="cls-6" x="191.64" y="195.27" width="6.59" height="8.24"/><rect class="cls-6" x="180.93" y="215.86" width="6.59" height="8.24"/><rect class="cls-6" x="191.64" y="215.86" width="6.59" height="8.24"/><rect class="cls-6" x="205.17" y="112.91" width="6.59" height="8.24"/><rect class="cls-6" x="215.88" y="112.91" width="6.59" height="8.24"/><rect class="cls-6" x="205.17" y="133.5" width="6.59" height="8.24"/><rect class="cls-6" x="215.88" y="133.5" width="6.59" height="8.24"/><rect class="cls-6" x="205.17" y="154.09" width="6.59" height="8.24"/><rect class="cls-6" x="215.88" y="154.09" width="6.59" height="8.24"/><rect class="cls-6" x="205.17" y="174.68" width="6.59" height="8.24"/><rect class="cls-6" x="215.88" y="174.68" width="6.59" height="8.24"/><rect class="cls-6" x="205.17" y="195.27" width="6.59" height="8.24"/><rect class="cls-6" x="215.88" y="195.27" width="6.59" height="8.24"/><rect class="cls-6" x="205.17" y="215.86" width="6.59" height="8.24"/><rect class="cls-6" x="215.88" y="215.86" width="6.59" height="8.24"/><rect class="cls-6" x="23.06" y="51.13" width="6.59" height="8.24"/><rect class="cls-6" x="33.76" y="51.13" width="6.59" height="8.24"/><rect class="cls-6" x="23.06" y="71.72" width="6.59" height="8.24"/><rect class="cls-6" x="33.76" y="71.72" width="6.59" height="8.24"/><rect class="cls-6" x="23.06" y="92.31" width="6.59" height="8.24"/><rect class="cls-6" x="33.76" y="92.31" width="6.59" height="8.24"/><rect class="cls-6" x="23.06" y="112.91" width="6.59" height="8.24"/><rect class="cls-6" x="33.76" y="112.91" width="6.59" height="8.24"/><rect class="cls-6" x="23.06" y="133.5" width="6.59" height="8.24"/><rect class="cls-6" x="33.76" y="133.5" width="6.59" height="8.24"/><rect class="cls-6" x="23.06" y="154.09" width="6.59" height="8.24"/><rect class="cls-6" x="33.76" y="154.09" width="6.59" height="8.24"/><rect class="cls-6" x="23.06" y="174.68" width="6.59" height="8.24"/><rect class="cls-6" x="33.76" y="174.68" width="6.59" height="8.24"/><rect class="cls-6" x="23.06" y="195.27" width="6.59" height="8.24"/><rect class="cls-6" x="33.76" y="195.27" width="6.59" height="8.24"/><rect class="cls-6" x="23.06" y="215.86" width="6.59" height="8.24"/><rect class="cls-6" x="33.76" y="215.86" width="6.59" height="8.24"/><rect class="cls-6" x="461.15" y="215.86" width="6.59" height="8.24"/><polyline class="cls-6" points="80.82 49.12 58.69 49.12 46.68 64.3 46.68 219.22"/><line class="cls-6" x1="64.42" y1="68.09" x2="51.1" y2="68.09"/><line class="cls-6" x1="80.82" y1="68.09" x2="73.94" y2="68.09"/><line class="cls-6" x1="80.82" y1="85.8" x2="51.1" y2="85.8"/><line class="cls-6" x1="80.82" y1="103.5" x2="51.1" y2="103.5"/><line class="cls-6" x1="80.82" y1="121.21" x2="51.1" y2="121.21"/><line class="cls-6" x1="70.58" y1="138.91" x2="51.1" y2="138.91"/><line class="cls-6" x1="80.82" y1="138.91" x2="75.62" y2="138.91"/><line class="cls-6" x1="80.82" y1="156.62" x2="51.1" y2="156.62"/><line class="cls-6" x1="66.66" y1="174.32" x2="51.1" y2="174.32"/><line class="cls-6" x1="80.82" y1="174.32" x2="73.94" y2="174.32"/><line class="cls-6" x1="80.82" y1="192.03" x2="51.1" y2="192.03"/><line class="cls-6" x1="80.82" y1="209.74" x2="51.1" y2="209.74"/><line class="cls-6" x1="420.39" y1="42.16" x2="470.98" y2="42.16"/><polyline class="cls-6" points="366.64 73.1 366.64 69.35 376.13 69.35 376.13 63.66 390.67 63.66 390.67 72.52"/></g></g><polygon class="cls-5" points="234.27 35.07 315.9 35.07 315.9 153.2 315.9 163.84 319.73 172.21 307.3 163.84 234.27 163.84 234.27 35.07"/><polygon class="cls-1" points="238.32 31.24 319.95 31.24 319.95 149.37 319.95 160.01 319.95 172.21 311.35 160.01 238.32 160.01 238.32 31.24"/><rect class="cls-7" x="238.32" y="31.24" width="81.63" height="8.41"/><path class="cls-5" d="M303.52,35.56c0-.97-.79-1.76-1.76-1.76-.97,0-1.76,.79-1.76,1.76,0,.97,.79,1.76,1.76,1.76h0c.97,0,1.75-.78,1.75-1.75h0Z"/><path class="cls-1" d="M310.3,35.56c0-.97-.79-1.76-1.76-1.76-.97,0-1.76,.79-1.76,1.76s.79,1.76,1.76,1.76c.97,0,1.75-.77,1.76-1.74,0,0,0-.01,0-.02Z"/><path class="cls-1" d="M317.08,35.56c0-.97-.79-1.76-1.76-1.76-.97,0-1.76,.79-1.76,1.76s.79,1.76,1.76,1.76c.97,0,1.75-.77,1.76-1.74,0,0,0-.01,0-.02Z"/><rect class="cls-5" x="255.46" y="121.66" width="47.35" height="18.01" rx="3.52" ry="3.52"/><path class="cls-2" d="M267.03,135.01c-.55,.03-1.09-.1-1.57-.37-.39-.24-.69-.61-.84-1.05-.17-.53-.26-1.08-.25-1.63v-3.46c0-.55,.08-1.09,.25-1.61,.16-.42,.45-.77,.84-1,1-.48,2.15-.48,3.15,0,.39,.23,.68,.58,.84,1,.18,.52,.26,1.06,.25,1.61v3.46c.01,.54-.07,1.09-.25,1.6-.15,.44-.45,.81-.84,1.06-.48,.27-1.03,.41-1.58,.39Zm0-1.25c.22,.02,.44-.05,.62-.18,.14-.14,.23-.32,.27-.51,.05-.23,.07-.46,.07-.69v-4.27c0-.24-.02-.47-.07-.7-.05-.17-.14-.33-.27-.45-.38-.23-.85-.23-1.23,0-.14,.13-.24,.3-.27,.49-.05,.23-.07,.46-.07,.7v4.27c0,.23,.02,.46,.06,.69,.03,.2,.12,.38,.27,.51,.18,.12,.4,.17,.62,.14Z"/><path class="cls-2" d="M270.95,134.88v-9.27h2.22c.54-.01,1.08,.07,1.59,.23,.41,.13,.77,.4,1,.76,.25,.44,.37,.95,.34,1.46,0,.34-.04,.67-.11,1-.05,.28-.17,.54-.34,.76-.18,.22-.42,.38-.68,.49l1.29,4.56h-1.7l-1.12-4.24h-.79v4.24h-1.7Zm1.7-5.3h.52c.27,0,.54-.04,.79-.14,.19-.1,.34-.26,.41-.46,.1-.26,.14-.53,.13-.81,.02-.35-.07-.7-.26-1-.26-.27-.63-.4-1-.35h-.59v2.76Z"/><path class="cls-2" d="M277.35,134.88v-9.27h2.18c.61-.03,1.21,.08,1.77,.31,.41,.19,.73,.53,.91,.95,.19,.52,.28,1.08,.26,1.63v3.38c.01,.57-.07,1.14-.26,1.68-.17,.43-.49,.79-.9,1-.54,.24-1.12,.35-1.71,.32h-2.25Zm1.69-1.18h.52c.29,.02,.58-.05,.83-.2,.18-.15,.29-.37,.31-.6,.04-.33,.06-.67,.06-1v-3.55c0-.3-.02-.6-.08-.9-.04-.2-.16-.38-.33-.5-.25-.13-.54-.19-.82-.17h-.49v6.92Z"/><path class="cls-2" d="M283.72,134.88v-9.27h3.93v1.19h-2.2v2.67h1.73v1.18h-1.73v3.06h2.2v1.17h-3.93Z"/><path class="cls-2" d="M288.65,134.88v-9.27h2.22c.54-.01,1.07,.07,1.58,.23,.41,.13,.77,.4,1,.76,.24,.45,.36,.95,.33,1.46,0,.34-.03,.67-.1,1-.06,.28-.18,.54-.35,.76-.18,.22-.41,.39-.68,.49l1.29,4.56h-1.69l-1.12-4.24h-.78v4.24h-1.7Zm1.69-5.3h.53c.27,.01,.53-.04,.78-.14,.19-.1,.34-.26,.42-.46,.09-.26,.13-.54,.12-.81,.02-.35-.07-.7-.25-1-.26-.27-.63-.4-1-.35h-.62l.02,2.76Z"/><line class="cls-11" x1="275.64" y1="8.44" x2="275.64" y2="23.86"/><line class="cls-11" x1="336.01" y1="17.83" x2="325.28" y2="27.89"/><line class="cls-11" x1="226" y1="17.83" x2="236.73" y2="27.89"/><line class="cls-11" x1="215.27" y1="70.82" x2="228.68" y2="70.82"/><line class="cls-11" x1="329.3" y1="70.82" x2="342.72" y2="70.82"/><g id="freepik--Character--inject-42"><path class="cls-3" d="M314.65,260.78s-2-1.47-2.59-.65-.11,1.84,1.05,3,5.23,4.31,6.51,4.22,1.49-1.56,1.49-1.56l-6.46-5.01Z"/><path class="cls-3" d="M333.65,256.28s-4.79-.55-6.69,0-7.47,7.34-7.47,7.34c0,0-3.87-2.38-4.9-2.84s-2.1,.09-1.32,1.19,6.09,5,7.57,5.32,13.56-4.5,13.56-4.5l-.75-6.51Z"/><path class="cls-3" d="M324.48,258.12s-4.19,.64-5.29,.73-3.16-1.1-3,.09c.16,1.29,1.28,2.25,2.58,2.2l2.76,.19,2.95-3.21Z"/><polygon class="cls-3" points="335.11 254.82 332.91 255.92 334.96 265 337.99 263.65 335.11 254.82"/><polygon class="cls-10" points="361.16 241.5 335.11 254.82 338.43 265.74 363.93 259.62 361.16 241.5"/><path class="cls-10" d="M366.65,184.06c-3.24,13.77-5.31,27.78-6.2,41.9-1.06,21.2-.18,53.18-.18,53.18l8.93-.55s-2.71-40.2-1.56-59.39,3.48-36.92,3.48-36.92c-1.62,.2-3.16,.81-4.47,1.78Z"/><path class="cls-3" d="M373.65,397.68l-10.2,7.75s-4.65,2.61-4.49,3.75-.88,.57,.16,1.14,5.38,.68,5.38,.68h28.29l-1.29-11.25-13.27-4.43-4.58,2.36Z"/><path class="cls-12" d="M410.3,274.37l-7.49,62s3.36,15.38,2.66,19.62-7.45,43-7.45,43c.2,1.93,.29,3.86,.26,5.8-.1,.74-.14,1.48-.13,2.23,0,0-13.16-10.26-15.6-9.81-2.17,.51-4.3,1.18-6.37,2l-2.53-1.53c-.47-1.28-.61-2.65-.4-4,.35-2.23,3-6.92,3-8s-9.31-43.71-9.85-45.94-.48-10.7-.23-15.16-1.79-54.62-1.79-54.62l47.18-2.27-1.26,6.68Z"/><path class="cls-3" d="M376.92,399.18l-8.82,6s-7.17,2.28-7.49,2.73,.1,2.27,.46,2.73,36.38,.22,36.83,.11,.25-3.72,.25-3.72c0,0-14.08-10.71-16-10.6s-5.23,2.75-5.23,2.75Z"/><path class="cls-3" d="M366.65,184.06s-2.68,13.71-3.6,25.77c-.92,12.06,1.26,61.23,1.26,61.23l7,.18s-4.34-35.82-3.55-50.81,5.15-32,5.3-32.89-.41-7.31-6.41-3.48Z"/><path class="cls-10" d="M383.85,168.53s17.93,15.46,20,21.67,3.28,46.13,3.28,46.13l8.6,40.63s-18.91,6.39-30.41,6.58c-6.2,.19-12.4-.24-18.52-1.28,0,0-3.26-48.43-1.53-63.05s5.41-34.36,5.54-35.64,4.48-10.11,13.04-15.04Z"/><path class="cls-10" d="M371.17,259.6s7,2.46,18.19,.62l.21,3.06c-2.55,.58-5.16,.85-7.77,.82-3.56-.08-7.11-.42-10.63-1"/><polygon class="cls-3" points="367.06 178.25 362.09 180.77 361.55 189 364.63 184.43 369.91 187.9 367.06 178.25"/><path class="cls-3" d="M339.21,142.17s1.84,8.64,2.05,9.66,3.06,3.44,3.06,3.44c0,0,.35,10.08,1,10.5s3.69,0,3.69,0c0,0,5.52,9.82,6.52,10.84s6.56-1.74,7.71-2.45l1.16-.72,4.19,7.6,13.06-15.44-5-10.49s2.51-11.85,1.31-16.39-7.8-12.4-9.73-13.53-20.7,4.71-23.24,5.65c-1.3,.43-2.54,1.04-3.68,1.79,0,0,3.55-4.93,.95-4.24s-3.89,3.93-3.89,3.93c0,0,.06-4.75-1.81-1.81s.17,8.39,.17,8.39c0,0-3-1.09-1.69,.67s4.17,2.6,4.17,2.6Z"/><path class="cls-12" d="M335.01,139.57c-1.28-1.76,1.69-.67,1.69-.67,0,0-2-5.45-.17-8.39s1.81,1.81,1.81,1.81c0,0,1.29-3.24,3.89-3.93s-.95,4.24-.95,4.24c1.14-.75,2.37-1.36,3.67-1.79,2.55-.94,14.37-9.25,22.7-6.54,7.32,2.39,9.08,9.88,10.28,14.42s-1.28,16.39-1.28,16.39l.71,1.46c-.33,.65-.79,1.22-1.36,1.67-1.06,.57-4.74-.8-4.74-.8,0,0,2.35-3.14,2.62-5s-.41-5.72-2.89-6.37-4.78,3.42-5,4.37-.6,.89-2.07,.73-1.67-5.51-1.75-5.89-6.23-1.09-7.57-1.92,.25-3.19,.44-4.8-1.94-1.79-4.51-1-11.32,4.61-11.32,4.61c0,0-2.92-.84-4.2-2.6Z"/><path class="cls-13" d="M348.44,156.16c.42,.8,1.07,1.3,1.45,1.11s.34-1-.08-1.77-1.07-1.3-1.45-1.11-.34,.97,.08,1.77Z"/><path class="cls-11" d="M349.44,150.27s-2.21-1.22-5,1.34"/><path class="cls-11" d="M357.3,163.96c-.29,1.96-1.68,3.57-3.58,4.13"/><path class="cls-11" d="M346.02,156.29c-.95-2.34-.24-4.78,1.58-5.45s4.06,.7,5,3.05,.24,4.78-1.58,5.45-4.06-.7-5-3.05Z"/><line class="cls-11" x1="352.61" y1="153.89" x2="366.29" y2="147.77"/><polygon class="cls-12" points="364.36 173.43 368.31 170.42 367.06 178.25 364.36 173.43"/><polygon class="cls-3" points="381.78 163.23 364.65 180.77 369.91 187.9 385.33 168.9 381.78 163.23"/><path class="cls-12" d="M321.3,179.63c.4-.18,.86,0,1.05,.39l8.81,18.06-2.43-1-7.76-16.45c-.18-.37-.03-.81,.33-1h0Z"/><path class="cls-3" d="M328.87,192.15l2.2,1.12c1.36-.26,2.75-.36,4.14-.3,1.32,.47,2.28,1.62,2.51,3,.05,1.11,2.13,9.64,2.13,9.64l4.76,5.2-7.33,5.15s-5.18-4.67-5.41-4.82c-1.38-.71-2.66-1.58-3.83-2.6-.78-1-1.94-6.9-1.94-6.9,0,0-3.58-7.12-2.93-9.05s2.85-1.11,2.85-1.11l2.71,5.59,5.73,2.35s.14-1.78-.31-2-3.23-.89-3.23-.89l-2.05-4.38Z"/><polygon class="cls-3" points="346.47 211.48 342.27 207.46 335.87 215.68 339.47 218.61 346.47 211.48"/><path class="cls-10" d="M395.77,211.34s-4.67,17.32-8.6,27.55-7.78,14.08-9.44,13.89-40.22-33.08-40.22-33.08l8.35-9.5,21.49,14.62s7.39-35.09,7.54-35.82,1.46-4.2,6.91-4.94c2.98-.51,6.05-.12,8.82,1.1"/></g><g id="freepik--Floor--inject-42"><line class="cls-9" x1="478.06" y1="411" x2=".82" y2="411"/></g><g><g><polygon class="cls-13" points="152.07 407.58 168.08 407.38 205.5 251.49 189.48 251.69 152.07 407.58"/><path class="cls-13" d="M125.6,411.05h71.83c0-4.2-3.41-7.61-7.61-7.61h-56.61c-4.2,0-7.61,3.41-7.61,7.61h0Z"/></g><polygon class="cls-13" points="291.54 338.87 284.64 304.28 284.64 304.28 284.63 304.2 261.67 189.09 38.49 189.12 68.37 338.9 110.76 338.89 110.76 338.89 111.16 338.89 158.6 338.89 158.74 338.89 158.74 338.89 205.98 338.88 206.3 338.88 206.3 338.88 253.43 338.87 253.43 338.87 253.86 338.87 253.86 338.87 291.54 338.87"/><g><polygon class="cls-8" points="295.36 335.91 72.19 335.94 42.31 189.12 265.49 189.09 295.36 335.91"/><g><polygon class="cls-13" points="115.01 335.93 114.58 335.93 84.78 189.51 85.21 189.51 115.01 335.93"/><polygon class="cls-13" points="162.56 335.93 162.14 335.93 132.34 189.5 132.77 189.5 162.56 335.93"/><polygon class="cls-13" points="210.12 335.92 209.7 335.92 179.9 189.5 180.33 189.5 210.12 335.92"/><polygon class="cls-13" points="257.68 335.91 257.25 335.91 227.46 189.49 227.89 189.49 257.68 335.91"/><polygon class="cls-13" points="272.58 223.93 49.4 223.96 49.32 223.56 272.5 223.53 272.58 223.93"/><polygon class="cls-13" points="280.52 262.97 57.35 263 57.26 262.6 280.44 262.56 280.52 262.97"/><polygon class="cls-13" points="288.46 302 65.29 302.03 65.21 301.63 288.38 301.6 288.46 302"/></g><g><polygon class="cls-13" points="92.85 228.07 87.37 223.76 91.09 219.44 96.56 223.76 92.85 228.07"/><polygon class="cls-13" points="100.83 267.31 95.36 262.99 99.07 258.68 104.54 262.99 100.83 267.31"/><polygon class="cls-13" points="140.62 228.07 135.14 223.75 138.86 219.43 144.33 223.75 140.62 228.07"/><polygon class="cls-13" points="148.6 267.3 143.13 262.99 146.84 258.67 152.32 262.98 148.6 267.3"/><polygon class="cls-13" points="188.18 228.06 182.7 223.74 186.42 219.43 191.89 223.74 188.18 228.06"/><polygon class="cls-13" points="235.31 228.05 229.83 223.74 233.55 219.42 239.02 223.74 235.31 228.05"/><polygon class="cls-13" points="108.73 306.14 103.26 301.82 106.97 297.51 112.45 301.82 108.73 306.14"/><polygon class="cls-13" points="156.5 306.13 151.03 301.82 154.75 297.5 160.22 301.82 156.5 306.13"/><polygon class="cls-13" points="204.06 306.13 198.59 301.81 202.3 297.5 207.78 301.81 204.06 306.13"/><polygon class="cls-13" points="251.19 306.12 245.72 301.81 249.44 297.49 254.91 301.8 251.19 306.12"/><polygon class="cls-13" points="243.29 267.29 237.82 262.97 241.53 258.66 247.01 262.97 243.29 267.29"/><polygon class="cls-13" points="196.16 267.29 190.69 262.98 194.4 258.66 199.87 262.98 196.16 267.29"/></g></g></g><g><g><polygon class="cls-13" points="276.66 103.68 279.32 103.64 285.55 77.72 282.88 77.75 276.66 103.68"/><path class="cls-13" d="M272.26,104.25h11.95c0-.7-.57-1.27-1.27-1.27h-9.42c-.7,0-1.27,.57-1.27,1.27h0Z"/></g><polygon class="cls-13" points="299.86 92.25 298.71 86.5 298.71 86.5 298.71 86.48 294.89 67.34 257.77 67.35 262.74 92.26 269.79 92.25 269.79 92.25 269.86 92.25 277.75 92.25 277.77 92.25 277.77 92.25 285.63 92.25 285.68 92.25 285.68 92.25 293.52 92.25 293.52 92.25 293.59 92.25 293.59 92.25 299.86 92.25"/><g><polygon class="cls-8" points="300.49 91.76 263.38 91.76 258.41 67.35 295.52 67.34 300.49 91.76"/><g><polygon class="cls-13" points="270.5 91.76 270.43 91.76 265.47 67.41 265.54 67.41 270.5 91.76"/><polygon class="cls-13" points="278.41 91.76 278.34 91.76 273.38 67.41 273.45 67.41 278.41 91.76"/><polygon class="cls-13" points="286.32 91.76 286.25 91.76 281.29 67.41 281.36 67.41 286.32 91.76"/><polygon class="cls-13" points="294.23 91.76 294.15 91.76 289.2 67.41 289.27 67.41 294.23 91.76"/><polygon class="cls-13" points="296.7 73.14 259.59 73.14 259.57 73.07 296.69 73.07 296.7 73.14"/><polygon class="cls-13" points="298.02 79.63 260.91 79.63 260.89 79.57 298.01 79.56 298.02 79.63"/><polygon class="cls-13" points="299.35 86.12 262.23 86.12 262.22 86.06 299.33 86.05 299.35 86.12"/></g><g><polygon class="cls-13" points="266.81 73.82 265.9 73.11 266.52 72.39 267.43 73.11 266.81 73.82"/><polygon class="cls-13" points="268.14 80.35 267.23 79.63 267.85 78.91 268.76 79.63 268.14 80.35"/><polygon class="cls-13" points="274.76 73.82 273.85 73.11 274.46 72.39 275.37 73.1 274.76 73.82"/><polygon class="cls-13" points="276.08 80.35 275.17 79.63 275.79 78.91 276.7 79.63 276.08 80.35"/><polygon class="cls-13" points="282.67 73.82 281.76 73.1 282.37 72.39 283.28 73.1 282.67 73.82"/><polygon class="cls-13" points="290.5 73.82 289.59 73.1 290.21 72.38 291.12 73.1 290.5 73.82"/><polygon class="cls-13" points="269.45 86.81 268.54 86.09 269.16 85.37 270.07 86.09 269.45 86.81"/><polygon class="cls-13" points="277.4 86.81 276.49 86.09 277.11 85.37 278.02 86.09 277.4 86.81"/><polygon class="cls-13" points="285.31 86.8 284.4 86.09 285.02 85.37 285.93 86.09 285.31 86.8"/><polygon class="cls-13" points="293.15 86.8 292.24 86.09 292.85 85.37 293.76 86.09 293.15 86.8"/><polygon class="cls-13" points="291.83 80.35 290.92 79.63 291.54 78.91 292.45 79.63 291.83 80.35"/><polygon class="cls-13" points="283.99 80.35 283.08 79.63 283.7 78.91 284.61 79.63 283.99 80.35"/></g></g></g></svg>