<svg xmlns="http://www.w3.org/2000/svg" viewBox="0 0 500 500"><g id="freepik--background-complete--inject-263"><rect x="416.78" y="398.49" width="33.12" height="0.25" style="fill:#ebebeb"></rect><rect x="322.53" y="401.21" width="8.69" height="0.25" style="fill:#ebebeb"></rect><rect x="396.59" y="389.21" width="19.19" height="0.25" style="fill:#ebebeb"></rect><rect x="52.46" y="390.89" width="43.19" height="0.25" style="fill:#ebebeb"></rect><rect x="104.56" y="390.89" width="6.33" height="0.25" style="fill:#ebebeb"></rect><rect x="131.47" y="395.11" width="93.68" height="0.25" style="fill:#ebebeb"></rect><path d="M238.4,337.8H45.3a5.71,5.71,0,0,1-5.71-5.71V60.66A5.71,5.71,0,0,1,45.3,55H238.4a5.71,5.71,0,0,1,5.71,5.71V332.09A5.71,5.71,0,0,1,238.4,337.8ZM45.3,55.2a5.47,5.47,0,0,0-5.46,5.46V332.09a5.47,5.47,0,0,0,5.46,5.46H238.4a5.47,5.47,0,0,0,5.46-5.46V60.66a5.47,5.47,0,0,0-5.46-5.46Z" style="fill:#ebebeb"></path><path d="M454.7,337.8H261.6a5.71,5.71,0,0,1-5.71-5.71V60.66A5.71,5.71,0,0,1,261.6,55H454.7a5.71,5.71,0,0,1,5.71,5.71V332.09A5.71,5.71,0,0,1,454.7,337.8ZM261.6,55.2a5.47,5.47,0,0,0-5.46,5.46V332.09a5.47,5.47,0,0,0,5.46,5.46H454.7a5.47,5.47,0,0,0,5.46-5.46V60.66a5.47,5.47,0,0,0-5.46-5.46Z" style="fill:#ebebeb"></path><rect y="382.4" width="500" height="0.25" style="fill:#ebebeb"></rect><rect x="132.66" y="71.37" width="71.25" height="241.71" style="fill:#fafafa"></rect><rect x="132.52" y="71.37" width="71.25" height="241.71" style="fill:#fff;opacity:0.1"></rect><g style="opacity:0.30000000000000004"><polygon points="196.81 71.37 174.09 71.37 149.24 313.08 171.95 313.08 196.81 71.37" style="fill:#fff"></polygon></g><rect x="132.07" y="68.31" width="72.45" height="6.13" style="fill:#e0e0e0"></rect><rect x="132.07" y="310.97" width="72.45" height="6.13" style="fill:#ebebeb"></rect><path d="M207.33,322.33H128.79v-260h78.54Zm-72.55-6h66.56v-248H134.78Z" style="fill:#ebebeb"></path><rect x="55.05" y="71.37" width="71.25" height="241.71" style="fill:#fafafa"></rect><rect x="60.41" y="173.73" width="55.15" height="46.28" style="fill:#e6e6e6"></rect><rect x="63.94" y="179.5" width="7.06" height="7.06" style="fill:#fafafa"></rect><rect x="77.62" y="179.5" width="7.06" height="7.06" style="fill:#fafafa"></rect><rect x="91.3" y="179.5" width="7.06" height="7.06" style="fill:#fafafa"></rect><rect x="104.97" y="179.5" width="7.06" height="7.06" style="fill:#fafafa"></rect><rect x="63.94" y="192.33" width="7.06" height="7.06" style="fill:#fafafa"></rect><rect x="77.62" y="192.33" width="7.06" height="7.06" style="fill:#fafafa"></rect><rect x="91.3" y="192.33" width="7.06" height="7.06" style="fill:#fafafa"></rect><rect x="104.97" y="192.33" width="7.06" height="7.06" style="fill:#e6e6e6"></rect><rect x="63.94" y="205.15" width="7.06" height="7.06" style="fill:#e6e6e6"></rect><rect x="77.62" y="205.15" width="7.06" height="7.06" style="fill:#e6e6e6"></rect><rect x="91.3" y="205.15" width="7.06" height="7.06" style="fill:#fafafa"></rect><rect x="104.97" y="205.15" width="7.06" height="7.06" style="fill:#e6e6e6"></rect><rect x="60.41" y="219.43" width="55.15" height="46.28" style="fill:#e6e6e6"></rect><rect x="63.94" y="225.19" width="7.06" height="7.06" style="fill:#fafafa"></rect><rect x="77.62" y="225.19" width="7.06" height="7.06" style="fill:#fafafa"></rect><rect x="91.3" y="225.19" width="7.06" height="7.06" style="fill:#fafafa"></rect><rect x="104.97" y="225.19" width="7.06" height="7.06" style="fill:#fafafa"></rect><rect x="63.94" y="238.02" width="7.06" height="7.06" style="fill:#fafafa"></rect><rect x="77.62" y="238.02" width="7.06" height="7.06" style="fill:#fafafa"></rect><rect x="91.3" y="238.02" width="7.06" height="7.06" style="fill:#fafafa"></rect><rect x="104.97" y="238.02" width="7.06" height="7.06" style="fill:#e6e6e6"></rect><rect x="63.94" y="250.85" width="7.06" height="7.06" style="fill:#e6e6e6"></rect><rect x="77.62" y="250.85" width="7.06" height="7.06" style="fill:#e6e6e6"></rect><rect x="91.3" y="250.85" width="7.06" height="7.06" style="fill:#fafafa"></rect><rect x="104.97" y="250.85" width="7.06" height="7.06" style="fill:#e6e6e6"></rect><rect x="60.41" y="265.12" width="55.15" height="46.28" style="fill:#e6e6e6"></rect><rect x="63.94" y="270.89" width="7.06" height="7.06" style="fill:#fafafa"></rect><rect x="77.62" y="270.89" width="7.06" height="7.06" style="fill:#fafafa"></rect><rect x="91.3" y="270.89" width="7.06" height="7.06" style="fill:#fafafa"></rect><rect x="104.97" y="270.89" width="7.06" height="7.06" style="fill:#fafafa"></rect><rect x="63.94" y="283.72" width="7.06" height="7.06" style="fill:#fafafa"></rect><rect x="77.62" y="283.72" width="7.06" height="7.06" style="fill:#fafafa"></rect><rect x="91.3" y="283.72" width="7.06" height="7.06" style="fill:#fafafa"></rect><rect x="104.97" y="283.72" width="7.06" height="7.06" style="fill:#e6e6e6"></rect><rect x="63.94" y="296.55" width="7.06" height="7.06" style="fill:#e6e6e6"></rect><rect x="77.62" y="296.55" width="7.06" height="7.06" style="fill:#e6e6e6"></rect><rect x="91.3" y="296.55" width="7.06" height="7.06" style="fill:#fafafa"></rect><rect x="104.97" y="296.55" width="7.06" height="7.06" style="fill:#e6e6e6"></rect><rect x="54.11" y="71.37" width="71.25" height="241.71" style="fill:#fff;opacity:0.1"></rect><g style="opacity:0.30000000000000004"><polygon points="119.2 71.37 96.48 71.37 71.63 313.08 94.34 313.08 119.2 71.37" style="fill:#fff"></polygon></g><rect x="54.46" y="68.31" width="72.45" height="6.13" style="fill:#e0e0e0"></rect><rect x="54.46" y="310.97" width="72.45" height="6.13" style="fill:#ebebeb"></rect><path d="M129.72,322.33H51.18v-260h78.54Zm-72.55-6h66.56v-248H57.17Z" style="fill:#ebebeb"></path><path d="M236.37,354.61l-.8.1c0-.41-4.91-41.09,5.12-74.33,10-33,3.1-54.1,3-54.3l.77-.26c.07.21,7,21.51-3,54.79C231.48,313.69,236.32,354.21,236.37,354.61Z" style="fill:#e0e0e0"></path><path d="M245.15,230.61a12.64,12.64,0,0,0-6.76-4.17l.19-.79a13.43,13.43,0,0,1,7.19,4.44Z" style="fill:#e0e0e0"></path><rect x="246.3" y="234.58" width="2.65" height="0.81" transform="translate(-83.56 152.22) rotate(-29.47)" style="fill:#e0e0e0"></rect><path d="M244.28,252.73a19.19,19.19,0,0,0-10.38-10.08l.3-.74A20,20,0,0,1,245,252.4Z" style="fill:#e0e0e0"></path><path d="M242.12,278.14h-.81a11.08,11.08,0,0,0-4.18-8.49l.5-.63A11.91,11.91,0,0,1,242.12,278.14Z" style="fill:#e0e0e0"></path><path d="M240.32,284.64l-.76-.29a8.12,8.12,0,0,1,4.6-4.54l.28.76A7.24,7.24,0,0,0,240.32,284.64Z" style="fill:#e0e0e0"></path><path d="M235.09,325.87l-.63-.51c1-1.19,1.73-5.7,2.13-8.12.09-.58.17-1.07.24-1.43l.8.15c-.07.35-.15.84-.25,1.41C236.79,321,236.12,324.62,235.09,325.87Z" style="fill:#e0e0e0"></path><path d="M234.62,338.82a8,8,0,0,0-7.71-5.32l0-.81a8.81,8.81,0,0,1,8.52,5.88Z" style="fill:#e0e0e0"></path><rect x="233.98" y="350.3" width="8.54" height="0.81" transform="translate(-182.01 294.66) rotate(-48.21)" style="fill:#e0e0e0"></rect><path d="M244.81,305.75c1.29,4.17-7.7,12.12-7.7,12.12s-11.91-1.49-13.2-5.67,1.73-11,7.5-12.78S243.52,301.58,244.81,305.75Z" style="fill:#f0f0f0"></path><path d="M254.79,255.11c-1.14,4.43-9.66,7.58-9.66,7.58s-5.94-6.87-4.8-11.3,5.85-9.32,9.84-8.29S255.93,250.68,254.79,255.11Z" style="fill:#ebebeb"></path><path d="M220.62,321.33c5.34,2.09,8.62,11.54,8.62,11.54s-8.81,4.75-14.16,2.67-11-8-9.48-11.87S215.27,319.25,220.62,321.33Z" style="fill:#f5f5f5"></path><path d="M232.34,269.3a11.44,11.44,0,0,0,3.65,2.07,3.89,3.89,0,0,0,3.9-.92c1.15-1.32.84-3.36.12-4.95-1.43-3.15-6.7-8.49-10.75-7C223.42,260.75,229.73,267.37,232.34,269.3Z" style="fill:#e6e6e6"></path><path d="M244.3,277.33c-.77.95-1.58,2.14-1.16,3.29a2.44,2.44,0,0,0,2.69,1.32,7.22,7.22,0,0,0,2.89-1.41c2.06-1.44,6.29-4.44,3.59-7.25S245.91,275.32,244.3,277.33Z" style="fill:#ebebeb"></path><path d="M227,237.33a2.1,2.1,0,0,0-1.92,1.56c-.18,1,.67,1.92,1.49,2.55,2,1.58,8.2,5.84,9.58,1.73C237.49,239.29,229.76,237,227,237.33Z" style="fill:#e0e0e0"></path><path d="M238.39,223.81c-1.27.12-2.54-.34-3.81-.26s-2.69,1.1-2.4,2.35,1.69,1.53,2.86,1.61a23.3,23.3,0,0,0,6-.42,1.89,1.89,0,0,0,1.22-.61c.51-.76-.31-1.78-1.19-2a13.06,13.06,0,0,1-2.66-.63Z" style="fill:#e6e6e6"></path><path d="M250.8,232.55c1.28,0,2.51-.51,3.79-.51s2.75.92,2.55,2.18-1.59,1.65-2.76,1.8a22.82,22.82,0,0,1-6,0,1.86,1.86,0,0,1-1.26-.53c-.56-.73.19-1.79,1-2.12a12.66,12.66,0,0,0,2.62-.81Z" style="fill:#f0f0f0"></path><path d="M249.55,326.51a1.75,1.75,0,0,1,1.08-.54,1.23,1.23,0,0,1,1.08,1.06,3.55,3.55,0,0,1-.2,1.61c-.87,2.89-10.57,23.84-12.81,20.08-1.32-2.23,1.93-9.59,2.89-11.68A30.27,30.27,0,0,1,249.55,326.51Z" style="fill:#f0f0f0"></path><path d="M243.74,224.6a11,11,0,0,1,3.13-4.65c1.54-1.11,4-1.19,5.1.34,1.25,1.71,0,4.31-1.91,5.22s-4.14.63-6.24.34c0-.31,0-.62,0-.93Z" style="fill:#e6e6e6"></path><path d="M250.52,382.55h0a93.5,93.5,0,0,1-31.4,0h0l-12.21-36h55.83Z" style="fill:#f0f0f0"></path><path d="M440.57,190.21a3.07,3.07,0,0,1-.63-.16c-4.11-1.36-10.35-7.78-15.67-16.5s-8.13-17.25-7.44-21.54v0a3.84,3.84,0,0,1,.83-2,.4.4,0,0,1,.07-.09,1.88,1.88,0,0,1,.51-.43,2.67,2.67,0,0,1,.66-.28,3.82,3.82,0,0,1,2.15.18,10.3,10.3,0,0,1,2.51,1.23c.58.38,1.19.83,1.82,1.34.35.29.72.6,1.09.93a66.95,66.95,0,0,1,17.15,28.19c.12.48.23,1,.33,1.43a18.33,18.33,0,0,1,.37,2.42,9.63,9.63,0,0,1-.1,2.74,3.44,3.44,0,0,1-1,2,1.44,1.44,0,0,1-.4.33,1.58,1.58,0,0,1-.44.19A3.25,3.25,0,0,1,440.57,190.21Z" style="fill:#ebebeb"></path><path d="M440.57,190.21l-.34-.55-11.49-18.91c-.3-.51-.61-1-.89-1.48l-10.73-17.65v0a4.2,4.2,0,0,1,.54-1.59,2.41,2.41,0,0,1,.36-.48l1.17-.71,3.51-2.13,1.6,2.6.28.47,1.09,1.81.8,1.32,17.15,28.19.62,1,1.2,2,.28.46,1.6,2.61-4.07,2.47-.84.52A3.25,3.25,0,0,1,440.57,190.21Z" style="fill:#ebebeb"></path><path d="M422.71,146.69c-3.46,2.11-.77,12.88,6,24.06s15.11,18.54,18.57,16.44.77-12.88-6-24.06S426.17,144.59,422.71,146.69Z" style="fill:#ebebeb"></path><path d="M422.71,146.69c-3.46,2.11-.77,12.88,6,24.06s15.11,18.54,18.57,16.44.77-12.88-6-24.06S426.17,144.59,422.71,146.69Z" style="fill:#fafafa"></path><path d="M424.52,149.12a1.16,1.16,0,0,0-.49.56c2.88,0,8.92,6.4,14.29,15.24s8.28,17.18,6.94,19.72a1.29,1.29,0,0,0,.72-.18c2.35-1.42-.51-10.51-6.44-20.27S426.86,147.69,424.52,149.12Z" style="fill:#ebebeb"></path><path d="M424.52,149.12a1.16,1.16,0,0,0-.49.56c2.88,0,8.92,6.4,14.29,15.24s8.28,17.18,6.94,19.72a1.29,1.29,0,0,0,.72-.18c2.35-1.42-.51-10.51-6.44-20.27S426.86,147.69,424.52,149.12Z" style="fill:#ebebeb;opacity:0.4"></path><path d="M381,93.14a2.85,2.85,0,0,1-.18.41c-1.41,2.61-6.5,6.07-13,8.62s-12.64,3.44-15.46,2.46h0a2.67,2.67,0,0,1-1.24-.8.13.13,0,0,1-.05-.06,1.34,1.34,0,0,1-.23-.4,2.08,2.08,0,0,1-.11-.48,2.67,2.67,0,0,1,.38-1.43,6.78,6.78,0,0,1,1.13-1.55,13.12,13.12,0,0,1,1.13-1.07c.23-.2.49-.41.76-.62a41.22,41.22,0,0,1,10.05-5.45A40.38,40.38,0,0,1,375.23,90l1-.06a13,13,0,0,1,1.68,0,6.44,6.44,0,0,1,1.84.4,2.37,2.37,0,0,1,1.23.89,1,1,0,0,1,.17.31,1.14,1.14,0,0,1,.07.32A2.12,2.12,0,0,1,381,93.14Z" style="fill:#ebebeb"></path><path d="M381,93.14l-.41.17-14.16,5.51-1.11.42-13.22,5.15h0a2.94,2.94,0,0,1-1-.55,2,2,0,0,1-.28-.3l-.34-.88-1-2.63,1.95-.77.35-.13,1.36-.52,1-.38L375.23,90l.78-.3,1.49-.58.34-.13,2-.77L381,91.26l.24.63A2.12,2.12,0,0,1,381,93.14Z" style="fill:#ebebeb"></path><path d="M349.47,100c1,2.59,8.62,2,17-1.2s14.34-8,13.33-10.6-8.61-2.06-17,1.2S348.46,97.42,349.47,100Z" style="fill:#ebebeb"></path><path d="M349.47,100c1,2.59,8.62,2,17-1.2s14.34-8,13.33-10.6-8.61-2.06-17,1.2S348.46,97.42,349.47,100Z" style="fill:#fafafa"></path><path d="M351.33,99.09a.82.82,0,0,0,.32.39c.35-1.94,5.39-5.27,12-7.84s12.61-3.55,14.16-2.34a.81.81,0,0,0,0-.51c-.68-1.76-7.17-.91-14.48,1.94S350.65,97.33,351.33,99.09Z" style="fill:#ebebeb"></path><path d="M351.33,99.09a.82.82,0,0,0,.32.39c.35-1.94,5.39-5.27,12-7.84s12.61-3.55,14.16-2.34a.81.81,0,0,0,0-.51c-.68-1.76-7.17-.91-14.48,1.94S350.65,97.33,351.33,99.09Z" style="fill:#ebebeb;opacity:0.4"></path><path d="M351.65,99.48c1.57,1.21,7.54.25,14.17-2.33s11.68-5.91,12-7.85c-1.55-1.21-7.51-.25-14.16,2.34S352,97.54,351.65,99.48Z" style="fill:#fafafa"></path><path d="M382.19,231.16a23.26,23.26,0,1,1,31.88,8.16A23.27,23.27,0,0,1,382.19,231.16Z" style="fill:#ebebeb"></path><path d="M379.79,232.59a23.26,23.26,0,1,1,31.87,8.15A23.27,23.27,0,0,1,379.79,232.59Z" style="fill:#ebebeb"></path><path d="M379.79,232.59a23.26,23.26,0,1,1,31.87,8.15A23.27,23.27,0,0,1,379.79,232.59Z" style="fill:#fafafa"></path><path d="M408.67,235.71a13.38,13.38,0,0,1-1.73.88,17.28,17.28,0,1,1,1.73-.88Z" style="fill:#ebebeb"></path><path d="M391.34,221.44c-2.54-3-1.58-6.53,2.31-9.31l-1.55-2.78,2.49-1.47,1.55,2.78a16.18,16.18,0,0,1,7.2-1.68l.7,3.76a13.26,13.26,0,0,0-6.06,1.2l2.38,4.27c2.85-.74,6.1-1.42,8.41,1.28,2.54,3,1.55,6.58-2.45,9.36l1.55,2.78-2.49,1.47-1.57-2.8a14.61,14.61,0,0,1-5.67,1.44l-.86-3.66a11.35,11.35,0,0,0,4.71-1l-2.49-4.44C396.69,223.35,393.54,224,391.34,221.44Zm11.06.38,2,3.64c1.2-1.09,1.41-2.25.71-3.11C404.55,221.65,403.58,221.62,402.4,221.82Zm-7.52-3.35c.55.65,1.47.71,2.59.48l-2-3.45C394.39,216.54,394.15,217.62,394.88,218.47Z" style="fill:#fafafa"></path><path d="M429,104.39c4,8.1-.83,18.61-10.73,23.48s-21.16,2.25-25.15-5.86.83-18.61,10.73-23.48S425,96.29,429,104.39Z" style="fill:#ebebeb"></path><path d="M427.41,101.16c4,8.11-.82,18.62-10.73,23.49s-21.16,2.24-25.14-5.86.82-18.62,10.73-23.48S423.43,93.06,427.41,101.16Z" style="fill:#ebebeb"></path><path d="M427.41,101.16c4,8.11-.82,18.62-10.73,23.49s-21.16,2.24-25.14-5.86.82-18.62,10.73-23.48S423.43,93.06,427.41,101.16Z" style="fill:#fafafa"></path><path d="M422.79,103.11c.19.39.35.79.5,1.16,0,0,0,.06,0,.09,1.95,5.9-1.67,13-8.57,16.35s-14.71,2-18.2-3.2c0,0,0-.07-.05-.09-.2-.34-.42-.71-.61-1.1-3-6.06.63-14,8.06-17.61S419.81,97.05,422.79,103.11Z" style="fill:#ebebeb"></path><path d="M414.7,115.47c-1.17,3-4.15,4-7.71,2.55l-1.42,2.28-2.05-1,1.41-2.29a11.56,11.56,0,0,1-4.05-4.14l2.46-2.13a9.62,9.62,0,0,0,3.27,3.58l2.18-3.51c-1.66-1.6-3.44-3.5-2.38-6.26,1.17-3,4.2-4,7.81-2.48l1.42-2.28,2.05,1-1.42,2.31a10.28,10.28,0,0,1,3.28,3.21l-2.34,2.19a8.21,8.21,0,0,0-2.61-2.73l-2.27,3.66C414,111,415.71,112.85,414.7,115.47Zm-4.07-7.66,1.86-3c-1.27-.34-2.2,0-2.56.89S410,107.09,410.63,107.81Zm.51,6.58a1.9,1.9,0,0,0-.67-2l-1.75,2.84C409.92,115.57,410.81,115.25,411.14,114.39Z" style="fill:#fafafa"></path><path d="M325.53,102.43c-3.86,10-18.3,12.49-31.67,4.12S276.37,84,283.56,76.17c6.21-6.79,18.94-6.47,29.16-.07S328.86,93.84,325.53,102.43Z" style="fill:#ebebeb"></path><path d="M326.91,98.87c-3.63,9.37-17.5,11.54-30.43,3.45s-17.11-21.56-10.34-29c5.87-6.43,18.16-6,28.13.26S330.06,90.74,326.91,98.87Z" style="fill:#ebebeb"></path><path d="M326.91,98.87c-3.63,9.37-17.5,11.54-30.43,3.45s-17.11-21.56-10.34-29c5.87-6.43,18.16-6,28.13.26S330.06,90.74,326.91,98.87Z" style="fill:#fafafa"></path><path d="M321.93,95.4a12.44,12.44,0,0,1-.6,1.15s0,.06,0,.09c-3.66,5.6-13.16,6.3-21.82.89s-12.26-14.32-8.87-20.1c0,0,.08,0,.06-.08a11.58,11.58,0,0,1,.77-1c4.18-5,13.53-4.86,21.21,0S324.57,89.4,321.93,95.4Z" style="fill:#ebebeb"></path><path d="M313,88.05c1.76,2.74.75,5.69-2.49,7.73l1,2.49-2.05,1-1-2.49a11.62,11.62,0,0,1-5.74.84l-.27-3.26a9.53,9.53,0,0,0,4.82-.52l-1.54-3.83c-2.28.4-4.86.71-6.47-1.78-1.76-2.73-.72-5.72,2.61-7.76l-1-2.49,2.05-1,1,2.51a10.57,10.57,0,0,1,4.53-.76l.39,3.19a8.08,8.08,0,0,0-3.74.5l1.61,4C309,86,311.47,85.69,313,88.05Zm-8.6-1.23-1.31-3.26c-1,.82-1.27,1.8-.78,2.59C302.72,86.79,303.47,86.89,304.4,86.82ZM310,90.29c-.38-.6-1.09-.73-2-.63l1.26,3.1C310.26,92,310.52,91.07,310,90.29Z" style="fill:#fafafa"></path></g><g id="freepik--Shadow--inject-263"><ellipse id="freepik--path--inject-263" cx="250" cy="415.69" rx="193.89" ry="11.32" style="fill:#f5f5f5"></ellipse></g><g id="freepik--Character--inject-263"><path d="M228.34,415.81h0a3.22,3.22,0,0,1-3.23-3.23v-3.23h6.46v3.23A3.23,3.23,0,0,1,228.34,415.81Z" style="fill:#263238"></path><path d="M342.28,415.81h0a3.23,3.23,0,0,1-3.23-3.23v-3.23h6.46v3.23A3.22,3.22,0,0,1,342.28,415.81Z" style="fill:#263238"></path><path d="M401.12,415.81h0a3.23,3.23,0,0,1-3.23-3.23v-3.23h6.46v3.23A3.22,3.22,0,0,1,401.12,415.81Z" style="fill:#263238"></path><rect x="219.45" y="371.87" width="186.42" height="40.27" style="fill:#F4DAA0"></rect><rect x="219.45" y="371.87" width="186.42" height="40.27" style="fill:#fff;opacity:0.30000000000000004"></rect><rect x="347.93" y="371.87" width="57.76" height="40.28" style="opacity:0.2"></rect><path d="M417.35,271.64l-9.14,82.21c-.61,5.77-6.33,10.23-13.26,10.43a4.1,4.1,0,0,1-.5,0H279.22c-8.1,0-14.47-5.76-13.76-12.44l9.13-82.21c.62-5.91,6.6-10.45,13.77-10.45H404.12C412,259.46,418,265.1,417.35,271.64Z" style="fill:#F4DAA0"></path><path d="M417.35,271.64l-9.14,82.21c-.61,5.77-6.33,10.23-13.26,10.43a4.1,4.1,0,0,1-.5,0H279.22c-8.1,0-14.47-5.76-13.76-12.44l9.13-82.21c.62-5.91,6.6-10.45,13.77-10.45H404.12C412,259.46,418,265.1,417.35,271.64Z" style="fill:#fff;opacity:0.5"></path><path d="M423.68,271.64l-9.14,82.21c-.61,5.77-6.32,10.23-13.26,10.43-7.84-.24-13.91-5.89-13.22-12.42l9.13-82.21c.61-5.77,6.32-10.23,13.26-10.44C418.3,259.46,424.37,265.1,423.68,271.64Z" style="fill:#F4DAA0"></path><path d="M423.68,271.64l-9.14,82.21c-.61,5.77-6.32,10.23-13.26,10.43-7.84-.24-13.91-5.89-13.22-12.42l9.13-82.21c.61-5.77,6.32-10.23,13.26-10.44C418.3,259.46,424.37,265.1,423.68,271.64Z" style="fill:#fff;opacity:0.30000000000000004"></path><rect x="305.78" y="341.95" width="109.4" height="38.54" rx="14.59" style="fill:#F4DAA0"></rect><rect x="305.78" y="341.95" width="109.4" height="38.54" rx="14.59" style="fill:#fff;opacity:0.30000000000000004"></rect><rect x="209.78" y="341.95" width="153.45" height="38.54" rx="14.29" style="fill:#F4DAA0"></rect><rect x="209.78" y="341.95" width="153.45" height="38.54" rx="14.29" style="fill:#fff;opacity:0.6000000000000001"></rect><polygon points="237.7 383.19 231.04 404.55 223.37 404.05 228.99 375.86 237.7 383.19" style="fill:#ff8b7b"></polygon><path d="M318.35,301.1s-14-.48-24.26-3.6c0,0-4.28,8.85-7.68,12.11l-1.36,1.3s-40.17-9.77-45.66,2.86c-4.69,10.77-16.9,81.56-16.9,81.56h13.67s9.61-29.89,18.62-52c.48-1.17,2.14-7.39,2.14-7.39a117.72,117.72,0,0,0,52.2,9.5c4-.19,10-8.54,10.08-21.52A227.43,227.43,0,0,0,318.35,301.1Z" style="fill:#263238"></path><path d="M288.16,338c-11.23-5.23-26.7-19.25-33.88-24.49a15.89,15.89,0,0,0-5.6-2.71c6.33-1.25,14.4-1,21.33-.4L286.36,318l26.26,12.27,3.1,9.41c-1.23,5-4.41,5.69-7.25,5.83a122.23,122.23,0,0,1-32.88-3.16C276.9,342.46,299,343,288.16,338Z" style="opacity:0.2"></path><polygon points="208.78 347.4 194.35 361.47 188.94 357.03 200.15 340.81 208.78 347.4" style="fill:#ff8b7b"></polygon><path d="M190,355.09l6.29,5a.74.74,0,0,1,.21.91l-3.36,6.92a1.25,1.25,0,0,1-1.65.59l-.23-.14c-2.57-2.11-4.77-4.1-8-6.67-3.84-3-3.23-1.81-7.78-5.32-2.75-2.12-.79-5.6.48-4.84,5.79,3.52,8.54,3.1,12.07,2.83A3,3,0,0,1,190,355.09Z" style="fill:#263238"></path><path d="M187.43,354.79a.16.16,0,0,0,.17,0,.15.15,0,0,0,0-.18c-.12-.31-1.35-3.07-2.27-3.24a.56.56,0,0,0-.49.16h0a1,1,0,0,0-.27.8c.15,1,1.82,2,2.8,2.49Zm-2.07-3.13c.51.18,1.28,1.54,1.79,2.61-1.32-.74-2.14-1.49-2.22-2a.54.54,0,0,1,.18-.52.2.2,0,0,1,.19-.07Z" style="fill:#F4DAA0"></path><path d="M187.43,354.79l0,0a.15.15,0,0,0,.15-.07,4.58,4.58,0,0,0,.89-2.68,1.2,1.2,0,0,0-.51-.77h0a.59.59,0,0,0-.76,0c-.61.53-.29,2.67.1,3.47A.17.17,0,0,0,187.43,354.79Zm.23-3.32.13.1h0a.84.84,0,0,1,.38.57,3.89,3.89,0,0,1-.67,2.18c-.32-.92-.42-2.49-.07-2.81a.19.19,0,0,1,.21,0Z" style="fill:#F4DAA0"></path><path d="M301.74,299.11a111.79,111.79,0,0,0,33.49.67s11.54,44.4-21.43,44.35c-12.19,0-17.16-5.17-25-10-17.84-10.91-32.44-26.84-39.42-26-10.06,1.27-4.59,13.28-46,45.82L195,346.42s31.34-68.89,52-68.89c17.87,0,46,27.52,49.78,27.61S301.74,299.11,301.74,299.11Z" style="fill:#263238"></path><path d="M243.74,310.69h0c-2.53,1.09-4.44,2.6-5.35,4.7a28.92,28.92,0,0,0-1.52,5.93c-1.19,1.65-2.58,3.48-4.24,5.5C234,313.4,243.74,310.69,243.74,310.69Z" style="opacity:0.2"></path><path d="M221,404.36a.16.16,0,0,0-.21-.22c-.33.11-3.25,1.25-3.47,2.2a.56.56,0,0,0,.15.51h0a.91.91,0,0,0,.81.32c1-.1,2.14-1.79,2.72-2.78Zm-3.34,2c.22-.51,1.67-1.25,2.79-1.72-.83,1.33-1.64,2.14-2.21,2.2a.59.59,0,0,1-.54-.21.24.24,0,0,1-.06-.2Z" style="fill:#F4DAA0"></path><path d="M221,404.36l0,0a.16.16,0,0,0-.07-.16,4.67,4.67,0,0,0-2.73-1,1.22,1.22,0,0,0-.83.49h0a.61.61,0,0,0-.06.78c.52.66,2.75.42,3.6.06A.17.17,0,0,0,221,404.36Zm-3.43-.39.12-.13h0a.84.84,0,0,1,.6-.37,4,4,0,0,1,2.23.79c-1,.29-2.6.33-2.91-.06a.19.19,0,0,1,0-.22Z" style="fill:#F4DAA0"></path><path d="M223.31,402.86l8.28-1a.76.76,0,0,1,.82.51l2.63,7.54a1.29,1.29,0,0,1-.77,1.64,1.31,1.31,0,0,1-.27.06c-3.44.35-6.51.52-10.78,1-5,.59-3.69,1-9.61,1.83-3.56.46-4.7-3.52-3.21-3.9,6.83-1.68,8.54-4,10.92-6.81A3.12,3.12,0,0,1,223.31,402.86Z" style="fill:#263238"></path><path d="M257.72,217.65c-1.28-.19-1.41-1.16-2.08-2.28,0,0-2-4.48-.4-5.14a34.43,34.43,0,0,1,4.88-.18,5.28,5.28,0,0,1,4.8,4.07C266.34,219,257.72,217.65,257.72,217.65Z" style="fill:#ff8b7b"></path><path d="M256.59,217l-5.75-4.41a2,2,0,0,1-.36-2.82l1.45-1.85a2,2,0,0,1,2.42-.59l5.77,2.68Z" style="fill:#ff8b7b"></path><polygon points="260.53 217.15 265.99 228.35 272.95 227.1 263.62 212.4 260.53 217.15" style="fill:#ff8b7b"></polygon><path d="M304.85,242.26l-3.8,13.18L284.11,250c-11.16-2.89-23.33-28.19-23.33-28.19l7.59-3,17.36,20Z" style="fill:#F4DAA0"></path><path d="M295.64,278.72c1.74,4.69,2.78,12.93-4,23.47,0,0,26.13,3.88,44.64,2.71,1.29-7.53-1.9-23.19,4.88-47.33a9.79,9.79,0,0,0-7.79-12.3c-1.53-.26-3.15-.5-4.82-.69-6.48-.76-11.36-2-17.11-1.9-1.91,0-3.55-.65-5.44-.51-4.16.3-9.24,8.6-11.5,16.64A32.32,32.32,0,0,0,295.64,278.72Z" style="fill:#F4DAA0"></path><path d="M295.64,278.72c1.74,4.69,2.78,12.93-4,23.47,0,0,26.13,3.88,44.64,2.71,1.29-7.53-1.9-23.19,4.88-47.33a9.79,9.79,0,0,0-7.79-12.3c-1.53-.26-3.15-.5-4.82-.69-6.48-.76-11.36-2-17.11-1.9-1.91,0-3.55-.65-5.44-.51-4.16.3-9.24,8.6-11.5,16.64A32.32,32.32,0,0,0,295.64,278.72Z" style="fill:#fff;opacity:0.4"></path><path d="M301.24,304.16a25.79,25.79,0,0,1-12.36-3.45,52.67,52.67,0,0,0,2.29-26.34c-.79-4.61-2.19-9.26-1.46-13.88,1.2-7.61,7.77-13.05,13.88-17.76,1.14-.88,2.41-.3,3.83-.56C300.75,257.87,300.75,278.13,301.24,304.16Z" style="fill:#F4DAA0"></path><path d="M339.63,304.5a3.75,3.75,0,0,1-2.85,2.88,11.09,11.09,0,0,1-4.26,0c-4.8-.6-9.87-1.42-14.67-2a134.86,134.86,0,0,1,6.81-62.54c5.38-.15,11.23.44,14.55,4.67,2.62,3.33,2.46,8,2.17,12.2C340.37,274.69,341.51,289.63,339.63,304.5Z" style="fill:#F4DAA0"></path><path d="M326.27,270.11a105.64,105.64,0,0,1,6.21-20.42l.49,4.45,1.46,1.86c-2.43,7.38,10.1,19.65-4,36.73a2.44,2.44,0,0,1-2.83.69C321.62,291,315,283.27,315,283.27l3.1-7.93C322.32,277.31,325.13,276.11,326.27,270.11Z" style="opacity:0.2"></path><polygon points="303.4 271.47 311.39 279.37 314.9 273.78 306.29 266.95 303.4 271.47" style="fill:#ff8b7b"></polygon><polygon points="304.08 275.98 280.17 275.98 277.44 244.78 301.35 244.78 304.08 275.98" style="fill:#263238"></polygon><polygon points="304.08 275.98 280.17 275.98 277.44 244.78 301.35 244.78 304.08 275.98" style="fill:#fff;opacity:0.5"></polygon><polygon points="303.23 275.82 279.32 275.82 276.6 244.63 300.5 244.63 303.23 275.82" style="fill:#263238"></polygon><polygon points="303.23 275.82 279.32 275.82 276.6 244.63 300.5 244.63 303.23 275.82" style="fill:#fff;opacity:0.8"></polygon><polygon points="293.75 246.57 283.69 246.57 283.35 242.68 293.41 242.68 293.75 246.57" style="fill:#263238"></polygon><polygon points="283.35 242.68 284.34 242.33 294.75 242.33 294.89 243.99 294.12 244.89 294.07 246.25 293.75 246.57 293.41 242.68 283.35 242.68" style="fill:#263238"></polygon><polygon points="283.35 242.68 284.34 242.33 294.75 242.33 294.89 243.99 294.12 244.89 294.07 246.25 293.75 246.57 293.41 242.68 283.35 242.68" style="opacity:0.5"></polygon><path d="M295.8,270.65l1.71,1.45a2.6,2.6,0,0,0,2.32.55l3.82-.95c1.53-.39,2.64-4.75,2.64-4.75-1.93-2.32-7.73-3-7.73-3a2.16,2.16,0,0,0-2.74,1.41L295,268A2.49,2.49,0,0,0,295.8,270.65Z" style="fill:#ff8b7b"></path><path d="M341.46,263c.85-4.61,1-14-3.89-15.75-5.69-2.05-7.21,6.54-8.43,14.29S325.51,279,323.65,278c-3.86-2-10.64-6.44-10.64-6.44l-4.09,6.34s14.27,15.21,20.76,11.66C337,285.58,340.38,268.87,341.46,263Z" style="fill:#F4DAA0"></path><path d="M324.08,231.85a25.27,25.27,0,0,0,.12,11.5s-15.65,10-15.65-.29c0,0,4.86,1.4,5.27-4.84C314.05,234.68,317.75,231.09,324.08,231.85Z" style="fill:#ff8b7b"></path><path d="M313.82,238.22c.42-3.27,3.44-6.6,8.92-6.46l.36.33.39.72s-3.53,9-10.27,7.89A10.08,10.08,0,0,0,313.82,238.22Z" style="opacity:0.2;isolation:isolate"></path><path d="M327.66,219.6c-1.22,8.5-1.55,12.13-6.22,16.17-7,6.08-17.2,2.73-18.56-6-1.21-7.83,1-20.41,9.61-23.14a11.7,11.7,0,0,1,14.74,7.56A11.82,11.82,0,0,1,327.66,219.6Z" style="fill:#ff8b7b"></path><path d="M322,235.21a32,32,0,0,0,8.33-2.66c1.21-3.8,1.64-5,2.58-8.46,1.73-6.41.33-14.52-5.83-16.94-2.13-.84-8.72-4.71-11.09-1.31C315.38,206.7,327.46,221,322,235.21Z" style="fill:#263238"></path><path d="M308.72,224.28a18.67,18.67,0,0,1-2.84,4.25,3,3,0,0,0,2.44.67Z" style="fill:#ff5652"></path><path d="M316.31,220a.31.31,0,0,0,.16-.06.34.34,0,0,0,.06-.48h0a4,4,0,0,0-3.29-1.64.36.36,0,0,0-.31.37.34.34,0,0,0,.36.31,3.34,3.34,0,0,1,2.71,1.38A.33.33,0,0,0,316.31,220Z" style="fill:#263238"></path><path d="M303.69,218.39a.38.38,0,0,0,.16-.06,3.32,3.32,0,0,1,3-.54.34.34,0,0,0,.44-.19h0a.34.34,0,0,0-.2-.44,4,4,0,0,0-3.62.62.34.34,0,0,0,.24.62Z" style="fill:#263238"></path><path d="M313.72,223.53c-.05.69-.47,1.22-.93,1.19s-.77-.63-.71-1.33.47-1.22.92-1.19S313.77,222.83,313.72,223.53Z" style="fill:#263238"></path><path d="M305.85,222.9c-.05.69-.47,1.22-.92,1.19s-.77-.63-.72-1.33.47-1.22.92-1.19S305.92,222.19,305.85,222.9Z" style="fill:#263238"></path><path d="M305.33,221.62,303.7,221S304.45,222.38,305.33,221.62Z" style="fill:#263238"></path><path d="M313.2,222.26l-1.64-.62S312.32,223,313.2,222.26Z" style="fill:#263238"></path><path d="M312.74,230.49a4.74,4.74,0,0,0,.51-.67.17.17,0,0,0,0-.23h0a.18.18,0,0,0-.23.06,4.5,4.5,0,0,1-3.48,2.11.17.17,0,0,0-.17.17.17.17,0,0,0,.17.16A4.65,4.65,0,0,0,312.74,230.49Z" style="fill:#263238"></path><path d="M329.13,226.52a6.21,6.21,0,0,1-3.31,3.46c-2,.87-3.33-.86-3-2.93.28-1.85,1.68-4.54,3.83-4.54a2.85,2.85,0,0,1,2.75,2.93A2.9,2.9,0,0,1,329.13,226.52Z" style="fill:#ff8b7b"></path><path d="M311.59,204.89a10.34,10.34,0,0,0-8.14,11.47c1.42.23,2.85.65,4.27.87a5.14,5.14,0,0,1,1-4.49,10.37,10.37,0,0,0,.3,4.89c1.07.12,2.43.15,3.5.27,0-1.72.09-2.69.1-4.41.72,1.71,1.53,3.41,2.26,5.13a5.86,5.86,0,0,1,3.33.94c-.35-1.67-.71-3.51-1.06-5.18a14.12,14.12,0,0,1,3.19,8.91,12.72,12.72,0,0,0,.66-11.47C319.38,208.19,315.49,204.08,311.59,204.89Z" style="fill:#263238"></path><path d="M323.49,241.29a89.24,89.24,0,0,1-11.11,6.63c.34,2.28,1.66,5.61,3.66,7.18,6.26-4.71,8.18-7.46,10-12.26C325.78,241.57,324.57,240.56,323.49,241.29Z" style="fill:#F4DAA0"></path><path d="M323.49,241.29a89.24,89.24,0,0,1-11.11,6.63c.34,2.28,1.66,5.61,3.66,7.18,6.26-4.71,8.18-7.46,10-12.26C325.78,241.57,324.57,240.56,323.49,241.29Z" style="fill:#fff;opacity:0.7000000000000001"></path><path d="M307.57,242.3c-2.07,3.5-1.71,7.65-.05,11.37,1.55-2,3.42-3.67,5-5.67-2.27-2-1.68-3.68-1.31-5.57a7,7,0,0,0-3.52-.31l-.19.48C307.64,242.56,307.4,242.34,307.57,242.3Z" style="fill:#F4DAA0"></path><path d="M307.57,242.3c-2.07,3.5-1.71,7.65-.05,11.37,1.55-2,3.42-3.67,5-5.67-2.27-2-1.68-3.68-1.31-5.57a7,7,0,0,0-3.52-.31l-.19.48C307.64,242.56,307.4,242.34,307.57,242.3Z" style="fill:#fff;opacity:0.7000000000000001"></path></g><g id="freepik--Levels--inject-263"><path d="M359.56,191.16H337.34a33.14,33.14,0,0,0-66.27,0H248.85a55.36,55.36,0,1,1,110.71,0Z" style="fill:#F4DAA0"></path><path d="M332.89,174.6l19.26-11.12a55.63,55.63,0,0,0-20.26-20.27l-11.12,19.26A33.18,33.18,0,0,1,332.89,174.6Z" style="fill:#F4DAA0"></path><path d="M256.26,163.48a55.09,55.09,0,0,0-7.41,27.68h22.22a32.93,32.93,0,0,1,4.44-16.56Z" style="fill:#fff;opacity:0.8"></path><path d="M337.34,191.16h22.22a55.11,55.11,0,0,0-7.41-27.68L332.89,174.6A32.84,32.84,0,0,1,337.34,191.16Z" style="opacity:0.2"></path><path d="M287.64,162.47l-11.12-19.26a55.63,55.63,0,0,0-20.26,20.27l19.25,11.12A33.28,33.28,0,0,1,287.64,162.47Z" style="fill:#fff;opacity:0.6000000000000001"></path><path d="M304.2,158h0V135.8h0a55.14,55.14,0,0,0-27.68,7.41l11.12,19.26A33,33,0,0,1,304.2,158Z" style="fill:#fff;opacity:0.4"></path><path d="M320.77,162.47l11.12-19.26a55.15,55.15,0,0,0-27.69-7.41V158A33,33,0,0,1,320.77,162.47Z" style="fill:#fff;opacity:0.2"></path><polygon points="304.2 188.38 332.67 157.25 335.29 159.55 308.47 192.65 304.2 188.38" style="fill:#263238"></polygon><path d="M309.32,192.65a5.12,5.12,0,1,1-5.12-5.11A5.12,5.12,0,0,1,309.32,192.65Z" style="fill:#263238"></path></g><g id="freepik--Coins--inject-263"><circle cx="160.34" cy="388.14" r="24.05" transform="translate(-19.53 8.66) rotate(-2.91)" style="fill:#F4DAA0"></circle><path d="M187.25,387a24,24,0,1,1-25.09-23A24,24,0,0,1,187.25,387Z" style="fill:#F4DAA0"></path><path d="M187.25,387a24,24,0,1,1-25.09-23A24,24,0,0,1,187.25,387Z" style="fill:#fff;opacity:0.4"></path><path d="M181.21,387.22A18,18,0,1,1,162.43,370,18,18,0,0,1,181.21,387.22Z" style="fill:#F4DAA0"></path><g style="opacity:0.30000000000000004"><path d="M171.29,391.49c.87,3.95-1.74,6.73-6.64,7.36l.06,3.3-3,.13-.06-3.29a16.71,16.71,0,0,1-7.38-2l1.19-3.77a13.74,13.74,0,0,0,6.12,1.86l-.1-5.06c-3-.71-6.25-1.67-7-5.26-.88-3.94,1.79-6.76,6.79-7.34l-.06-3.29,3-.13.07,3.32a14.84,14.84,0,0,1,5.87,1.45l-1,3.75a11.55,11.55,0,0,0-4.79-1.34l.11,5.27C167.34,387.14,170.54,388.08,171.29,391.49Zm-9.9-5.73-.07-4.31c-1.64.4-2.39,1.36-2.17,2.49C159.35,384.86,160.22,385.36,161.39,385.76Zm5.23,6.72c-.19-.86-1-1.37-2.13-1.71l.09,4.1C166.13,394.47,166.87,393.61,166.62,392.48Z" style="fill:#fff"></path></g><path d="M99.91,408.37c-.16,3.73,11.65,7.26,26.38,7.88s26.8-1.89,27-5.62-11.66-7.26-26.38-7.89S100.07,404.64,99.91,408.37Z" style="fill:#F4DAA0"></path><rect x="123.34" y="379.43" width="6.76" height="53.38" transform="matrix(0.04, -1, 1, 0.04, -284.41, 515.49)" style="fill:#F4DAA0"></rect><path d="M100.2,401.61c-.16,3.73,11.65,7.26,26.38,7.89s26.8-1.89,27-5.62-11.65-7.27-26.38-7.89S100.36,397.88,100.2,401.61Z" style="fill:#F4DAA0"></path><path d="M100.2,401.61c-.16,3.73,11.65,7.26,26.38,7.89s26.8-1.89,27-5.62-11.65-7.27-26.38-7.89S100.36,397.88,100.2,401.61Z" style="fill:#fff;opacity:0.4"></path><path d="M103.6,401.49a1,1,0,0,0,.23.67c1.78-2.19,11.53-3.48,23.18-3s21.29,2.61,22.85,4.94a1,1,0,0,0,.29-.64c.1-2.53-10.22-5.06-23.08-5.6S103.71,399,103.6,401.49Z" style="fill:#F4DAA0"></path><path d="M103.6,401.49a1,1,0,0,0,.23.67c1.78-2.19,11.53-3.48,23.18-3s21.29,2.61,22.85,4.94a1,1,0,0,0,.29-.64c.1-2.53-10.22-5.06-23.08-5.6S103.71,399,103.6,401.49Z" style="fill:#F4DAA0;opacity:0.4"></path><path d="M103.83,402.16c1.59,2.34,11.19,4.45,22.85,4.94s21.43-.79,23.18-3c-1.56-2.33-11.16-4.44-22.85-4.94S105.61,400,103.83,402.16Z" style="fill:#F4DAA0;opacity:0.4"></path><path d="M94.31,398.14c-.16,3.73,11.65,7.26,26.38,7.89s26.79-1.9,26.95-5.63-11.65-7.26-26.38-7.89S94.47,394.41,94.31,398.14Z" style="fill:#F4DAA0"></path><rect x="117.74" y="369.2" width="6.76" height="53.39" transform="translate(-279.55 500.12) rotate(-87.57)" style="fill:#F4DAA0"></rect><path d="M94.59,391.38c-.16,3.73,11.66,7.26,26.39,7.89s26.79-1.89,27-5.62-11.65-7.27-26.38-7.89S94.75,387.65,94.59,391.38Z" style="fill:#F4DAA0"></path><path d="M94.59,391.38c-.16,3.73,11.66,7.26,26.39,7.89s26.79-1.89,27-5.62-11.65-7.27-26.38-7.89S94.75,387.65,94.59,391.38Z" style="fill:#fff;opacity:0.4"></path><path d="M98,391.26a1,1,0,0,0,.22.67c1.79-2.19,11.54-3.48,23.19-3s21.29,2.61,22.85,4.95a1,1,0,0,0,.28-.65c.11-2.52-10.21-5.06-23.07-5.6S98.1,388.74,98,391.26Z" style="fill:#F4DAA0"></path><path d="M98,391.26a1,1,0,0,0,.22.67c1.79-2.19,11.54-3.48,23.19-3s21.29,2.61,22.85,4.95a1,1,0,0,0,.28-.65c.11-2.52-10.21-5.06-23.07-5.6S98.1,388.74,98,391.26Z" style="fill:#F4DAA0;opacity:0.4"></path><path d="M98.22,391.93c1.59,2.34,11.2,4.45,22.85,4.94s21.44-.79,23.19-3c-1.56-2.34-11.16-4.45-22.85-4.95S100,389.74,98.22,391.93Z" style="fill:#F4DAA0;opacity:0.4"></path><path d="M95,385.81c-.16,3.74,11.66,7.27,26.38,7.89s26.8-1.89,27-5.62-11.65-7.26-26.38-7.89S95.19,382.08,95,385.81Z" style="fill:#F4DAA0"></path><rect x="118.46" y="356.88" width="6.76" height="53.39" transform="translate(-266.55 489.04) rotate(-87.57)" style="fill:#F4DAA0"></rect><path d="M95.32,379.06c-.16,3.73,11.65,7.26,26.38,7.89s26.8-1.89,27-5.63-11.66-7.26-26.39-7.88S95.48,375.33,95.32,379.06Z" style="fill:#F4DAA0"></path><path d="M95.32,379.06c-.16,3.73,11.65,7.26,26.38,7.89s26.8-1.89,27-5.63-11.66-7.26-26.39-7.88S95.48,375.33,95.32,379.06Z" style="fill:#fff;opacity:0.4"></path><path d="M98.72,378.94a1,1,0,0,0,.23.67c1.78-2.2,11.53-3.48,23.19-3s21.29,2.61,22.85,4.94a1,1,0,0,0,.28-.64c.11-2.53-10.22-5.06-23.08-5.61S98.83,376.42,98.72,378.94Z" style="fill:#F4DAA0"></path><path d="M98.72,378.94a1,1,0,0,0,.23.67c1.78-2.2,11.53-3.48,23.19-3s21.29,2.61,22.85,4.94a1,1,0,0,0,.28-.64c.11-2.53-10.22-5.06-23.08-5.61S98.83,376.42,98.72,378.94Z" style="fill:#F4DAA0;opacity:0.4"></path><path d="M99,379.61c1.59,2.33,11.2,4.44,22.85,4.94s21.43-.79,23.19-3c-1.56-2.33-11.17-4.44-22.85-4.94S100.73,377.41,99,379.61Z" style="fill:#F4DAA0;opacity:0.4"></path><path d="M89.43,375.59c-.16,3.73,11.65,7.26,26.38,7.88s26.8-1.89,26.95-5.62-11.65-7.26-26.38-7.89S89.59,371.85,89.43,375.59Z" style="fill:#F4DAA0"></path><rect x="112.86" y="346.65" width="6.76" height="53.38" transform="translate(-261.7 473.62) rotate(-87.57)" style="fill:#F4DAA0"></rect><path d="M89.72,368.83c-.16,3.73,11.65,7.26,26.38,7.89s26.79-1.89,27-5.63-11.65-7.26-26.38-7.88S89.87,365.1,89.72,368.83Z" style="fill:#F4DAA0"></path><path d="M89.72,368.83c-.16,3.73,11.65,7.26,26.38,7.89s26.79-1.89,27-5.63-11.65-7.26-26.38-7.88S89.87,365.1,89.72,368.83Z" style="fill:#fff;opacity:0.4"></path><path d="M93.12,368.71a1,1,0,0,0,.22.67c1.79-2.2,11.54-3.48,23.19-3s21.29,2.61,22.85,4.94a1,1,0,0,0,.28-.64c.11-2.53-10.21-5.06-23.07-5.61S93.22,366.19,93.12,368.71Z" style="fill:#F4DAA0"></path><path d="M93.12,368.71a1,1,0,0,0,.22.67c1.79-2.2,11.54-3.48,23.19-3s21.29,2.61,22.85,4.94a1,1,0,0,0,.28-.64c.11-2.53-10.21-5.06-23.07-5.61S93.22,366.19,93.12,368.71Z" style="fill:#F4DAA0;opacity:0.4"></path><path d="M93.34,369.38c1.6,2.33,11.2,4.44,22.85,4.94s21.44-.79,23.19-3c-1.56-2.33-11.16-4.44-22.85-4.94S95.13,367.18,93.34,369.38Z" style="fill:#F4DAA0;opacity:0.4"></path><path d="M98,366.92c-.16,3.73,11.65,7.26,26.38,7.88s26.79-1.89,26.95-5.62-11.65-7.26-26.38-7.89S98.14,363.18,98,366.92Z" style="fill:#F4DAA0"></path><rect x="121.42" y="337.98" width="6.76" height="53.38" transform="translate(-244.84 473.89) rotate(-87.57)" style="fill:#F4DAA0"></rect><path d="M98.27,360.16c-.16,3.73,11.65,7.26,26.38,7.89s26.8-1.89,27-5.63-11.65-7.26-26.38-7.88S98.43,356.43,98.27,360.16Z" style="fill:#F4DAA0"></path><path d="M98.27,360.16c-.16,3.73,11.65,7.26,26.38,7.89s26.8-1.89,27-5.63-11.65-7.26-26.38-7.88S98.43,356.43,98.27,360.16Z" style="fill:#fff;opacity:0.4"></path><path d="M101.67,360a1,1,0,0,0,.23.67c1.78-2.2,11.54-3.48,23.19-3s21.29,2.61,22.85,4.94a1,1,0,0,0,.28-.64c.11-2.53-10.21-5.06-23.08-5.61S101.78,357.52,101.67,360Z" style="fill:#F4DAA0"></path><path d="M101.67,360a1,1,0,0,0,.23.67c1.78-2.2,11.54-3.48,23.19-3s21.29,2.61,22.85,4.94a1,1,0,0,0,.28-.64c.11-2.53-10.21-5.06-23.08-5.61S101.78,357.52,101.67,360Z" style="fill:#F4DAA0;opacity:0.4"></path><path d="M101.9,360.71c1.59,2.33,11.2,4.44,22.85,4.94s21.44-.79,23.19-3c-1.56-2.33-11.17-4.44-22.85-4.94S103.68,358.51,101.9,360.71Z" style="fill:#F4DAA0;opacity:0.4"></path><path d="M92.38,356.69c-.16,3.73,11.65,7.26,26.38,7.88s26.8-1.89,27-5.62-11.65-7.26-26.38-7.89S92.54,353,92.38,356.69Z" style="fill:#F4DAA0"></path><rect x="115.81" y="327.75" width="6.76" height="53.38" transform="translate(-239.99 458.48) rotate(-87.57)" style="fill:#F4DAA0"></rect><path d="M92.67,349.93c-.16,3.73,11.65,7.26,26.38,7.89s26.8-1.89,27-5.62-11.66-7.27-26.39-7.89S92.83,346.2,92.67,349.93Z" style="fill:#F4DAA0"></path><path d="M92.67,349.93c-.16,3.73,11.65,7.26,26.38,7.89s26.8-1.89,27-5.62-11.66-7.27-26.39-7.89S92.83,346.2,92.67,349.93Z" style="fill:#fff;opacity:0.4"></path><path d="M96.07,349.81a1,1,0,0,0,.23.67c1.78-2.2,11.53-3.48,23.18-3s21.3,2.61,22.86,4.94a1,1,0,0,0,.28-.64c.1-2.53-10.22-5.06-23.08-5.6S96.18,347.29,96.07,349.81Z" style="fill:#F4DAA0"></path><path d="M96.07,349.81a1,1,0,0,0,.23.67c1.78-2.2,11.53-3.48,23.18-3s21.3,2.61,22.86,4.94a1,1,0,0,0,.28-.64c.1-2.53-10.22-5.06-23.08-5.6S96.18,347.29,96.07,349.81Z" style="fill:#F4DAA0;opacity:0.4"></path><path d="M96.3,350.48c1.59,2.34,11.2,4.45,22.85,4.94s21.43-.79,23.19-3c-1.56-2.33-11.17-4.44-22.86-4.94S98.08,348.28,96.3,350.48Z" style="fill:#F4DAA0;opacity:0.4"></path><path d="M151.3,349.42c.16,3.74-11.65,7.27-26.38,7.89s-26.8-1.89-27-5.62,11.65-7.26,26.38-7.89S151.14,345.69,151.3,349.42Z" style="fill:#F4DAA0"></path><rect x="97.8" y="343.8" width="53.38" height="6.76" transform="matrix(1, -0.04, 0.04, 1, -14.62, 5.6)" style="fill:#F4DAA0"></rect><path d="M151,342.67c.16,3.73-11.65,7.26-26.38,7.89s-26.8-1.89-26.95-5.63,11.65-7.26,26.38-7.88S150.85,338.94,151,342.67Z" style="fill:#F4DAA0"></path><path d="M151,342.67c.16,3.73-11.65,7.26-26.38,7.89s-26.8-1.89-26.95-5.63,11.65-7.26,26.38-7.88S150.85,338.94,151,342.67Z" style="fill:#fff;opacity:0.4"></path><path d="M147.61,342.55a1,1,0,0,1-.23.67c-1.78-2.2-11.53-3.48-23.18-3s-21.3,2.61-22.85,4.94a1,1,0,0,1-.29-.64c-.1-2.53,10.22-5.06,23.08-5.61S147.5,340,147.61,342.55Z" style="fill:#F4DAA0"></path><path d="M147.61,342.55a1,1,0,0,1-.23.67c-1.78-2.2-11.53-3.48-23.18-3s-21.3,2.61-22.85,4.94a1,1,0,0,1-.29-.64c-.1-2.53,10.22-5.06,23.08-5.61S147.5,340,147.61,342.55Z" style="fill:#F4DAA0;opacity:0.4"></path><path d="M147.38,343.22c-1.59,2.33-11.19,4.44-22.85,4.94s-21.43-.79-23.18-3c1.55-2.33,11.16-4.44,22.85-4.94S145.6,341,147.38,343.22Z" style="fill:#F4DAA0;opacity:0.4"></path><path d="M156.9,339.2c.16,3.73-11.65,7.26-26.38,7.88s-26.79-1.89-27-5.62,11.65-7.26,26.38-7.89S156.74,335.46,156.9,339.2Z" style="fill:#F4DAA0"></path><rect x="103.4" y="333.57" width="53.39" height="6.76" transform="translate(-14.16 5.82) rotate(-2.43)" style="fill:#F4DAA0"></rect><path d="M156.62,332.44c.15,3.73-11.66,7.26-26.39,7.89s-26.79-1.89-26.95-5.63,11.65-7.26,26.38-7.88S156.46,328.71,156.62,332.44Z" style="fill:#F4DAA0"></path><path d="M156.62,332.44c.15,3.73-11.66,7.26-26.39,7.89s-26.79-1.89-26.95-5.63,11.65-7.26,26.38-7.88S156.46,328.71,156.62,332.44Z" style="fill:#fff;opacity:0.4"></path><path d="M153.21,332.32a1,1,0,0,1-.22.67c-1.79-2.2-11.54-3.48-23.19-3s-21.29,2.61-22.85,4.94a1,1,0,0,1-.28-.64c-.11-2.53,10.21-5.06,23.07-5.61S153.11,329.8,153.21,332.32Z" style="fill:#F4DAA0"></path><path d="M153.21,332.32a1,1,0,0,1-.22.67c-1.79-2.2-11.54-3.48-23.19-3s-21.29,2.61-22.85,4.94a1,1,0,0,1-.28-.64c-.11-2.53,10.21-5.06,23.07-5.61S153.11,329.8,153.21,332.32Z" style="fill:#F4DAA0;opacity:0.4"></path><path d="M153,333c-1.59,2.33-11.2,4.44-22.85,4.94s-21.44-.79-23.19-3c1.56-2.33,11.16-4.44,22.85-4.94S151.2,330.79,153,333Z" style="fill:#F4DAA0;opacity:0.4"></path><path d="M156.18,326.87c.16,3.73-11.66,7.27-26.38,7.89s-26.8-1.89-27-5.62,11.65-7.27,26.38-7.89S156,323.14,156.18,326.87Z" style="fill:#F4DAA0"></path><rect x="102.67" y="321.25" width="53.39" height="6.76" transform="translate(-13.65 5.78) rotate(-2.43)" style="fill:#F4DAA0"></rect><path d="M155.89,320.12c.16,3.73-11.65,7.26-26.38,7.89s-26.8-1.9-27-5.63,11.66-7.26,26.38-7.89S155.73,316.39,155.89,320.12Z" style="fill:#F4DAA0"></path><path d="M155.89,320.12c.16,3.73-11.65,7.26-26.38,7.89s-26.8-1.9-27-5.63,11.66-7.26,26.38-7.89S155.73,316.39,155.89,320.12Z" style="fill:#fff;opacity:0.4"></path><path d="M152.49,320a1.07,1.07,0,0,1-.23.67c-1.78-2.2-11.53-3.49-23.19-3s-21.29,2.61-22.85,4.94a1.06,1.06,0,0,1-.28-.64c-.11-2.53,10.22-5.06,23.08-5.61S152.38,317.47,152.49,320Z" style="fill:#F4DAA0"></path><path d="M152.49,320a1.07,1.07,0,0,1-.23.67c-1.78-2.2-11.53-3.49-23.19-3s-21.29,2.61-22.85,4.94a1.06,1.06,0,0,1-.28-.64c-.11-2.53,10.22-5.06,23.08-5.61S152.38,317.47,152.49,320Z" style="fill:#F4DAA0;opacity:0.4"></path><path d="M152.26,320.67c-1.59,2.33-11.2,4.44-22.85,4.94s-21.43-.79-23.19-3c1.56-2.33,11.17-4.45,22.85-4.94S150.48,318.47,152.26,320.67Z" style="fill:#F4DAA0;opacity:0.4"></path><path d="M161.78,316.64c.16,3.73-11.65,7.27-26.38,7.89s-26.8-1.89-27-5.62,11.66-7.26,26.39-7.89S161.62,312.91,161.78,316.64Z" style="fill:#F4DAA0"></path><rect x="108.28" y="311.02" width="53.38" height="6.76" transform="translate(-13.23 6.01) rotate(-2.43)" style="fill:#F4DAA0"></rect><path d="M161.49,309.89c.16,3.73-11.65,7.26-26.38,7.89s-26.79-1.9-27-5.63,11.65-7.26,26.38-7.89S161.34,306.16,161.49,309.89Z" style="fill:#F4DAA0"></path><path d="M161.49,309.89c.16,3.73-11.65,7.26-26.38,7.89s-26.79-1.9-27-5.63,11.65-7.26,26.38-7.89S161.34,306.16,161.49,309.89Z" style="fill:#fff;opacity:0.4"></path><path d="M158.09,309.77a1,1,0,0,1-.22.67c-1.79-2.2-11.54-3.49-23.19-3s-21.29,2.61-22.85,4.94a1,1,0,0,1-.28-.64c-.11-2.53,10.21-5.06,23.07-5.61S158,307.25,158.09,309.77Z" style="fill:#F4DAA0"></path><path d="M158.09,309.77a1,1,0,0,1-.22.67c-1.79-2.2-11.54-3.49-23.19-3s-21.29,2.61-22.85,4.94a1,1,0,0,1-.28-.64c-.11-2.53,10.21-5.06,23.07-5.61S158,307.25,158.09,309.77Z" style="fill:#F4DAA0;opacity:0.4"></path><path d="M157.87,310.44c-1.6,2.33-11.2,4.44-22.85,4.94s-21.44-.79-23.19-3c1.56-2.33,11.16-4.44,22.85-4.94S156.08,308.24,157.87,310.44Z" style="fill:#F4DAA0;opacity:0.4"></path><path d="M153.22,308c.16,3.73-11.65,7.27-26.38,7.89s-26.79-1.89-26.95-5.62,11.65-7.26,26.38-7.89S153.07,304.24,153.22,308Z" style="fill:#F4DAA0"></path><rect x="99.72" y="302.35" width="53.39" height="6.76" transform="translate(-12.85 5.63) rotate(-2.43)" style="fill:#F4DAA0"></rect><path d="M152.94,301.22c.16,3.73-11.66,7.26-26.38,7.89s-26.8-1.9-27-5.63,11.65-7.26,26.38-7.89S152.78,297.49,152.94,301.22Z" style="fill:#F4DAA0"></path><path d="M152.94,301.22c.16,3.73-11.66,7.26-26.38,7.89s-26.8-1.9-27-5.63,11.65-7.26,26.38-7.89S152.78,297.49,152.94,301.22Z" style="fill:#fff;opacity:0.4"></path><path d="M149.54,301.1a1.11,1.11,0,0,1-.23.67c-1.79-2.2-11.54-3.49-23.19-3s-21.29,2.61-22.85,4.94a1,1,0,0,1-.28-.64c-.11-2.53,10.21-5.06,23.08-5.61S149.43,298.58,149.54,301.1Z" style="fill:#F4DAA0"></path><path d="M149.54,301.1a1.11,1.11,0,0,1-.23.67c-1.79-2.2-11.54-3.49-23.19-3s-21.29,2.61-22.85,4.94a1,1,0,0,1-.28-.64c-.11-2.53,10.21-5.06,23.08-5.61S149.43,298.58,149.54,301.1Z" style="fill:#F4DAA0;opacity:0.4"></path><path d="M149.31,301.77c-1.59,2.33-11.2,4.44-22.85,4.94s-21.44-.79-23.19-3c1.56-2.33,11.17-4.44,22.85-4.94S147.52,299.57,149.31,301.77Z" style="fill:#F4DAA0;opacity:0.4"></path><path d="M158.83,297.74c.16,3.74-11.65,7.27-26.38,7.89s-26.8-1.89-27-5.62,11.65-7.26,26.38-7.89S158.67,294,158.83,297.74Z" style="fill:#F4DAA0"></path><rect x="105.32" y="292.12" width="53.38" height="6.76" transform="translate(-12.42 5.87) rotate(-2.43)" style="fill:#F4DAA0"></rect><path d="M158.54,291c.16,3.73-11.65,7.26-26.38,7.89s-26.8-1.89-27-5.63,11.66-7.26,26.39-7.88S158.38,287.26,158.54,291Z" style="fill:#F4DAA0"></path><path d="M158.54,291c.16,3.73-11.65,7.26-26.38,7.89s-26.8-1.89-27-5.63,11.66-7.26,26.39-7.88S158.38,287.26,158.54,291Z" style="fill:#fff;opacity:0.4"></path><path d="M155.14,290.87a1,1,0,0,1-.23.67c-1.78-2.2-11.53-3.48-23.18-3s-21.3,2.61-22.86,4.94a1,1,0,0,1-.28-.64c-.1-2.53,10.22-5.06,23.08-5.61S155,288.35,155.14,290.87Z" style="fill:#F4DAA0"></path><path d="M155.14,290.87a1,1,0,0,1-.23.67c-1.78-2.2-11.53-3.48-23.18-3s-21.3,2.61-22.86,4.94a1,1,0,0,1-.28-.64c-.1-2.53,10.22-5.06,23.08-5.61S155,288.35,155.14,290.87Z" style="fill:#F4DAA0;opacity:0.4"></path><path d="M154.91,291.54c-1.59,2.33-11.2,4.44-22.85,4.94s-21.43-.79-23.19-3c1.56-2.33,11.17-4.44,22.86-4.94S153.13,289.34,154.91,291.54Z" style="fill:#F4DAA0;opacity:0.4"></path></g><g id="freepik--Profile--inject-263"><polygon points="219.06 254.65 87.7 254.65 78.15 72.45 209.52 72.45 219.06 254.65" style="fill:#F4DAA0"></polygon><g style="opacity:0.6000000000000001"><polygon points="219.06 254.65 87.7 254.65 78.15 72.45 209.52 72.45 219.06 254.65" style="fill:#fff"></polygon></g><path d="M152.47,193.89h-53a1.17,1.17,0,0,0-1.19,1.25h0a1.33,1.33,0,0,0,1.32,1.25h53a1.17,1.17,0,0,0,1.19-1.25h0A1.33,1.33,0,0,0,152.47,193.89Z" style="fill:#263238"></path><path d="M139,184.25H98.93a1.19,1.19,0,0,0-1.19,1.26h0a1.34,1.34,0,0,0,1.32,1.25h40.08a1.18,1.18,0,0,0,1.19-1.25h0A1.34,1.34,0,0,0,139,184.25Z" style="fill:#263238"></path><path d="M153.69,217.1h-53a1.18,1.18,0,0,0-1.19,1.25h0a1.34,1.34,0,0,0,1.32,1.26h53a1.18,1.18,0,0,0,1.19-1.26h0A1.34,1.34,0,0,0,153.69,217.1Z" style="fill:#263238"></path><path d="M140.23,207.47H100.15A1.18,1.18,0,0,0,99,208.72h0a1.34,1.34,0,0,0,1.32,1.25h40.08a1.18,1.18,0,0,0,1.19-1.25h0A1.34,1.34,0,0,0,140.23,207.47Z" style="fill:#263238"></path><path d="M154.91,240.31h-53a1.19,1.19,0,0,0-1.19,1.26h0a1.34,1.34,0,0,0,1.32,1.25h53a1.18,1.18,0,0,0,1.19-1.25h0A1.35,1.35,0,0,0,154.91,240.31Z" style="fill:#263238"></path><path d="M141.44,230.68H101.36a1.17,1.17,0,0,0-1.18,1.25h0a1.33,1.33,0,0,0,1.32,1.26h40.07a1.17,1.17,0,0,0,1.19-1.26h0A1.33,1.33,0,0,0,141.44,230.68Z" style="fill:#263238"></path><path d="M201.82,194.57h-9.63a.73.73,0,0,1-.72-.68l-.5-9.64a.64.64,0,0,1,.64-.68h9.64a.72.72,0,0,1,.71.68l.51,9.64A.64.64,0,0,1,201.82,194.57Zm-9-1.37h8.27l-.43-8.27h-8.27Z" style="fill:#F4DAA0"></path><path d="M203.1,219h-9.63a.73.73,0,0,1-.72-.69l-.5-9.63a.64.64,0,0,1,.64-.68h9.64a.73.73,0,0,1,.72.68l.5,9.63A.65.65,0,0,1,203.1,219Zm-9-1.37h8.27l-.43-8.27h-8.27Z" style="fill:#F4DAA0"></path><path d="M204.32,242.25h-9.63a.73.73,0,0,1-.72-.68l-.5-9.64a.64.64,0,0,1,.64-.68h9.64a.73.73,0,0,1,.71.68l.51,9.64A.64.64,0,0,1,204.32,242.25Zm-9-1.36h8.27l-.43-8.27h-8.28Z" style="fill:#F4DAA0"></path><polygon points="173.82 153.37 129.38 153.37 126.72 102.51 171.16 102.51 173.82 153.37" style="fill:#fff"></polygon><path d="M196.87,192h0a1.46,1.46,0,0,1-1-.47l-2.63-2.89a1.33,1.33,0,1,1,2-1.77l1.59,1.73,6-6.68a1.4,1.4,0,0,1,2.08,1.88l-7,7.77A1.29,1.29,0,0,1,196.87,192Z" style="fill:#F4DAA0"></path><path d="M198.15,216.43h0a1.46,1.46,0,0,1-1-.47l-2.63-2.88a1.33,1.33,0,1,1,2-1.78L198,213l6-6.68a1.4,1.4,0,0,1,2.08,1.87l-7,7.78A1.32,1.32,0,0,1,198.15,216.43Z" style="fill:#F4DAA0"></path><path d="M199.38,240h0a1.44,1.44,0,0,1-1-.47l-2.63-2.88a1.34,1.34,0,0,1,0-1.92,1.37,1.37,0,0,1,1.93.14l1.59,1.74,6-6.68a1.4,1.4,0,0,1,2.08,1.87l-7,7.78A1.28,1.28,0,0,1,199.38,240Z" style="fill:#F4DAA0"></path><path d="M172.92,160H131a1.18,1.18,0,0,0-1.19,1.25h0a1.34,1.34,0,0,0,1.32,1.26h41.94a1.19,1.19,0,0,0,1.19-1.26h0A1.34,1.34,0,0,0,172.92,160Z" style="fill:#263238"></path><path d="M151.13,168.33H131.42a1.18,1.18,0,0,0-1.19,1.25h0a1.35,1.35,0,0,0,1.32,1.26h19.71a1.18,1.18,0,0,0,1.19-1.26h0A1.33,1.33,0,0,0,151.13,168.33Z" style="fill:#263238"></path><path d="M174.54,85h-53a1.18,1.18,0,0,0-1.18,1.26h0a1.33,1.33,0,0,0,1.32,1.25h53a1.17,1.17,0,0,0,1.19-1.25h0A1.35,1.35,0,0,0,174.54,85Z" style="fill:#263238"></path><ellipse cx="150.24" cy="127.43" rx="8.83" ry="9.31" transform="translate(-45.87 146.13) rotate(-45.75)" style="fill:#F4DAA0"></ellipse><path d="M168.16,153.37H135a15.56,15.56,0,0,1,15.71-16.31,17.66,17.66,0,0,1,17.41,16.31Z" style="fill:#F4DAA0"></path></g></svg>
